<?xml version="1.0" encoding="UTF-8"?>
<svg id="Artboard_3_Image" xmlns="http://www.w3.org/2000/svg" xmlns:xlink="http://www.w3.org/1999/xlink" version="1.1" viewBox="0 0 1612.6 1014.7">
  <!-- Generator: Adobe Illustrator 29.7.1, SVG Export Plug-In . SVG Version: 2.1.1 Build 8)  -->
  <defs>
    <style>
      .st0 {
        isolation: isolate;
      }

      .st1 {
        fill: #1f4d50;
      }
    </style>
  </defs>
  <path class="st1" d="M271.1,393.8s-83.2,28.2-137.7,87.5c-54.6,59.2-124.7,200.3-18.2,234.1,106.6,33.9,176.7,152.3,244.3,84.6,67.6-67.7,187.1,149.5,361.2,126.9,174.1-22.6,161.1-62.1,161.1-62.1,0,0,72.4,145,157.5,128.5,85.1-16.6,78.8-80,78.8-80,0,0,175.3,95.2,213.5,85.5,38.1-9.7,102.9-84.1,102.9-124.1s-105.5-70.3-76.2-104.8,230,71.7,230-49.7,36.8-268.9-83.9-270.3c-120.7-1.4,111.8-218.6-6.4-342-118.2-123.4-194.4-122.1-307.5-51.7-113.1,70.3-81.3,150.3-116.9,147.6-35.6-2.8-52.1-104.8-128.3-93.8-76.2,11-67.3-26.2-113.1-52.4-45.7-26.2-108-15.2-132.1-30.3s-101.6-26.2-142.3,30.3c-40.7,56.5-65.4-7.3-116.7,30.6-31.1,23-66.2,5.3-134.9,53.5-68.6,48.3-35.1,252.1-35.1,252.1Z"/>
  <image id="Artboard_3_Image-2" class="st0" width="6719" height="4227" transform="translate(142 79) scale(.2)" xlink:href="Assemblenew-1.png"/>
</svg>