<?xml version="1.0" encoding="UTF-8"?>
<svg id="Layer_1" data-name="Layer 1" xmlns="http://www.w3.org/2000/svg" viewBox="0 0 1920 1080">
  <defs>
    <style>
      .cls-1, .cls-2, .cls-3, .cls-4 {
        stroke-miterlimit: 10;
      }

      .cls-1, .cls-2, .cls-4 {
        fill: none;
      }

      .cls-1, .cls-3 {
        stroke: #cee693;
      }

      .cls-5 {
        fill: #55292d;
      }

      .cls-6 {
        fill: #e4da9d;
      }

      .cls-7 {
        fill: #e77600;
      }

      .cls-8 {
        fill: #f2f3c4;
      }

      .cls-9 {
        fill: #f8f8f5;
      }

      .cls-10 {
        fill: #ff7373;
      }

      .cls-11 {
        fill: #cee693;
      }

      .cls-12 {
        fill: #d0ac64;
      }

      .cls-13 {
        fill: #edeab2;
      }

      .cls-14 {
        fill: #fff;
      }

      .cls-15 {
        fill: #e9cc8a;
      }

      .cls-16 {
        fill: #ff9600;
      }

      .cls-17 {
        fill: #dfdcca;
      }

      .cls-2 {
        stroke: #000;
        stroke-width: .75px;
      }

      .cls-3 {
        fill: #0a5c00;
      }

      .cls-18 {
        fill: #de8631;
      }

      .cls-19 {
        fill: #ce292d;
      }

      .cls-20 {
        fill: #8fae56;
      }

      .cls-4 {
        stroke: #b6d284;
      }

      .cls-21 {
        fill: #0a7086;
      }

      .cls-22 {
        fill: #a5292d;
      }

      .cls-23 {
        fill: #de5948;
      }

      .cls-24 {
        fill: #1c5c00;
      }

      .cls-25 {
        fill: #1c3b00;
      }
    </style>
  </defs>
  <path class="cls-21" d="M427.02,729.45c.18-2.88.35-5.75.54-8.63-.23.38-.5.74-.75,1.09-.3,2.76-.59,5.52-.89,8.27.52-.19.87-.44,1.1-.74Z"/>
  <g>
    <polygon class="cls-10" points="296.23 581.15 280.72 613.52 241.92 597.2 258.28 560.69 296.23 581.15"/>
    <polygon class="cls-10" points="280.72 613.52 241.92 597.2 243.93 606.4 272.26 618.01 280.72 613.52"/>
  </g>
  <g>
    <polygon class="cls-10" points="312.83 624.04 344.64 640.66 326.98 678.87 291.06 661.26 312.83 624.04"/>
    <polygon class="cls-10" points="344.64 640.66 326.98 678.87 336.25 677.18 348.83 649.27 344.64 640.66"/>
  </g>
  <g>
    <polygon class="cls-10" points="208.59 626.37 240.4 642.99 222.75 681.2 186.83 663.59 208.59 626.37"/>
    <polygon class="cls-10" points="240.4 642.99 222.75 681.2 232.01 679.51 244.6 651.6 240.4 642.99"/>
  </g>
  <g>
    <polygon class="cls-10" points="339.17 635.81 315.37 608.94 345.47 579.52 372.76 608.78 339.17 635.81"/>
    <polygon class="cls-10" points="315.37 608.94 345.47 579.52 336.21 577.8 314.51 599.4 315.37 608.94"/>
  </g>
  <g>
    <polygon class="cls-10" points="429.18 566.94 393.57 562.51 396.72 520.54 436.54 524.46 429.18 566.94"/>
    <polygon class="cls-10" points="393.57 562.51 396.72 520.54 388.64 525.36 386.62 555.92 393.57 562.51"/>
  </g>
  <g>
    <polygon class="cls-10" points="408.59 609.91 372.98 605.48 376.13 563.51 415.94 567.43 408.59 609.91"/>
    <polygon class="cls-10" points="372.98 605.48 376.13 563.51 368.04 568.34 366.03 598.89 372.98 605.48"/>
  </g>
  <g>
    <polygon class="cls-10" points="298.76 491.35 333.85 483.81 344.68 524.49 305.8 533.89 298.76 491.35"/>
    <polygon class="cls-10" points="333.85 483.81 344.68 524.49 350.73 517.27 342.58 487.76 333.85 483.81"/>
  </g>
  <g>
    <polygon class="cls-10" points="362.68 494.32 397.77 486.79 408.6 527.46 369.72 536.86 362.68 494.32"/>
    <polygon class="cls-10" points="397.77 486.79 408.6 527.46 414.65 520.24 406.5 490.73 397.77 486.79"/>
  </g>
  <g>
    <polygon class="cls-10" points="218.15 665.08 215.64 629.28 257.44 624.3 261.25 664.13 218.15 665.08"/>
    <polygon class="cls-10" points="215.64 629.28 257.44 624.3 251.15 617.29 220.78 621.19 215.64 629.28"/>
  </g>
  <g>
    <polygon class="cls-10" points="337.84 702.44 335.33 666.64 377.13 661.66 380.94 701.49 337.84 702.44"/>
    <polygon class="cls-10" points="335.33 666.64 377.13 661.66 370.84 654.66 340.47 658.55 335.33 666.64"/>
  </g>
  <g>
    <polygon class="cls-10" points="213.27 724.01 210.77 688.21 252.57 683.23 256.38 723.05 213.27 724.01"/>
    <polygon class="cls-10" points="210.77 688.21 252.57 683.23 246.28 676.22 215.91 680.12 210.77 688.21"/>
  </g>
  <g>
    <polygon class="cls-10" points="259.16 614.89 223.3 616.15 219.77 574.2 259.7 571.77 259.16 614.89"/>
    <polygon class="cls-10" points="223.3 616.15 219.77 574.2 212.55 580.25 215.39 610.73 223.3 616.15"/>
  </g>
  <g>
    <polygon class="cls-10" points="391.71 619.84 355.84 621.1 352.31 579.15 392.25 576.72 391.71 619.84"/>
    <polygon class="cls-10" points="355.84 621.1 352.31 579.15 345.09 585.2 347.94 615.69 355.84 621.1"/>
  </g>
  <g>
    <polygon class="cls-10" points="303.66 601.61 337.63 613.21 325.98 653.66 287.8 641.7 303.66 601.61"/>
    <polygon class="cls-10" points="337.63 613.21 325.98 653.66 334.88 650.58 343.08 621.08 337.63 613.21"/>
  </g>
  <g>
    <polygon class="cls-10" points="160.34 632.67 194.31 644.27 182.66 684.72 144.48 672.77 160.34 632.67"/>
    <polygon class="cls-10" points="194.31 644.27 182.66 684.72 191.56 681.65 199.76 652.15 194.31 644.27"/>
  </g>
  <g>
    <polygon class="cls-10" points="267.27 671.49 300.43 657.75 318.41 695.8 281.86 712.06 267.27 671.49"/>
    <polygon class="cls-10" points="300.43 657.75 318.41 695.8 323.06 687.61 309.72 660.05 300.43 657.75"/>
  </g>
  <g>
    <polygon class="cls-10" points="263.95 623.95 297.1 610.21 315.09 648.27 278.54 664.53 263.95 623.95"/>
    <polygon class="cls-10" points="297.1 610.21 315.09 648.27 319.74 640.08 306.4 612.52 297.1 610.21"/>
  </g>
  <g>
    <polygon class="cls-10" points="183.27 694.75 152.51 676.25 172.42 639.16 207.22 658.89 183.27 694.75"/>
    <polygon class="cls-10" points="152.51 676.25 172.42 639.16 163.07 640.3 148.84 667.41 152.51 676.25"/>
  </g>
  <g>
    <polygon class="cls-10" points="387.85 747.32 361.06 771.2 331.55 741.18 360.72 713.8 387.85 747.32"/>
    <polygon class="cls-10" points="361.06 771.2 331.55 741.18 329.86 750.45 351.52 772.09 361.06 771.2"/>
  </g>
  <g>
    <polygon class="cls-10" points="360.96 701.78 334.17 725.67 304.66 695.65 333.83 668.27 360.96 701.78"/>
    <polygon class="cls-10" points="334.17 725.67 304.66 695.65 302.97 704.91 324.63 726.55 334.17 725.67"/>
  </g>
  <path class="cls-9" d="M669.41,104.83c32.03-7.69-1.28-85.83,107.61-53.81s166.54-12.81,203.69,92.24,12.81,138.36-76.87,126.83-65.34-15.37-97.36,1.28-142.2-1.28-142.2-33.31-48.68-103.77-37.15-116.58,42.28-16.65,42.28-16.65Z"/>
  <circle class="cls-16" cx="783.32" cy="153.06" r="57.05"/>
  <path class="cls-14" d="M778.56,175.09s8.26,9.18,21.11-2.75,26.62-28.45,11.93-32.13,3.67,9.18-15.6,13.77-22.75-4.5-23.26,4.18,5.82,16.93,5.82,16.93Z"/>
  <path class="cls-7" d="M752.65,185.82s21.33,24.79,51.89,10.38c30.56-14.41,33.44-46.12,27.1-49.58s-6.34,31.13-27.67,40.36-41.51-14.99-49.58-11.53-1.73,10.38-1.73,10.38Z"/>
  <path class="cls-14" d="M693.5,172.94c-7.99-21.97,8.17-16.56,14.48-9.99,11.99,12.48,3.5,48.94,43.95,53.43s72.41-17.98,76.41-2-61.92,44.45-95.88,19.98c-33.96-24.47-38.95-61.42-38.95-61.42Z"/>
  <path class="cls-14" d="M845.64,115.58s20.2,5.05,20.2,37.51-27.41,41.12-14.43,44c12.98,2.89,33.18-6.49,29.58-49.77s-33.18-58.43-45.45-52.66,10.1,20.92,10.1,20.92Z"/>
  <circle class="cls-22" cx="816.94" cy="622.73" r="311.56"/>
  <circle class="cls-5" cx="816.94" cy="622.73" r="292.1"/>
  <path class="cls-17" d="M796.4,861.85c50.77,0,137.49-2.12,171.33-40.19,33.84-38.07,61.34-124.8,80.38-160.76s0-160.76-27.5-171.33-57.11-99.42-122.68-99.42-196.72-29.61-243.25,48.65-103.65,143.84-82.49,200.95c21.15,57.11,48.65,90.95,84.61,141.72s61.34,71.92,78.26,71.92,61.34,8.46,61.34,8.46Z"/>
  <path class="cls-14" d="M643.89,475.33s1.51,41.27,11.35,41.27-11.35-41.27-11.35-41.27Z"/>
  <path class="cls-14" d="M743.76,486.51s-36.93-18.48-41.65-9.86,41.65,9.86,41.65,9.86Z"/>
  <path class="cls-14" d="M632.33,548.46s40.44,8.38,42.78-1.17c2.35-9.55-42.78,1.17-42.78,1.17Z"/>
  <path class="cls-14" d="M695.45,604.56s-21.29-35.39-29.9-30.63,29.9,30.63,29.9,30.63Z"/>
  <path class="cls-14" d="M681.35,510.37s29.33-29.07,22.67-36.31-22.67,36.31-22.67,36.31Z"/>
  <path class="cls-14" d="M718.66,581.35s-21.29-35.39-29.9-30.63,29.9,30.63,29.9,30.63Z"/>
  <path class="cls-14" d="M615.39,525.76s39.12,13.24,42.61,4.05-42.61-4.05-42.61-4.05Z"/>
  <path class="cls-14" d="M697.82,538.38s14.05-38.83,4.94-42.52-4.94,42.52-4.94,42.52Z"/>
  <path class="cls-14" d="M722.61,568.59s-23.46-33.99-31.75-28.7,31.75,28.7,31.75,28.7Z"/>
  <path class="cls-14" d="M760.06,578.06s-38.42-15.14-42.36-6.13c-3.94,9.01,42.36,6.13,42.36,6.13Z"/>
  <path class="cls-14" d="M693.05,500.7s-38.6,14.67-35.45,23.98c3.15,9.31,35.45-23.98,35.45-23.98Z"/>
  <path class="cls-14" d="M656.06,622.31s26.64-31.56,19.36-38.17c-7.28-6.61-19.36,38.17-19.36,38.17Z"/>
  <path class="cls-14" d="M700.02,607.35s26.64-31.56,19.36-38.17c-7.28-6.61-19.36,38.17-19.36,38.17Z"/>
  <path class="cls-14" d="M685.52,636.8s26.64-31.56,19.36-38.17-19.36,38.17-19.36,38.17Z"/>
  <path class="cls-14" d="M719.54,510.74s-40.1,9.86-38.11,19.48,38.11-19.48,38.11-19.48Z"/>
  <path class="cls-14" d="M718.9,633.79s10.56-39.92,1.15-42.79c-9.41-2.86-1.15,42.79-1.15,42.79Z"/>
  <path class="cls-14" d="M699.54,444.77s1.51,41.27,11.35,41.27-11.35-41.27-11.35-41.27Z"/>
  <path class="cls-14" d="M633.72,512.67s-26.71,31.49-19.45,38.12c7.26,6.63,19.45-38.12,19.45-38.12Z"/>
  <path class="cls-14" d="M578.99,569.28s40.44,8.38,42.78-1.17c2.35-9.55-42.78,1.17-42.78,1.17Z"/>
  <path class="cls-14" d="M642.1,625.38s-21.29-35.39-29.9-30.63,29.9,30.63,29.9,30.63Z"/>
  <path class="cls-14" d="M642.1,578.95s-21.29-35.39-29.9-30.63,29.9,30.63,29.9,30.63Z"/>
  <path class="cls-14" d="M665.32,602.17s-21.29-35.39-29.9-30.63,29.9,30.63,29.9,30.63Z"/>
  <path class="cls-14" d="M671.03,495.2s39.12,13.24,42.61,4.05-42.61-4.05-42.61-4.05Z"/>
  <path class="cls-14" d="M673.22,569.59s-34.39-22.86-40.13-14.88,40.13,14.88,40.13,14.88Z"/>
  <path class="cls-14" d="M708.45,552.68s-38.58,14.73-35.41,24.04c3.17,9.31,35.41-24.04,35.41-24.04Z"/>
  <path class="cls-14" d="M706.72,598.88s-38.42-15.14-42.36-6.13c-3.94,9.01,42.36,6.13,42.36,6.13Z"/>
  <path class="cls-14" d="M635.49,565.3s5.1,40.98,14.89,40.13c9.8-.85-14.89-40.13-14.89-40.13Z"/>
  <path class="cls-14" d="M602.72,643.12s26.64-31.56,19.36-38.17c-7.28-6.61-19.36,38.17-19.36,38.17Z"/>
  <path class="cls-14" d="M646.67,628.16s26.64-31.56,19.36-38.17c-7.28-6.61-19.36,38.17-19.36,38.17Z"/>
  <path class="cls-14" d="M632.17,657.62s26.64-31.56,19.36-38.17-19.36,38.17-19.36,38.17Z"/>
  <path class="cls-14" d="M651.52,541.94s.07,41.3,9.89,41.64-9.89-41.64-9.89-41.64Z"/>
  <path class="cls-14" d="M665.56,654.61s10.56-39.92,1.15-42.79c-9.41-2.86-1.15,42.79-1.15,42.79Z"/>
  <path class="cls-14" d="M665.95,586s1.51,41.27,11.35,41.27-11.35-41.27-11.35-41.27Z"/>
  <path class="cls-14" d="M709.12,602.53s-26.71,31.49-19.45,38.12c7.26,6.63,19.45-38.12,19.45-38.12Z"/>
  <path class="cls-14" d="M905.57,606.73s4.98,41,14.77,40.17c9.8-.83-14.77-40.17-14.77-40.17Z"/>
  <path class="cls-14" d="M872.57,684.46s26.73-31.48,19.47-38.11c-7.26-6.64-19.47,38.11-19.47,38.11Z"/>
  <path class="cls-14" d="M916.57,669.63s26.73-31.48,19.47-38.11c-7.26-6.64-19.47,38.11-19.47,38.11Z"/>
  <path class="cls-14" d="M901.99,699.04s26.73-31.48,19.47-38.11-19.47,38.11-19.47,38.11Z"/>
  <path class="cls-14" d="M637.44,636.43s39.12,13.24,42.61,4.05-42.61-4.05-42.61-4.05Z"/>
  <path class="cls-14" d="M876.75,611.06s-34.39-22.86-40.13-14.88,40.13,14.88,40.13,14.88Z"/>
  <path class="cls-14" d="M943.53,721.12s-26.28-31.85-34.09-25.88c-7.81,5.98,34.09,25.88,34.09,25.88Z"/>
  <path class="cls-14" d="M899.2,734.24s2.07-41.25-7.72-42.1,7.72,42.1,7.72,42.1Z"/>
  <path class="cls-14" d="M927.39,659s-37.21,17.92-33.27,26.93c3.94,9.01,33.27-26.93,33.27-26.93Z"/>
  <path class="cls-14" d="M843.18,652.81s38.41,15.16,42.36,6.15c3.94-9.01-42.36-6.15-42.36-6.15Z"/>
  <path class="cls-14" d="M852.26,686.69s38.41,15.16,42.36,6.15c3.94-9.01-42.36-6.15-42.36-6.15Z"/>
  <path class="cls-14" d="M819.72,682.37s38.41,15.16,42.36,6.15-42.36-6.15-42.36-6.15Z"/>
  <path class="cls-14" d="M954.65,666.73s-39.11,13.25-36.3,22.68,36.3-22.68,36.3-22.68Z"/>
  <path class="cls-14" d="M833.24,713.04s41.21-2.75,40.91-12.58-40.91,12.58-40.91,12.58Z"/>
  <path class="cls-14" d="M916.43,497.96s-26.38,31.77-19.05,38.33,19.05-38.33,19.05-38.33Z"/>
  <path class="cls-14" d="M937.6,539.06s-40.91,5.67-39.91,15.45c.99,9.78,39.91-15.45,39.91-15.45Z"/>
  <path class="cls-14" d="M730.93,593.16s24.56,33.2,32.67,27.65c8.11-5.55-32.67-27.65-32.67-27.65Z"/>
  <path class="cls-14" d="M916.13,694.13s40.91-5.65,39.92-15.43-39.92,15.43-39.92,15.43Z"/>
  <path class="cls-14" d="M899.66,594.05s7.72-40.57-1.87-42.76c-9.59-2.19,1.87,42.76,1.87,42.76Z"/>
  <path class="cls-14" d="M909.2,721.63s40.91-5.65,39.92-15.43c-.99-9.78-39.92,15.43-39.92,15.43Z"/>
  <path class="cls-14" d="M733.44,564.94s20.33,35.95,29.06,31.42c8.73-4.52-29.06-31.42-29.06-31.42Z"/>
  <path class="cls-14" d="M929.09,607.82s-10.4-39.97-20-37.84,20,37.84,20,37.84Z"/>
  <path class="cls-14" d="M937.72,780.75s1.64-41.26-8.16-42.02,8.16,42.02,8.16,42.02Z"/>
  <path class="cls-14" d="M895.93,760.98s29.04-29.36,22.31-36.53c-6.73-7.17-22.31,36.53-22.31,36.53Z"/>
  <path class="cls-14" d="M954.84,708.71s-39.68-11.44-42.75-2.1c-3.07,9.34,42.75,2.1,42.75,2.1Z"/>
  <path class="cls-14" d="M915.32,650.94s18.53,36.91,27.47,32.82c8.94-4.09-27.47-32.82-27.47-32.82Z"/>
  <path class="cls-14" d="M892.64,694.25s18.53,36.91,27.47,32.82c8.94-4.09-27.47-32.82-27.47-32.82Z"/>
  <path class="cls-14" d="M890.4,672.32s18.53,36.91,27.47,32.82c8.94-4.09-27.47-32.82-27.47-32.82Z"/>
  <path class="cls-14" d="M931.36,572.74s-27.48,30.83-20.38,37.64c7.1,6.81,20.38-37.64,20.38-37.64Z"/>
  <path class="cls-14" d="M860.9,701.21s32.55,25.42,38.88,17.9-38.88-17.9-38.88-17.9Z"/>
  <path class="cls-14" d="M954.51,566.24s-26.38,31.77-19.05,38.33,19.05-38.33,19.05-38.33Z"/>
  <path class="cls-14" d="M951.38,785.7s-18.44-36.95-27.39-32.89,27.39,32.89,27.39,32.89Z"/>
  <path class="cls-14" d="M920.88,713.1s-23.62,33.88-15.76,39.79c7.85,5.92,15.76-39.79,15.76-39.79Z"/>
  <path class="cls-14" d="M844.46,749.04s40.91-5.65,39.92-15.43c-.99-9.78-39.92,15.43-39.92,15.43Z"/>
  <path class="cls-14" d="M887.15,767.32s40.91-5.65,39.92-15.43c-.99-9.78-39.92,15.43-39.92,15.43Z"/>
  <path class="cls-14" d="M856.67,779.52s40.91-5.65,39.92-15.43c-.99-9.78-39.92,15.43-39.92,15.43Z"/>
  <path class="cls-14" d="M852.33,763.56s-27.57,30.75-20.49,37.58,20.49-37.58,20.49-37.58Z"/>
  <path class="cls-14" d="M883.5,799.61s34.55-22.62,29.47-31.04c-5.08-8.42-29.47,31.04-29.47,31.04Z"/>
  <path class="cls-14" d="M985.58,683.98s-38.58-14.74-42.42-5.69c-3.84,9.05,42.42,5.69,42.42,5.69Z"/>
  <path class="cls-14" d="M843.4,818.88s29.04-29.36,22.31-36.53-22.31,36.53-22.31,36.53Z"/>
  <path class="cls-14" d="M902.3,766.61s-39.68-11.44-42.75-2.1,42.75,2.1,42.75,2.1Z"/>
  <path class="cls-14" d="M843.65,705.85s18.53,36.91,27.47,32.82c8.94-4.09-27.47-32.82-27.47-32.82Z"/>
  <path class="cls-14" d="M840.11,752.15s18.53,36.91,27.47,32.82c8.94-4.09-27.47-32.82-27.47-32.82Z"/>
  <path class="cls-14" d="M818.73,727.23s18.53,36.91,27.47,32.82c8.94-4.09-27.47-32.82-27.47-32.82Z"/>
  <path class="cls-14" d="M917.47,790.54s-37.99-16.19-42.17-7.29c-4.18,8.9,42.17,7.29,42.17,7.29Z"/>
  <path class="cls-14" d="M808.36,759.1s32.55,25.42,38.88,17.9c6.33-7.52-38.88-17.9-38.88-17.9Z"/>
  <path class="cls-14" d="M609.09,599.01s-26.38,31.77-19.05,38.33c7.33,6.55,19.05-38.33,19.05-38.33Z"/>
  <path class="cls-14" d="M630.27,640.11s-40.91,5.67-39.91,15.45c.99,9.78,39.91-15.45,39.91-15.45Z"/>
  <path class="cls-14" d="M660.72,594.45s24.56,33.2,32.67,27.65c8.11-5.55-32.67-27.65-32.67-27.65Z"/>
  <path class="cls-14" d="M670.37,678.34s7.72-40.57-1.87-42.76,1.87,42.76,1.87,42.76Z"/>
  <path class="cls-14" d="M701.32,643.73s7.72-40.57-1.87-42.76c-9.59-2.19,1.87,42.76,1.87,42.76Z"/>
  <path class="cls-14" d="M703.15,676.51s7.72-40.57-1.87-42.76,1.87,42.76,1.87,42.76Z"/>
  <path class="cls-14" d="M663.22,566.22s20.33,35.95,29.06,31.42c8.73-4.52-29.06-31.42-29.06-31.42Z"/>
  <path class="cls-14" d="M730.76,657.5s-10.4-39.97-20-37.84,20,37.84,20,37.84Z"/>
  <path class="cls-14" d="M721.58,679.13s1.64-41.26-8.16-42.02,8.16,42.02,8.16,42.02Z"/>
  <path class="cls-14" d="M679.79,659.36s29.04-29.36,22.31-36.53c-6.73-7.17-22.31,36.53-22.31,36.53Z"/>
  <path class="cls-14" d="M705.49,629.14s-23.52,33.95-15.65,39.84,15.65-39.84,15.65-39.84Z"/>
  <path class="cls-14" d="M629.18,665.31s40.89-5.77,39.88-15.55-39.88,15.55-39.88,15.55Z"/>
  <path class="cls-14" d="M671.92,683.46s40.89-5.77,39.88-15.55-39.88,15.55-39.88,15.55Z"/>
  <path class="cls-14" d="M738.19,738s40.89-5.77,39.88-15.55c-1.02-9.78-39.88,15.55-39.88,15.55Z"/>
  <path class="cls-14" d="M753.86,631.03s-37.99-16.19-42.17-7.29c-4.18,8.9,42.17,7.29,42.17,7.29Z"/>
  <path class="cls-14" d="M668.37,715.76s34.48-22.72,29.38-31.13-29.38,31.13-29.38,31.13Z"/>
  <path class="cls-14" d="M667.34,520.32s-26.38,31.77-19.05,38.33,19.05-38.33,19.05-38.33Z"/>
  <path class="cls-14" d="M688.51,561.41s-40.91,5.67-39.91,15.45c.99,9.78,39.91-15.45,39.91-15.45Z"/>
  <path class="cls-14" d="M609.97,567.12s24.56,33.2,32.67,27.65c8.11-5.55-32.67-27.65-32.67-27.65Z"/>
  <path class="cls-14" d="M619.63,651.01s7.72-40.57-1.87-42.76,1.87,42.76,1.87,42.76Z"/>
  <path class="cls-14" d="M650.58,616.41s7.72-40.57-1.87-42.76c-9.59-2.19,1.87,42.76,1.87,42.76Z"/>
  <path class="cls-14" d="M652.41,649.18s7.72-40.57-1.87-42.76c-9.59-2.19,1.87,42.76,1.87,42.76Z"/>
  <path class="cls-14" d="M612.48,538.9s20.33,35.95,29.06,31.42c8.73-4.52-29.06-31.42-29.06-31.42Z"/>
  <path class="cls-14" d="M680.01,630.17s-10.4-39.97-20-37.84,20,37.84,20,37.84Z"/>
  <path class="cls-14" d="M717.54,641.05s-38.58-14.74-42.42-5.69c-3.84,9.05,42.42,5.69,42.42,5.69Z"/>
  <path class="cls-14" d="M685.46,674.33s-18.55-36.9-27.49-32.81c-8.94,4.09,27.49,32.81,27.49,32.81Z"/>
  <path class="cls-14" d="M654.75,601.82s-23.52,33.95-15.65,39.84,15.65-39.84,15.65-39.84Z"/>
  <path class="cls-14" d="M578.44,637.99s40.89-5.77,39.88-15.55-39.88,15.55-39.88,15.55Z"/>
  <path class="cls-14" d="M621.18,656.14s40.89-5.77,39.88-15.55-39.88,15.55-39.88,15.55Z"/>
  <path class="cls-14" d="M590.73,668.43s40.89-5.77,39.88-15.55c-1.02-9.78-39.88,15.55-39.88,15.55Z"/>
  <path class="cls-14" d="M682.27,595.1s-27.48,30.83-20.38,37.64c7.1,6.81,20.38-37.64,20.38-37.64Z"/>
  <path class="cls-14" d="M617.63,688.44s34.48-22.72,29.38-31.13-29.38,31.13-29.38,31.13Z"/>
  <path class="cls-14" d="M709.28,600.31s-26.38,31.77-19.05,38.33c7.33,6.55,19.05-38.33,19.05-38.33Z"/>
  <path class="cls-14" d="M730.45,641.41s-40.91,5.67-39.91,15.45c.99,9.78,39.91-15.45,39.91-15.45Z"/>
  <path class="cls-14" d="M916.16,600.55s-23.62,33.88-15.76,39.79c7.85,5.92,15.76-39.79,15.76-39.79Z"/>
  <path class="cls-14" d="M839.75,636.49s40.91-5.65,39.92-15.43c-.99-9.78-39.92,15.43-39.92,15.43Z"/>
  <path class="cls-14" d="M882.43,654.76s40.91-5.65,39.92-15.43c-.99-9.78-39.92,15.43-39.92,15.43Z"/>
  <path class="cls-14" d="M851.96,666.97s40.91-5.65,39.92-15.43c-.99-9.78-39.92,15.43-39.92,15.43Z"/>
  <path class="cls-14" d="M654.41,618.9s20.33,35.95,29.06,31.42c8.73-4.52-29.06-31.42-29.06-31.42Z"/>
  <path class="cls-14" d="M878.79,687.05s34.55-22.62,29.47-31.04c-5.08-8.42-29.47,31.04-29.47,31.04Z"/>
  <path class="cls-14" d="M861.34,723.11s1.64-41.26-8.16-42.02,8.16,42.02,8.16,42.02Z"/>
  <path class="cls-14" d="M838.69,706.32s29.04-29.36,22.31-36.53-22.31,36.53-22.31,36.53Z"/>
  <path class="cls-14" d="M897.59,654.06s-39.68-11.44-42.75-2.1c-3.07,9.34,42.75,2.1,42.75,2.1Z"/>
  <path class="cls-14" d="M744.98,642.05s-39.68-11.44-42.75-2.1c-3.07,9.34,42.75,2.1,42.75,2.1Z"/>
  <path class="cls-14" d="M710.81,641.69s18.53,36.91,27.47,32.82c8.94-4.09-27.47-32.82-27.47-32.82Z"/>
  <path class="cls-14" d="M835.39,639.6s18.53,36.91,27.47,32.82c8.94-4.09-27.47-32.82-27.47-32.82Z"/>
  <path class="cls-14" d="M814.02,614.68s18.53,36.91,27.47,32.82c8.94-4.09-27.47-32.82-27.47-32.82Z"/>
  <path class="cls-14" d="M912.75,677.99s-37.99-16.19-42.17-7.29c-4.18,8.9,42.17,7.29,42.17,7.29Z"/>
  <path class="cls-14" d="M803.65,646.55s32.55,25.42,38.88,17.9c6.33-7.52-38.88-17.9-38.88-17.9Z"/>
  <path class="cls-14" d="M845.79,594.27s38.41,15.16,42.36,6.15c3.94-9.01-42.36-6.15-42.36-6.15Z"/>
  <path class="cls-14" d="M859.31,624.94s41.21-2.75,40.91-12.58-40.91,12.58-40.91,12.58Z"/>
  <path class="cls-14" d="M712.51,678.23s10.56-39.92,1.15-42.79c-9.41-2.86-1.15,42.79-1.15,42.79Z"/>
  <path class="cls-14" d="M712.9,609.63s1.51,41.27,11.35,41.27-11.35-41.27-11.35-41.27Z"/>
  <path class="cls-14" d="M885.81,605.68s-38.38-15.25-42.34-6.25,42.34,6.25,42.34,6.25Z"/>
  <path class="cls-14" d="M686.56,620.29s4.98,41,14.77,40.17-14.77-40.17-14.77-40.17Z"/>
  <path class="cls-14" d="M762.55,646.64s26.73-31.48,19.47-38.11-19.47,38.11-19.47,38.11Z"/>
  <path class="cls-14" d="M825.68,634.8s26.73-31.48,19.47-38.11-19.47,38.11-19.47,38.11Z"/>
  <path class="cls-14" d="M811.1,664.21s26.73-31.48,19.47-38.11-19.47,38.11-19.47,38.11Z"/>
  <path class="cls-14" d="M684.39,660.05s39.12,13.24,42.61,4.05-42.61-4.05-42.61-4.05Z"/>
  <path class="cls-14" d="M844.49,661.3s10.68-39.89,1.28-42.78c-9.4-2.89-1.28,42.78-1.28,42.78Z"/>
  <path class="cls-14" d="M871.77,689.27s-26.28-31.85-34.09-25.88c-7.81,5.98,34.09,25.88,34.09,25.88Z"/>
  <path class="cls-14" d="M827.44,702.39s2.07-41.25-7.72-42.1c-9.8-.85,7.72,42.1,7.72,42.1Z"/>
  <path class="cls-14" d="M836.51,624.17s-37.21,17.92-33.27,26.93c3.94,9.01,33.27-26.93,33.27-26.93Z"/>
  <path class="cls-14" d="M733.16,614.99s38.41,15.16,42.36,6.15c3.94-9.01-42.36-6.15-42.36-6.15Z"/>
  <path class="cls-14" d="M780.51,654.85s38.41,15.16,42.36,6.15c3.94-9.01-42.36-6.15-42.36-6.15Z"/>
  <path class="cls-14" d="M728.83,647.54s38.41,15.16,42.36,6.15c3.94-9.01-42.36-6.15-42.36-6.15Z"/>
  <path class="cls-14" d="M863.76,631.9s-39.11,13.25-36.3,22.68c2.81,9.42,36.3-22.68,36.3-22.68Z"/>
  <path class="cls-14" d="M742.35,678.21s41.21-2.75,40.91-12.58c-.29-9.83-40.91,12.58-40.91,12.58Z"/>
  <path class="cls-14" d="M901.66,623.36s-23.62,33.88-15.76,39.79c7.85,5.92,15.76-39.79,15.76-39.79Z"/>
  <path class="cls-14" d="M825.24,659.3s40.91-5.65,39.92-15.43c-.99-9.78-39.92,15.43-39.92,15.43Z"/>
  <path class="cls-14" d="M867.93,677.57s40.91-5.65,39.92-15.43c-.99-9.78-39.92,15.43-39.92,15.43Z"/>
  <path class="cls-14" d="M837.45,689.78s40.91-5.65,39.92-15.43-39.92,15.43-39.92,15.43Z"/>
  <path class="cls-14" d="M864.28,709.87s34.55-22.62,29.47-31.04-29.47,31.04-29.47,31.04Z"/>
  <path class="cls-14" d="M846.84,745.92s1.64-41.26-8.16-42.02,8.16,42.02,8.16,42.02Z"/>
  <path class="cls-14" d="M805.05,726.15s29.04-29.36,22.31-36.53c-6.73-7.17-22.31,36.53-22.31,36.53Z"/>
  <path class="cls-14" d="M883.08,676.87s-39.68-11.44-42.75-2.1c-3.07,9.34,42.75,2.1,42.75,2.1Z"/>
  <path class="cls-14" d="M824.43,616.11s18.53,36.91,27.47,32.82c8.94-4.09-27.47-32.82-27.47-32.82Z"/>
  <path class="cls-14" d="M820.89,662.41s18.53,36.91,27.47,32.82c8.94-4.09-27.47-32.82-27.47-32.82Z"/>
  <path class="cls-14" d="M799.51,637.49s18.53,36.91,27.47,32.82c8.94-4.09-27.47-32.82-27.47-32.82Z"/>
  <path class="cls-14" d="M879.11,697.82s-37.99-16.19-42.17-7.29,42.17,7.29,42.17,7.29Z"/>
  <path class="cls-14" d="M789.14,669.36s32.55,25.42,38.88,17.9c6.33-7.52-38.88-17.9-38.88-17.9Z"/>
  <path class="cls-14" d="M654.04,484.65s-23.62,33.88-15.76,39.79c7.85,5.92,15.76-39.79,15.76-39.79Z"/>
  <path class="cls-14" d="M753.58,714.21s40.91-5.65,39.92-15.43-39.92,15.43-39.92,15.43Z"/>
  <path class="cls-14" d="M876.67,674.61s-27.57,30.75-20.49,37.58,20.49-37.58,20.49-37.58Z"/>
  <path class="cls-14" d="M811.41,731.78s-39.68-11.44-42.75-2.1c-3.07,9.34,42.75,2.1,42.75,2.1Z"/>
  <path class="cls-14" d="M752.77,671.02s18.53,36.91,27.47,32.82c8.94-4.09-27.47-32.82-27.47-32.82Z"/>
  <path class="cls-14" d="M749.22,717.32s18.53,36.91,27.47,32.82c8.94-4.09-27.47-32.82-27.47-32.82Z"/>
  <path class="cls-14" d="M723.34,661.51s18.53,36.91,27.47,32.82c8.94-4.09-27.47-32.82-27.47-32.82Z"/>
  <path class="cls-14" d="M717.48,724.27s32.55,25.42,38.88,17.9c6.33-7.52-38.88-17.9-38.88-17.9Z"/>
  <path class="cls-14" d="M839.66,745.26s32.55,25.42,38.88,17.9c6.33-7.52-38.88-17.9-38.88-17.9Z"/>
  <path class="cls-14" d="M1006.66,601.48s2.07-41.25-7.72-42.1c-9.8-.85,7.72,42.1,7.72,42.1Z"/>
  <path class="cls-14" d="M940.7,580.27s41.21-2.75,40.91-12.58-40.91,12.58-40.91,12.58Z"/>
  <path class="cls-14" d="M968.36,568.45s32.55,25.42,38.88,17.9-38.88-17.9-38.88-17.9Z"/>
  <path class="cls-14" d="M951.93,616.28s40.91-5.65,39.92-15.43c-.99-9.78-39.92,15.43-39.92,15.43Z"/>
  <path class="cls-14" d="M1034.08,634.96s-30.59-27.74-37.46-20.7c-6.87,7.04,37.46,20.7,37.46,20.7Z"/>
  <path class="cls-14" d="M964.14,646.76s40.91-5.65,39.92-15.43c-.99-9.78-39.92,15.43-39.92,15.43Z"/>
  <path class="cls-14" d="M959.8,630.8s-27.57,30.75-20.49,37.58,20.49-37.58,20.49-37.58Z"/>
  <path class="cls-14" d="M990.97,666.85s34.55-22.62,29.47-31.04c-5.08-8.42-29.47,31.04-29.47,31.04Z"/>
  <path class="cls-14" d="M950.87,686.11s29.04-29.36,22.31-36.53-22.31,36.53-22.31,36.53Z"/>
  <path class="cls-14" d="M1009.77,633.85s-39.68-11.44-42.75-2.1,42.75,2.1,42.75,2.1Z"/>
  <path class="cls-14" d="M951.12,573.09s18.53,36.91,27.47,32.82-27.47-32.82-27.47-32.82Z"/>
  <path class="cls-14" d="M947.57,619.39s18.53,36.91,27.47,32.82c8.94-4.09-27.47-32.82-27.47-32.82Z"/>
  <path class="cls-14" d="M945.33,597.45s18.53,36.91,27.47,32.82-27.47-32.82-27.47-32.82Z"/>
  <path class="cls-14" d="M1024.93,657.78s-37.99-16.19-42.17-7.29c-4.18,8.9,42.17,7.29,42.17,7.29Z"/>
  <path class="cls-14" d="M934.96,629.33s32.55,25.42,38.88,17.9c6.33-7.52-38.88-17.9-38.88-17.9Z"/>
  <path class="cls-14" d="M968.81,590.35s1.64-41.26-8.16-42.02c-9.8-.75,8.16,42.02,8.16,42.02Z"/>
  <path class="cls-14" d="M952.62,574.12s34.55-22.62,29.47-31.04-29.47,31.04-29.47,31.04Z"/>
  <path class="cls-14" d="M954.3,613.16s1.64-41.26-8.16-42.02c-9.8-.75,8.16,42.02,8.16,42.02Z"/>
  <path class="cls-14" d="M931.64,596.37s29.04-29.36,22.31-36.53c-6.73-7.17-22.31,36.53-22.31,36.53Z"/>
  <path class="cls-14" d="M956.59,548.49s-23.62,33.88-15.76,39.79c7.85,5.92,15.76-39.79,15.76-39.79Z"/>
  <path class="cls-14" d="M965,538.86s-27.57,30.75-20.49,37.58c7.08,6.83,20.49-37.58,20.49-37.58Z"/>
  <path class="cls-14" d="M938.01,602s-39.68-11.44-42.75-2.1c-3.07,9.34,42.75,2.1,42.75,2.1Z"/>
  <path class="cls-14" d="M947.13,612.5s32.55,25.42,38.88,17.9c6.33-7.52-38.88-17.9-38.88-17.9Z"/>
  <path class="cls-14" d="M970.11,478.64s2.07-41.25-7.72-42.1c-9.8-.85,7.72,42.1,7.72,42.1Z"/>
  <path class="cls-14" d="M904.14,457.44s41.21-2.75,40.91-12.58-40.91,12.58-40.91,12.58Z"/>
  <path class="cls-14" d="M931.81,445.61s32.55,25.42,38.88,17.9-38.88-17.9-38.88-17.9Z"/>
  <path class="cls-14" d="M915.37,493.45s40.91-5.65,39.92-15.43c-.99-9.78-39.92,15.43-39.92,15.43Z"/>
  <path class="cls-14" d="M958.06,511.72s40.91-5.65,39.92-15.43c-.99-9.78-39.92,15.43-39.92,15.43Z"/>
  <path class="cls-14" d="M946.71,526.91s40.91-5.65,39.92-15.43c-.99-9.78-39.92,15.43-39.92,15.43Z"/>
  <path class="cls-14" d="M942.38,510.95s-27.57,30.75-20.49,37.58c7.08,6.83,20.49-37.58,20.49-37.58Z"/>
  <path class="cls-14" d="M954.41,544.01s34.55-22.62,29.47-31.04-29.47,31.04-29.47,31.04Z"/>
  <path class="cls-14" d="M933.44,566.27s29.04-29.36,22.31-36.53-22.31,36.53-22.31,36.53Z"/>
  <path class="cls-14" d="M973.21,511.01s-39.68-11.44-42.75-2.1,42.75,2.1,42.75,2.1Z"/>
  <path class="cls-14" d="M914.56,450.26s18.53,36.91,27.47,32.82-27.47-32.82-27.47-32.82Z"/>
  <path class="cls-14" d="M930.15,499.54s18.53,36.91,27.47,32.82-27.47-32.82-27.47-32.82Z"/>
  <path class="cls-14" d="M889.64,471.63s18.53,36.91,27.47,32.82c8.94-4.09-27.47-32.82-27.47-32.82Z"/>
  <path class="cls-14" d="M988.37,534.95s-37.99-16.19-42.17-7.29,42.17,7.29,42.17,7.29Z"/>
  <path class="cls-14" d="M898.41,506.49s32.55,25.42,38.88,17.9c6.33-7.52-38.88-17.9-38.88-17.9Z"/>
  <path class="cls-14" d="M932.25,467.51s1.64-41.26-8.16-42.02c-9.8-.75,8.16,42.02,8.16,42.02Z"/>
  <path class="cls-14" d="M916.06,451.29s34.55-22.62,29.47-31.04-29.47,31.04-29.47,31.04Z"/>
  <path class="cls-14" d="M917.74,490.33s1.64-41.26-8.16-42.02c-9.8-.75,8.16,42.02,8.16,42.02Z"/>
  <path class="cls-14" d="M875.96,470.55s29.04-29.36,22.31-36.53c-6.73-7.17-22.31,36.53-22.31,36.53Z"/>
  <path class="cls-14" d="M900.9,422.67s-23.62,33.88-15.76,39.79c7.85,5.92,15.76-39.79,15.76-39.79Z"/>
  <path class="cls-14" d="M928.44,416.03s-27.57,30.75-20.49,37.58c7.08,6.83,20.49-37.58,20.49-37.58Z"/>
  <path class="cls-14" d="M729.52,578.78s1.71-41.26-8.09-42.03c-9.8-.77,8.09,42.03,8.09,42.03Z"/>
  <path class="cls-14" d="M910.57,489.67s32.55,25.42,38.88,17.9c6.33-7.52-38.88-17.9-38.88-17.9Z"/>
  <path class="cls-14" d="M995.4,744.61s32.4-25.61,26.59-33.54-26.59,33.54-26.59,33.54Z"/>
  <path class="cls-14" d="M967.91,681.01s29.21,29.19,36.41,22.5c7.2-6.7-36.41-22.5-36.41-22.5Z"/>
  <path class="cls-14" d="M995.03,694.03s2.31,41.23,12.14,41.04-12.14-41.04-12.14-41.04Z"/>
  <path class="cls-14" d="M948.21,713.18s31.2,27.06,37.91,19.87c6.71-7.19-37.91-19.87-37.91-19.87Z"/>
  <path class="cls-14" d="M962.58,757.33s31.2,27.06,37.91,19.87c6.71-7.19-37.91-19.87-37.91-19.87Z"/>
  <path class="cls-14" d="M933.32,742.44s31.2,27.06,37.91,19.87c6.71-7.19-37.91-19.87-37.91-19.87Z"/>
  <path class="cls-14" d="M942.47,728.66s-41.29-.49-41.77,9.33c-.48,9.82,41.77-9.33,41.77-9.33Z"/>
  <path class="cls-14" d="M935.88,775.86s39.78,11.1,42.77,1.73c2.99-9.37-42.77-1.73-42.77-1.73Z"/>
  <path class="cls-14" d="M894.97,758.38s41.22,2.51,42.18-7.28-42.18,7.28-42.18,7.28Z"/>
  <path class="cls-14" d="M973.09,768.27s-17.53-37.39-26.58-33.55c-9.05,3.84,26.58,33.55,26.58,33.55Z"/>
  <path class="cls-14" d="M980.17,684.12s-15.57,38.25-6.6,42.29c8.97,4.04,6.6-42.29,6.6-42.29Z"/>
  <path class="cls-14" d="M943.01,711.95s-15.57,38.25-6.6,42.29,6.6-42.29,6.6-42.29Z"/>
  <path class="cls-14" d="M947.68,679.45s-15.57,38.25-6.6,42.29c8.97,4.04,6.6-42.29,6.6-42.29Z"/>
  <path class="cls-14" d="M965.07,795.44s-12.84-39.25-22.29-36.54c-9.45,2.71,22.29,36.54,22.29,36.54Z"/>
  <path class="cls-14" d="M916.86,692.64s2.31,41.23,12.14,41.04c9.83-.19-12.14-41.04-12.14-41.04Z"/>
  <path class="cls-14" d="M978.84,708.8s32.13-25.95,26.24-33.82c-5.89-7.87-26.24,33.82-26.24,33.82Z"/>
  <path class="cls-14" d="M980.39,685.92s39.78,11.1,42.77,1.73-42.77-1.73-42.77-1.73Z"/>
  <path class="cls-14" d="M952.12,712.91s32.13-25.95,26.24-33.82c-5.89-7.87-26.24,33.82-26.24,33.82Z"/>
  <path class="cls-14" d="M939.47,668.44s41.22,2.51,42.18-7.28c.96-9.79-42.18,7.28-42.18,7.28Z"/>
  <path class="cls-14" d="M991.93,655.67s-41.05,4.54-40.32,14.35c.72,9.81,40.32-14.35,40.32-14.35Z"/>
  <path class="cls-14" d="M701.28,633.75s-41.29-.49-41.77,9.33c-.48,9.82,41.77-9.33,41.77-9.33Z"/>
  <path class="cls-14" d="M958.56,679.92s-17.53-37.39-26.58-33.55c-9.05,3.84,26.58,33.55,26.58,33.55Z"/>
  <path class="cls-14" d="M1049.34,603.19s-16.83,37.71-8.01,42.05c8.83,4.33,8.01-42.05,8.01-42.05Z"/>
  <path class="cls-14" d="M1013.6,616.65s33.83-23.69,28.49-31.95-28.49,31.95-28.49,31.95Z"/>
  <path class="cls-14" d="M1055.78,620.77s-28.13-30.23-35.57-23.8,35.57,23.8,35.57,23.8Z"/>
  <path class="cls-14" d="M1010.1,638.48s-37.69,16.89-33.99,26.01c3.69,9.11,33.99-26.01,33.99-26.01Z"/>
  <path class="cls-14" d="M1018.73,652.58s17.84-37.24,9.14-41.81c-8.71-4.57-9.14,41.81-9.14,41.81Z"/>
  <path class="cls-14" d="M1011.8,596.98s-19.64,36.33-11.17,41.32c8.47,4.99,11.17-41.32,11.17-41.32Z"/>
  <path class="cls-14" d="M969.91,663.67s41.3-.14,41.62-9.97-41.62,9.97-41.62,9.97Z"/>
  <path class="cls-14" d="M1033.67,660.11s-28.13-30.23-35.57-23.8,35.57,23.8,35.57,23.8Z"/>
  <path class="cls-14" d="M1041.97,680.53s-28.13-30.23-35.57-23.8,35.57,23.8,35.57,23.8Z"/>
  <path class="cls-14" d="M948.65,644.94s41.01,4.89,42.53-4.82c1.52-9.71-42.53,4.82-42.53,4.82Z"/>
  <path class="cls-14" d="M1042.99,647.03s-38.37-15.27-42.34-6.28,42.34,6.28,42.34,6.28Z"/>
  <path class="cls-14" d="M1036.03,666.59s-38.37-15.27-42.34-6.28,42.34,6.28,42.34,6.28Z"/>
  <path class="cls-14" d="M1027.69,610.75s-40.27,9.15-38.45,18.81c1.83,9.66,38.45-18.81,38.45-18.81Z"/>
  <path class="cls-14" d="M980.92,637.72s38.13-15.87,34.68-25.08-34.68,25.08-34.68,25.08Z"/>
  <path class="cls-14" d="M1006.14,605.08s27.31,30.98,34.92,24.75-34.92-24.75-34.92-24.75Z"/>
  <path class="cls-14" d="M947.89,707.07s2.31,41.23,12.14,41.04-12.14-41.04-12.14-41.04Z"/>
  <path class="cls-14" d="M785.92,803.16s32.4-25.61,26.59-33.54-26.59,33.54-26.59,33.54Z"/>
  <path class="cls-14" d="M758.43,739.56s29.21,29.19,36.41,22.5c7.2-6.7-36.41-22.5-36.41-22.5Z"/>
  <path class="cls-14" d="M785.55,752.58s2.31,41.23,12.14,41.04-12.14-41.04-12.14-41.04Z"/>
  <path class="cls-14" d="M738.73,771.73s31.2,27.06,37.91,19.87c6.71-7.19-37.91-19.87-37.91-19.87Z"/>
  <path class="cls-14" d="M753.1,815.88s31.2,27.06,37.91,19.87c6.71-7.19-37.91-19.87-37.91-19.87Z"/>
  <path class="cls-14" d="M723.84,800.99s31.2,27.06,37.91,19.87c6.71-7.19-37.91-19.87-37.91-19.87Z"/>
  <path class="cls-14" d="M732.99,787.21s-41.29-.49-41.77,9.33c-.48,9.82,41.77-9.33,41.77-9.33Z"/>
  <path class="cls-14" d="M726.4,834.41s39.78,11.1,42.77,1.73c2.99-9.37-42.77-1.73-42.77-1.73Z"/>
  <path class="cls-14" d="M685.49,816.93s41.22,2.51,42.18-7.28-42.18,7.28-42.18,7.28Z"/>
  <path class="cls-14" d="M763.61,826.82s-17.53-37.39-26.58-33.55c-9.05,3.84,26.58,33.55,26.58,33.55Z"/>
  <path class="cls-14" d="M770.69,742.67s-15.57,38.25-6.6,42.29c8.97,4.04,6.6-42.29,6.6-42.29Z"/>
  <path class="cls-14" d="M733.52,770.5s-15.57,38.25-6.6,42.29,6.6-42.29,6.6-42.29Z"/>
  <path class="cls-14" d="M738.19,738s-15.57,38.25-6.6,42.29c8.97,4.04,6.6-42.29,6.6-42.29Z"/>
  <path class="cls-14" d="M755.59,853.99s-12.84-39.25-22.29-36.54c-9.45,2.71,22.29,36.54,22.29,36.54Z"/>
  <path class="cls-14" d="M707.38,751.2s2.31,41.23,12.14,41.04c9.83-.19-12.14-41.04-12.14-41.04Z"/>
  <path class="cls-14" d="M769.36,767.35s32.13-25.95,26.24-33.82c-5.89-7.87-26.24,33.82-26.24,33.82Z"/>
  <path class="cls-14" d="M770.91,744.47s39.78,11.1,42.77,1.73c2.99-9.37-42.77-1.73-42.77-1.73Z"/>
  <path class="cls-14" d="M742.64,771.46s32.13-25.95,26.24-33.82c-5.89-7.87-26.24,33.82-26.24,33.82Z"/>
  <path class="cls-14" d="M729.99,726.99s41.22,2.51,42.18-7.28c.96-9.79-42.18,7.28-42.18,7.28Z"/>
  <path class="cls-14" d="M782.45,714.22s-41.05,4.54-40.32,14.35c.72,9.81,40.32-14.35,40.32-14.35Z"/>
  <path class="cls-14" d="M805.59,730.57s-41.29-.49-41.77,9.33c-.48,9.82,41.77-9.33,41.77-9.33Z"/>
  <path class="cls-14" d="M729.95,735.49s-17.53-37.39-26.58-33.55c-9.05,3.84,26.58,33.55,26.58,33.55Z"/>
  <path class="cls-14" d="M738.41,765.62s2.31,41.23,12.14,41.04-12.14-41.04-12.14-41.04Z"/>
  <path class="cls-14" d="M860.59,781.36s-38.32-15.4-42.32-6.41c-4,8.98,42.32,6.41,42.32,6.41Z"/>
  <path class="cls-14" d="M819.06,836.82s10.82-39.85,1.44-42.78c-9.39-2.92-1.44,42.78-1.44,42.78Z"/>
  <path class="cls-14" d="M816.89,806.81s34.63-22.49,29.58-30.93c-5.05-8.44-29.58,30.93-29.58,30.93Z"/>
  <path class="cls-14" d="M856.76,837.93s7.99-40.52-1.59-42.77c-9.57-2.25,1.59,42.77,1.59,42.77Z"/>
  <path class="cls-14" d="M887.94,803.53s7.99-40.52-1.59-42.77c-9.57-2.25,1.59,42.77,1.59,42.77Z"/>
  <path class="cls-14" d="M889.55,836.32s7.99-40.52-1.59-42.77c-9.57-2.25,1.59,42.77,1.59,42.77Z"/>
  <path class="cls-14" d="M886.06,813.1s20.09,36.08,28.85,31.61c8.76-4.47-28.85-31.61-28.85-31.61Z"/>
  <path class="cls-14" d="M917.28,817.49s-10.13-40.03-19.75-37.97c-9.61,2.06,19.75,37.97,19.75,37.97Z"/>
  <path class="cls-14" d="M931.26,831.44s-18.3-37.02-27.27-32.99,27.27,32.99,27.27,32.99Z"/>
  <path class="cls-14" d="M892.21,788.97s-23.74,33.79-15.91,39.73c7.83,5.94,15.91-39.73,15.91-39.73Z"/>
  <path class="cls-14" d="M815.66,824.63s40.93-5.5,39.98-15.28-39.98,15.28-39.98,15.28Z"/>
  <path class="cls-14" d="M858.28,843.06s40.93-5.5,39.98-15.28c-.95-9.79-39.98,15.28-39.98,15.28Z"/>
  <path class="cls-14" d="M827.76,855.15s40.93-5.5,39.98-15.28c-.95-9.79-39.98,15.28-39.98,15.28Z"/>
  <path class="cls-14" d="M919.78,782.43s-27.68,30.64-20.63,37.5c7.05,6.85,20.63-37.5,20.63-37.5Z"/>
  <path class="cls-14" d="M685.37,756.94s34.63-22.49,29.58-30.93c-5.05-8.44-29.58,30.93-29.58,30.93Z"/>
  <path class="cls-14" d="M837.74,813.52s-38.48-14.99-42.38-5.97c-3.9,9.03,42.38,5.97,42.38,5.97Z"/>
  <path class="cls-14" d="M817.12,823.55s-10.13-40.03-19.75-37.97,19.75,37.97,19.75,37.97Z"/>
  <path class="cls-14" d="M854.58,834.67s-38.48-14.99-42.38-5.97c-3.9,9.03,42.38,5.97,42.38,5.97Z"/>
  <path class="cls-14" d="M822.28,867.74s-18.3-37.02-27.27-32.99c-8.97,4.03,27.27,32.99,27.27,32.99Z"/>
  <path class="cls-14" d="M785.13,828.56s24.34,33.36,32.49,27.86c8.15-5.5-32.49-27.86-32.49-27.86Z"/>
  <path class="cls-14" d="M787.82,800.36s20.09,36.08,28.85,31.61c8.76-4.47-28.85-31.61-28.85-31.61Z"/>
  <path class="cls-14" d="M945.47,797.2s-23.74,33.79-15.91,39.73c7.83,5.94,15.91-39.73,15.91-39.73Z"/>
  <path class="cls-14" d="M851.62,841.24s34.63-22.49,29.58-30.93c-5.05-8.44-29.58,30.93-29.58,30.93Z"/>
  <path class="cls-14" d="M887.96,605.13s-38.53-14.85-42.4-5.81c-3.87,9.04,42.4,5.81,42.4,5.81Z"/>
  <path class="cls-14" d="M855.78,638.32s-18.44-36.95-27.39-32.89c-8.95,4.07,27.39,32.89,27.39,32.89Z"/>
  <path class="cls-14" d="M697.15,614.11s-23.62,33.88-15.76,39.79c7.85,5.92,15.76-39.79,15.76-39.79Z"/>
  <path class="cls-14" d="M791.55,619.93s40.91-5.65,39.92-15.43c-.99-9.78-39.92,15.43-39.92,15.43Z"/>
  <path class="cls-14" d="M741.94,629.15s40.91-5.65,39.92-15.43c-.99-9.78-39.92,15.43-39.92,15.43Z"/>
  <path class="cls-14" d="M701.37,642.52s20.33,35.95,29.06,31.42c8.73-4.52-29.06-31.42-29.06-31.42Z"/>
  <path class="cls-14" d="M787.9,652.22s34.55-22.62,29.47-31.04-29.47,31.04-29.47,31.04Z"/>
  <path class="cls-14" d="M770.46,688.28s1.64-41.26-8.16-42.02c-9.8-.75,8.16,42.02,8.16,42.02Z"/>
  <path class="cls-14" d="M680.71,746.76s24.13,33.51,32.32,28.06-32.32-28.06-32.32-28.06Z"/>
  <path class="cls-14" d="M639.72,753.45s39.54,11.93,42.72,2.62-42.72-2.62-42.72-2.62Z"/>
  <path class="cls-14" d="M697.16,719.32s-23.95,33.64-16.16,39.63c7.8,5.99,16.16-39.63,16.16-39.63Z"/>
  <path class="cls-14" d="M676.16,694.52s-7.24,40.66,2.37,42.74c9.61,2.08-2.37-42.74-2.37-42.74Z"/>
  <path class="cls-14" d="M709.44,741.94s-40.28,9.11-38.46,18.78c1.82,9.66,38.46-18.78,38.46-18.78Z"/>
  <path class="cls-14" d="M680.99,724.21s-32.5,25.48-26.72,33.44c5.78,7.96,26.72-33.44,26.72-33.44Z"/>
  <path class="cls-14" d="M638.51,696.76s-4.35,41.07,5.38,42.46-5.38-42.46-5.38-42.46Z"/>
  <path class="cls-14" d="M680.63,706.35s-40.28,9.11-38.46,18.78c1.82,9.66,38.46-18.78,38.46-18.78Z"/>
  <path class="cls-14" d="M696.94,680.08s-40.28,9.11-38.46,18.78,38.46-18.78,38.46-18.78Z"/>
  <path class="cls-14" d="M631.57,724.78s5.46-40.94-4.24-42.59c-9.69-1.66,4.24,42.59,4.24,42.59Z"/>
  <path class="cls-14" d="M659.63,719.38s39.66,11.51,42.75,2.18c3.09-9.34-42.75-2.18-42.75-2.18Z"/>
  <path class="cls-14" d="M751.51,713.94s24.13,33.51,32.32,28.06-32.32-28.06-32.32-28.06Z"/>
  <path class="cls-14" d="M710.52,720.62s39.54,11.93,42.72,2.62-42.72-2.62-42.72-2.62Z"/>
  <path class="cls-14" d="M767.95,686.49s-23.95,33.64-16.16,39.63c7.8,5.99,16.16-39.63,16.16-39.63Z"/>
  <path class="cls-14" d="M746.96,661.69s-7.24,40.66,2.37,42.74c9.61,2.08-2.37-42.74-2.37-42.74Z"/>
  <path class="cls-14" d="M780.24,709.11s-40.28,9.11-38.46,18.78c1.82,9.66,38.46-18.78,38.46-18.78Z"/>
  <path class="cls-14" d="M751.79,691.39s-32.5,25.48-26.72,33.44c5.78,7.96,26.72-33.44,26.72-33.44Z"/>
  <path class="cls-14" d="M709.31,663.94s-4.35,41.07,5.38,42.46-5.38-42.46-5.38-42.46Z"/>
  <path class="cls-14" d="M751.42,673.53s-40.28,9.11-38.46,18.78c1.82,9.66,38.46-18.78,38.46-18.78Z"/>
  <path class="cls-14" d="M767.74,647.26s-40.28,9.11-38.46,18.78,38.46-18.78,38.46-18.78Z"/>
  <path class="cls-14" d="M702.36,691.96s5.46-40.94-4.24-42.59c-9.69-1.66,4.24,42.59,4.24,42.59Z"/>
  <path class="cls-14" d="M730.42,686.56s39.66,11.51,42.75,2.18c3.09-9.34-42.75-2.18-42.75-2.18Z"/>
  <path class="cls-14" d="M589.74,599.91s24.13,33.51,32.32,28.06-32.32-28.06-32.32-28.06Z"/>
  <path class="cls-14" d="M657.75,555.22s39.54,11.93,42.72,2.62-42.72-2.62-42.72-2.62Z"/>
  <path class="cls-14" d="M715.18,521.09s-23.95,33.64-16.16,39.63c7.8,5.99,16.16-39.63,16.16-39.63Z"/>
  <path class="cls-14" d="M694.18,496.29s-7.24,40.66,2.37,42.74c9.61,2.08-2.37-42.74-2.37-42.74Z"/>
  <path class="cls-14" d="M618.47,595.08s-40.28,9.11-38.46,18.78c1.82,9.66,38.46-18.78,38.46-18.78Z"/>
  <path class="cls-14" d="M699.01,525.98s-32.5,25.48-26.72,33.44c5.78,7.96,26.72-33.44,26.72-33.44Z"/>
  <path class="cls-14" d="M656.53,498.53s-4.35,41.07,5.38,42.46c9.73,1.39-5.38-42.46-5.38-42.46Z"/>
  <path class="cls-14" d="M698.65,508.13s-40.28,9.11-38.46,18.78c1.82,9.66,38.46-18.78,38.46-18.78Z"/>
  <path class="cls-14" d="M714.96,481.85s-40.28,9.11-38.46,18.78,38.46-18.78,38.46-18.78Z"/>
  <path class="cls-14" d="M649.59,526.55s5.46-40.94-4.24-42.59c-9.69-1.66,4.24,42.59,4.24,42.59Z"/>
  <path class="cls-14" d="M568.65,572.53s39.66,11.51,42.75,2.18c3.09-9.34-42.75-2.18-42.75-2.18Z"/>
  <path class="cls-14" d="M726.55,527s-26.84,31.39-19.6,38.05,19.6-38.05,19.6-38.05Z"/>
  <path class="cls-14" d="M710.33,488.76s-2.21,41.24,7.58,42.12-7.58-42.12-7.58-42.12Z"/>
  <path class="cls-14" d="M757.11,536.46s-38.36-15.29-42.34-6.3c-3.97,8.99,42.34,6.3,42.34,6.3Z"/>
  <path class="cls-14" d="M776.22,510.18s-41.21,2.61-40.95,12.44,40.95-12.44,40.95-12.44Z"/>
  <path class="cls-14" d="M738.04,553.76s-18.4-36.97-27.36-32.91c-8.96,4.06,27.36,32.91,27.36,32.91Z"/>
  <path class="cls-14" d="M748.52,521.92s-32.46-25.53-38.82-18.03c-6.36,7.5,38.82,18.03,38.82,18.03Z"/>
  <path class="cls-14" d="M765.11,474.14s-40.93,5.51-39.97,15.3,39.97-15.3,39.97-15.3Z"/>
  <path class="cls-14" d="M765.78,517.33s-18.4-36.97-27.36-32.91c-8.96,4.06,27.36,32.91,27.36,32.91Z"/>
  <path class="cls-14" d="M847.54,400.12s-40.28,9.11-38.46,18.78,38.46-18.78,38.46-18.78Z"/>
  <path class="cls-14" d="M673.17,496.19s5.46-40.94-4.24-42.59c-9.69-1.66,4.24,42.59,4.24,42.59Z"/>
  <path class="cls-14" d="M748.15,500.02s-1.78,41.26,8.02,42.04c9.8.78-8.02-42.04-8.02-42.04Z"/>
  <path class="cls-14" d="M827.6,525.13s-36.93-18.48-41.65-9.86,41.65,9.86,41.65,9.86Z"/>
  <path class="cls-14" d="M781.66,577s14.05-38.83,4.94-42.52-4.94,42.52-4.94,42.52Z"/>
  <path class="cls-14" d="M806.45,607.21s-23.46-33.99-31.75-28.7,31.75,28.7,31.75,28.7Z"/>
  <path class="cls-14" d="M803.38,549.37s-40.1,9.86-38.11,19.48,38.11-19.48,38.11-19.48Z"/>
  <path class="cls-14" d="M783.38,483.4s1.51,41.27,11.35,41.27-11.35-41.27-11.35-41.27Z"/>
  <path class="cls-14" d="M754.88,533.82s39.12,13.24,42.61,4.05-42.61-4.05-42.61-4.05Z"/>
  <path class="cls-14" d="M792.29,591.3s-38.58,14.73-35.41,24.04c3.17,9.31,35.41-24.04,35.41-24.04Z"/>
  <path class="cls-14" d="M813.36,617.4s1.71-41.26-8.09-42.03c-9.8-.77,8.09,42.03,8.09,42.03Z"/>
  <path class="cls-14" d="M799.02,559.71s-23.95,33.64-16.16,39.63c7.8,5.99,16.16-39.63,16.16-39.63Z"/>
  <path class="cls-14" d="M798.8,520.48s-40.28,9.11-38.46,18.78,38.46-18.78,38.46-18.78Z"/>
  <path class="cls-14" d="M810.39,565.62s-26.84,31.39-19.6,38.05,19.6-38.05,19.6-38.05Z"/>
  <path class="cls-14" d="M794.17,527.39s-2.21,41.24,7.58,42.12-7.58-42.12-7.58-42.12Z"/>
  <path class="cls-14" d="M840.95,575.09s-38.36-15.29-42.34-6.3c-3.97,8.99,42.34,6.3,42.34,6.3Z"/>
  <path class="cls-14" d="M860.06,548.81s-41.21,2.61-40.95,12.44,40.95-12.44,40.95-12.44Z"/>
  <path class="cls-14" d="M821.89,592.38s-18.4-36.97-27.36-32.91c-8.96,4.06,27.36,32.91,27.36,32.91Z"/>
  <path class="cls-14" d="M832.36,560.54s-32.46-25.53-38.82-18.03c-6.36,7.5,38.82,18.03,38.82,18.03Z"/>
  <path class="cls-14" d="M848.96,512.76s-40.93,5.51-39.97,15.3,39.97-15.3,39.97-15.3Z"/>
  <path class="cls-14" d="M849.62,555.96s-18.4-36.97-27.36-32.91c-8.96,4.06,27.36,32.91,27.36,32.91Z"/>
  <path class="cls-14" d="M831.99,538.64s-1.78,41.26,8.02,42.04c9.8.78-8.02-42.04-8.02-42.04Z"/>
  <path class="cls-14" d="M891.66,512.89s-36.93-18.48-41.65-9.86,41.65,9.86,41.65,9.86Z"/>
  <path class="cls-14" d="M845.72,564.76s14.05-38.83,4.94-42.52-4.94,42.52-4.94,42.52Z"/>
  <path class="cls-14" d="M870.51,594.97s-23.46-33.99-31.75-28.7,31.75,28.7,31.75,28.7Z"/>
  <path class="cls-14" d="M867.44,537.12s-40.1,9.86-38.11,19.48,38.11-19.48,38.11-19.48Z"/>
  <path class="cls-14" d="M847.44,471.15s1.51,41.27,11.35,41.27-11.35-41.27-11.35-41.27Z"/>
  <path class="cls-14" d="M818.93,521.58s39.12,13.24,42.61,4.05-42.61-4.05-42.61-4.05Z"/>
  <path class="cls-14" d="M856.35,579.06s-38.58,14.73-35.41,24.04c3.17,9.31,35.41-24.04,35.41-24.04Z"/>
  <path class="cls-14" d="M877.42,605.15s1.71-41.26-8.09-42.03c-9.8-.77,8.09,42.03,8.09,42.03Z"/>
  <path class="cls-14" d="M863.08,547.47s-23.95,33.64-16.16,39.63c7.8,5.99,16.16-39.63,16.16-39.63Z"/>
  <path class="cls-14" d="M862.86,508.23s-40.28,9.11-38.46,18.78,38.46-18.78,38.46-18.78Z"/>
  <path class="cls-14" d="M874.45,553.37s-26.84,31.39-19.6,38.05,19.6-38.05,19.6-38.05Z"/>
  <path class="cls-14" d="M858.23,515.14s-2.21,41.24,7.58,42.12-7.58-42.12-7.58-42.12Z"/>
  <path class="cls-14" d="M905.01,562.84s-38.36-15.29-42.34-6.3c-3.97,8.99,42.34,6.3,42.34,6.3Z"/>
  <path class="cls-14" d="M924.12,536.56s-41.21,2.61-40.95,12.44,40.95-12.44,40.95-12.44Z"/>
  <path class="cls-14" d="M885.95,580.14s-18.4-36.97-27.36-32.91c-8.96,4.06,27.36,32.91,27.36,32.91Z"/>
  <path class="cls-14" d="M896.42,548.3s-32.46-25.53-38.82-18.03c-6.36,7.5,38.82,18.03,38.82,18.03Z"/>
  <path class="cls-14" d="M913.02,500.52s-40.93,5.51-39.97,15.3,39.97-15.3,39.97-15.3Z"/>
  <path class="cls-14" d="M913.68,543.71s-18.4-36.97-27.36-32.91c-8.96,4.06,27.36,32.91,27.36,32.91Z"/>
  <path class="cls-14" d="M896.05,526.39s-1.78,41.26,8.02,42.04c9.8.78-8.02-42.04-8.02-42.04Z"/>
  <path class="cls-14" d="M794.33,464.32s-9.47,40.2.01,42.8-.01-42.8-.01-42.8Z"/>
  <path class="cls-14" d="M855.4,497.06s-41.03-4.72-42.51,5c-1.48,9.72,42.51-5,42.51-5Z"/>
  <path class="cls-14" d="M879.08,465.98s-27.66,30.66-20.61,37.51,20.61-37.51,20.61-37.51Z"/>
  <path class="cls-14" d="M823.5,482.3s18.84,36.75,27.75,32.59c8.91-4.16-27.75-32.59-27.75-32.59Z"/>
  <path class="cls-14" d="M763.92,516.97s39.81-10.99,37.54-20.56-37.54,20.56-37.54,20.56Z"/>
  <path class="cls-14" d="M819.56,533.08s3.87-41.12-5.88-42.39,5.88,42.39,5.88,42.39Z"/>
  <path class="cls-14" d="M866.86,483.42s23.23,34.15,31.56,28.92c8.33-5.23-31.56-28.92-31.56-28.92Z"/>
  <path class="cls-14" d="M887.4,456.9s-40.54,7.85-39.03,17.57c1.51,9.72,39.03-17.57,39.03-17.57Z"/>
  <path class="cls-14" d="M834.57,484.16s38.26,15.55,42.29,6.58c4.03-8.97-42.29-6.58-42.29-6.58Z"/>
  <path class="cls-14" d="M796.44,493.42s18.15,37.09,27.14,33.1-27.14-33.1-27.14-33.1Z"/>
  <path class="cls-14" d="M837.7,471.73s36.73,18.87,41.54,10.3c4.81-8.58-41.54-10.3-41.54-10.3Z"/>
  <path class="cls-14" d="M804.23,496.33s40.64-7.36,39.24-17.09-39.24,17.09-39.24,17.09Z"/>
  <path class="cls-14" d="M839.86,439.81s-6.03,40.85,3.64,42.65c9.67,1.79-3.64-42.65-3.64-42.65Z"/>
  <path class="cls-14" d="M809.88,427.27s12.04,39.5,21.55,36.98-21.55-36.98-21.55-36.98Z"/>
  <path class="cls-14" d="M861.09,454.37s-31.73,26.43-25.72,34.21c6.01,7.78,25.72-34.21,25.72-34.21Z"/>
  <path class="cls-14" d="M827.69,451.52s-17.36,37.47-8.59,41.93,8.59-41.93,8.59-41.93Z"/>
  <path class="cls-14" d="M777.37,446.39s14.8,38.55,24.1,35.37-24.1-35.37-24.1-35.37Z"/>
  <path class="cls-14" d="M819.25,435.79s-31.73,26.43-25.72,34.21c6.01,7.78,25.72-34.21,25.72-34.21Z"/>
  <path class="cls-14" d="M806.47,456.94s40.56-7.78,39.06-17.5c-1.5-9.72-39.06,17.5-39.06,17.5Z"/>
  <path class="cls-14" d="M725.56,429.47s-9.47,40.2.01,42.8-.01-42.8-.01-42.8Z"/>
  <path class="cls-14" d="M786.63,462.2s-41.03-4.72-42.51,5c-1.48,9.72,42.51-5,42.51-5Z"/>
  <path class="cls-14" d="M810.31,431.12s-27.66,30.66-20.61,37.51,20.61-37.51,20.61-37.51Z"/>
  <path class="cls-14" d="M754.73,447.44s18.84,36.75,27.75,32.59c8.91-4.16-27.75-32.59-27.75-32.59Z"/>
  <path class="cls-14" d="M695.15,482.11s39.81-10.99,37.54-20.56-37.54,20.56-37.54,20.56Z"/>
  <path class="cls-14" d="M750.79,498.23s3.87-41.12-5.88-42.39,5.88,42.39,5.88,42.39Z"/>
  <path class="cls-14" d="M798.09,448.56s23.23,34.15,31.56,28.92c8.33-5.23-31.56-28.92-31.56-28.92Z"/>
  <path class="cls-14" d="M818.63,422.04s-40.54,7.85-39.03,17.57c1.51,9.72,39.03-17.57,39.03-17.57Z"/>
  <path class="cls-14" d="M765.8,449.3s38.26,15.55,42.29,6.58c4.03-8.97-42.29-6.58-42.29-6.58Z"/>
  <path class="cls-14" d="M727.67,458.56s18.15,37.09,27.14,33.1-27.14-33.1-27.14-33.1Z"/>
  <path class="cls-14" d="M768.93,436.88s36.73,18.87,41.54,10.3c4.81-8.58-41.54-10.3-41.54-10.3Z"/>
  <path class="cls-14" d="M735.46,461.47s40.64-7.36,39.24-17.09-39.24,17.09-39.24,17.09Z"/>
  <path class="cls-14" d="M771.09,404.96s-6.03,40.85,3.64,42.65c9.67,1.79-3.64-42.65-3.64-42.65Z"/>
  <path class="cls-14" d="M741.11,392.42s12.04,39.5,21.55,36.98-21.55-36.98-21.55-36.98Z"/>
  <path class="cls-14" d="M792.32,419.52s-31.73,26.43-25.72,34.21c6.01,7.78,25.72-34.21,25.72-34.21Z"/>
  <path class="cls-14" d="M758.92,416.67s-17.36,37.47-8.59,41.93,8.59-41.93,8.59-41.93Z"/>
  <path class="cls-14" d="M708.6,411.54s14.8,38.55,24.1,35.37-24.1-35.37-24.1-35.37Z"/>
  <path class="cls-14" d="M750.48,400.93s-31.73,26.43-25.72,34.21c6.01,7.78,25.72-34.21,25.72-34.21Z"/>
  <path class="cls-14" d="M737.7,422.08s40.56-7.78,39.06-17.5c-1.5-9.72-39.06,17.5-39.06,17.5Z"/>
  <path class="cls-14" d="M842.38,419.11s-9.47,40.2.01,42.8-.01-42.8-.01-42.8Z"/>
  <path class="cls-14" d="M903.44,451.84s-41.03-4.72-42.51,5c-1.48,9.72,42.51-5,42.51-5Z"/>
  <path class="cls-14" d="M927.12,420.76s-27.66,30.66-20.61,37.51,20.61-37.51,20.61-37.51Z"/>
  <path class="cls-14" d="M871.54,437.08s18.84,36.75,27.75,32.59c8.91-4.16-27.75-32.59-27.75-32.59Z"/>
  <path class="cls-14" d="M811.96,471.75s39.81-10.99,37.54-20.56-37.54,20.56-37.54,20.56Z"/>
  <path class="cls-14" d="M867.6,487.86s3.87-41.12-5.88-42.39,5.88,42.39,5.88,42.39Z"/>
  <path class="cls-14" d="M914.91,438.2s23.23,34.15,31.56,28.92c8.33-5.23-31.56-28.92-31.56-28.92Z"/>
  <path class="cls-14" d="M935.44,411.68s-40.54,7.85-39.03,17.57c1.51,9.72,39.03-17.57,39.03-17.57Z"/>
  <path class="cls-14" d="M882.62,438.94s38.26,15.55,42.29,6.58c4.03-8.97-42.29-6.58-42.29-6.58Z"/>
  <path class="cls-14" d="M844.49,448.2s18.15,37.09,27.14,33.1-27.14-33.1-27.14-33.1Z"/>
  <path class="cls-14" d="M885.74,426.51s36.73,18.87,41.54,10.3c4.81-8.58-41.54-10.3-41.54-10.3Z"/>
  <path class="cls-14" d="M852.28,451.11s40.64-7.36,39.24-17.09-39.24,17.09-39.24,17.09Z"/>
  <path class="cls-14" d="M887.91,394.59s-6.03,40.85,3.64,42.65c9.67,1.79-3.64-42.65-3.64-42.65Z"/>
  <path class="cls-14" d="M857.93,382.06s12.04,39.5,21.55,36.98-21.55-36.98-21.55-36.98Z"/>
  <path class="cls-14" d="M909.13,409.16s-31.73,26.43-25.72,34.21c6.01,7.78,25.72-34.21,25.72-34.21Z"/>
  <path class="cls-14" d="M875.74,406.3s-17.36,37.47-8.59,41.93,8.59-41.93,8.59-41.93Z"/>
  <path class="cls-14" d="M825.42,401.18s14.8,38.55,24.1,35.37-24.1-35.37-24.1-35.37Z"/>
  <path class="cls-14" d="M867.29,390.57s-31.73,26.43-25.72,34.21c6.01,7.78,25.72-34.21,25.72-34.21Z"/>
  <path class="cls-14" d="M854.51,411.72s40.56-7.78,39.06-17.5c-1.5-9.72-39.06,17.5-39.06,17.5Z"/>
  <path class="cls-14" d="M940.28,498.85s-36.93-18.48-41.65-9.86,41.65,9.86,41.65,9.86Z"/>
  <path class="cls-14" d="M897.01,525.69s29.33-29.07,22.67-36.31-22.67,36.31-22.67,36.31Z"/>
  <path class="cls-14" d="M913.48,553.7s14.05-38.83,4.94-42.52-4.94,42.52-4.94,42.52Z"/>
  <path class="cls-14" d="M938.26,583.92s-23.46-33.99-31.75-28.7,31.75,28.7,31.75,28.7Z"/>
  <path class="cls-14" d="M780.58,564.42s-38.6,14.67-35.45,23.98c3.15,9.31,35.45-23.98,35.45-23.98Z"/>
  <path class="cls-14" d="M935.2,526.07s-40.1,9.86-38.11,19.48,38.11-19.48,38.11-19.48Z"/>
  <path class="cls-14" d="M945.18,594.1s1.71-41.26-8.09-42.03c-9.8-.77,8.09,42.03,8.09,42.03Z"/>
  <path class="cls-14" d="M942.2,542.32s-26.84,31.39-19.6,38.05,19.6-38.05,19.6-38.05Z"/>
  <path class="cls-14" d="M925.99,504.09s-2.21,41.24,7.58,42.12-7.58-42.12-7.58-42.12Z"/>
  <path class="cls-14" d="M972.76,551.79s-38.36-15.29-42.34-6.3c-3.97,8.99,42.34,6.3,42.34,6.3Z"/>
  <path class="cls-14" d="M972.74,522.53s-41.21,2.61-40.95,12.44,40.95-12.44,40.95-12.44Z"/>
  <path class="cls-14" d="M953.7,569.09s-18.4-36.97-27.36-32.91c-8.96,4.06,27.36,32.91,27.36,32.91Z"/>
  <path class="cls-14" d="M964.17,537.25s-32.46-25.53-38.82-18.03c-6.36,7.5,38.82,18.03,38.82,18.03Z"/>
  <path class="cls-14" d="M961.64,486.48s-40.93,5.51-39.97,15.3,39.97-15.3,39.97-15.3Z"/>
  <path class="cls-14" d="M962.3,529.67s-18.4-36.97-27.36-32.91c-8.96,4.06,27.36,32.91,27.36,32.91Z"/>
  <path class="cls-14" d="M944.67,512.36s-1.78,41.26,8.02,42.04c9.8.78-8.02-42.04-8.02-42.04Z"/>
  <path class="cls-14" d="M1000.22,588.97s40.63,7.41,42.74-2.19c2.12-9.6-42.74,2.19-42.74,2.19Z"/>
  <path class="cls-14" d="M1053.45,548.6s-20.02,36.12-11.6,41.2,11.6-41.2,11.6-41.2Z"/>
  <path class="cls-14" d="M1029.8,526.32s-2.62,41.21,7.16,42.2c9.78.98-7.16-42.2-7.16-42.2Z"/>
  <path class="cls-14" d="M997.55,504.25s32.03,26.07,38.51,18.67c6.48-7.39-38.51-18.67-38.51-18.67Z"/>
  <path class="cls-14" d="M1007.6,652.54s32.96-24.89,27.32-32.94c-5.63-8.06-27.32,32.94-27.32,32.94Z"/>
  <path class="cls-14" d="M1016.68,558.93s35.74-20.69,31.13-29.37c-4.61-8.69-31.13,29.37-31.13,29.37Z"/>
  <path class="cls-14" d="M988.06,496.4s9.91,40.09,19.53,38.08-19.53-38.08-19.53-38.08Z"/>
  <path class="cls-14" d="M1005.41,545.28s16.98-37.65,8.17-42.01-8.17,42.01-8.17,42.01Z"/>
  <path class="cls-14" d="M1031.68,577.45s-9.42-40.21-19.07-38.32c-9.65,1.89,19.07,38.32,19.07,38.32Z"/>
  <path class="cls-14" d="M973.42,544.74s41.11,3.94,42.41-5.8c1.3-9.75-42.41,5.8-42.41,5.8Z"/>
  <path class="cls-14" d="M962.43,575.32s38.84-14.04,35.84-23.4-35.84,23.4-35.84,23.4Z"/>
  <path class="cls-14" d="M986.88,522.8s28.01,30.34,35.48,23.94c7.46-6.4-35.48-23.94-35.48-23.94Z"/>
  <path class="cls-14" d="M985.74,556.3s38.31,15.42,42.31,6.44c4-8.98-42.31-6.44-42.31-6.44Z"/>
  <path class="cls-14" d="M983.18,606.82s37.75-16.74,34.1-25.87-34.1,25.87-34.1,25.87Z"/>
  <path class="cls-14" d="M970.45,565.54s28.01,30.34,35.48,23.94c7.46-6.4-35.48-23.94-35.48-23.94Z"/>
  <path class="cls-14" d="M992.22,577.23s-9.84-40.11-19.47-38.12c-9.63,1.99,19.47,38.12,19.47,38.12Z"/>
  <path class="cls-14" d="M895.93,760.98s29.04-29.36,22.31-36.53c-6.73-7.17-22.31,36.53-22.31,36.53Z"/>
  <path class="cls-14" d="M914.27,769.1s2.07-41.25-7.72-42.1c-9.8-.85,7.72,42.1,7.72,42.1Z"/>
  <path class="cls-14" d="M952.8,815.61s1.64-41.26-8.16-42.02c-9.8-.75,8.16,42.02,8.16,42.02Z"/>
  <path class="cls-14" d="M911.01,795.84s29.04-29.36,22.31-36.53-22.31,36.53-22.31,36.53Z"/>
  <path class="cls-14" d="M907.71,729.11s18.53,36.91,27.47,32.82c8.94-4.09-27.47-32.82-27.47-32.82Z"/>
  <path class="cls-14" d="M966.45,820.56s-18.44-36.95-27.39-32.89c-8.95,4.07,27.39,32.89,27.39,32.89Z"/>
  <path class="cls-14" d="M935.95,747.96s-23.62,33.88-15.76,39.79c7.85,5.92,15.76-39.79,15.76-39.79Z"/>
  <path class="cls-14" d="M859.54,783.9s40.91-5.65,39.92-15.43c-.99-9.78-39.92,15.43-39.92,15.43Z"/>
  <path class="cls-14" d="M902.22,802.17s40.91-5.65,39.92-15.43c-.99-9.78-39.92,15.43-39.92,15.43Z"/>
  <path class="cls-14" d="M871.74,814.38s40.91-5.65,39.92-15.43c-.99-9.78-39.92,15.43-39.92,15.43Z"/>
  <path class="cls-14" d="M898.58,834.46s34.55-22.62,29.47-31.04-29.47,31.04-29.47,31.04Z"/>
  <path class="cls-14" d="M917.37,801.47s-39.68-11.44-42.75-2.1c-3.07,9.34,42.75,2.1,42.75,2.1Z"/>
  <path class="cls-14" d="M932.54,825.4s-37.99-16.19-42.17-7.29,42.17,7.29,42.17,7.29Z"/>
  <path class="cls-14" d="M854.74,780.12s32.55,25.42,38.88,17.9-38.88-17.9-38.88-17.9Z"/>
  <path class="cls-14" d="M948.39,777.29s31.2,27.06,37.91,19.87c6.71-7.19-37.91-19.87-37.91-19.87Z"/>
  <path class="cls-14" d="M957.54,763.52s-41.29-.49-41.77,9.33c-.48,9.82,41.77-9.33,41.77-9.33Z"/>
  <path class="cls-14" d="M910.04,793.23s41.22,2.51,42.18-7.28-42.18,7.28-42.18,7.28Z"/>
  <path class="cls-14" d="M958.08,746.8s-15.57,38.25-6.6,42.29c8.97,4.04,6.6-42.29,6.6-42.29Z"/>
  <path class="cls-14" d="M931.94,727.5s2.31,41.23,12.14,41.04-12.14-41.04-12.14-41.04Z"/>
  <path class="cls-14" d="M903.01,838.38s7.99-40.52-1.59-42.77,1.59,42.77,1.59,42.77Z"/>
  <path class="cls-14" d="M932.36,852.34s-10.13-40.03-19.75-37.97,19.75,37.97,19.75,37.97Z"/>
  <path class="cls-14" d="M911.01,795.84s29.04-29.36,22.31-36.53-22.31,36.53-22.31,36.53Z"/>
  <path class="cls-14" d="M787.57,616.24s-39.68-11.44-42.75-2.1,42.75,2.1,42.75,2.1Z"/>
  <path class="cls-14" d="M725.38,601.78s18.53,36.91,27.47,32.82-27.47-32.82-27.47-32.82Z"/>
  <path class="cls-14" d="M679.63,772.05s40.89-5.77,39.88-15.55c-1.02-9.78-39.88,15.55-39.88,15.55Z"/>
  <path class="cls-14" d="M821.87,643.16s-37.99-16.19-42.17-7.29c-4.18,8.9,42.17,7.29,42.17,7.29Z"/>
  <path class="cls-14" d="M693.63,608.74s32.55,25.42,38.88,17.9c6.33-7.52-38.88-17.9-38.88-17.9Z"/>
  <path class="cls-24" d="M414.18,260.25c7.99-37.06,11.09-72.1,56.17-69.6,51.69,2.87,56.94,44.47,55.77,82.1-1.17,37.64,17.95,49.29,13.51,86.44-4.43,37.15-21.7,67.69-83.7,61.99-68.35-6.28-72.83-63.94-67.83-93.73,3.97-23.62,22.12-48.88,26.07-67.21Z"/>
  <path class="cls-11" d="M416.7,263.76c7.5-34.78,10.41-67.66,52.71-65.31,48.5,2.7,53.43,41.72,52.33,77.04-1.1,35.32,16.84,46.25,12.68,81.11-4.16,34.86-20.36,63.52-78.54,58.17-64.13-5.89-68.34-60-63.65-87.95,3.72-22.16,20.76-45.86,24.46-63.06Z"/>
  <path class="cls-20" d="M500.89,355.2c-1.39,2.9-3.12,5.62-5.14,8.11-.96,1.17-1.97,2.28-3.05,3.35,0,0,0,0,0,0-1.59,1.55-3.31,2.99-5.16,4.28-3.44,2.41-7.31,4.33-11.53,5.6-.42.14-.84.26-1.27.37-1.92.51-3.84.89-5.76,1.11-5.94.72-11.81.1-17.27-1.66-2.37-.76-4.66-1.74-6.84-2.92-.29-.15-.57-.31-.85-.46-3.1-1.77-5.97-3.94-8.53-6.46-4.97-4.9-8.74-11.16-10.69-18.39-5.84-21.74,7.04-44.09,28.78-49.94,21.74-5.84,44.09,7.04,49.94,28.78,2.63,9.8,1.46,19.73-2.62,28.22Z"/>
  <path class="cls-25" d="M1073.97,195.94l5.58,15.51s6.62-7.65,12.61-7.86,6.6-.7,6.6-.7l-5.36-14.39s-5.38-1.65-11.78.41-7.65,7.03-7.65,7.03Z"/>
  <line class="cls-1" x1="1080.72" y1="210.2" x2="1074.81" y2="194.08"/>
  <line class="cls-1" x1="1082.3" y1="208.7" x2="1076.23" y2="192.2"/>
  <line class="cls-1" x1="1084.5" y1="206.9" x2="1078.43" y2="190.38"/>
  <line class="cls-1" x1="1086.87" y1="205.33" x2="1080.93" y2="189.15"/>
  <line class="cls-1" x1="1090.05" y1="203.95" x2="1084.28" y2="188.24"/>
  <line class="cls-1" x1="1092.85" y1="203.57" x2="1087.1" y2="187.9"/>
  <line class="cls-1" x1="1095.53" y1="203.48" x2="1089.82" y2="187.92"/>
  <line class="cls-1" x1="1097.55" y1="203.43" x2="1091.95" y2="188.18"/>
  <g>
    <path class="cls-24" d="M1082.03,216.33l-13.26,9.78s9.22,4.15,11.13,9.84,2.56,6.13,2.56,6.13l12.26-9.25s.05-5.62-3.77-11.17c-3.81-5.55-8.92-5.32-8.92-5.32Z"/>
    <line class="cls-1" x1="1070.3" y1="226.88" x2="1084.05" y2="216.6"/>
    <line class="cls-1" x1="1072.18" y1="227.96" x2="1086.26" y2="217.43"/>
    <line class="cls-1" x1="1074.54" y1="229.56" x2="1088.63" y2="219.02"/>
    <line class="cls-1" x1="1076.72" y1="231.38" x2="1090.53" y2="221.06"/>
    <line class="cls-1" x1="1078.95" y1="234.03" x2="1092.36" y2="224.01"/>
    <line class="cls-1" x1="1080.12" y1="236.61" x2="1093.48" y2="226.61"/>
    <line class="cls-1" x1="1080.97" y1="239.15" x2="1094.24" y2="229.23"/>
    <line class="cls-1" x1="1081.59" y1="241.07" x2="1094.61" y2="231.34"/>
  </g>
  <path class="cls-24" d="M1112.54,254.56l-13.26,9.78s9.22,4.15,11.13,9.84,2.56,6.13,2.56,6.13l12.26-9.25s.05-5.62-3.77-11.17-8.92-5.32-8.92-5.32Z"/>
  <line class="cls-1" x1="1100.81" y1="265.11" x2="1114.56" y2="254.84"/>
  <line class="cls-1" x1="1102.69" y1="266.19" x2="1116.77" y2="255.67"/>
  <line class="cls-1" x1="1105.05" y1="267.79" x2="1119.14" y2="257.25"/>
  <line class="cls-1" x1="1107.22" y1="269.62" x2="1121.04" y2="259.29"/>
  <line class="cls-1" x1="1109.46" y1="272.27" x2="1122.86" y2="262.24"/>
  <line class="cls-1" x1="1110.63" y1="274.84" x2="1123.99" y2="264.85"/>
  <line class="cls-1" x1="1111.47" y1="277.39" x2="1124.75" y2="267.46"/>
  <line class="cls-1" x1="1112.1" y1="279.31" x2="1125.12" y2="269.57"/>
  <g>
    <path class="cls-24" d="M1159.52,249.45l-8.25-14.27s-5.15,8.7-11.02,9.97-6.37,1.86-6.37,1.86l7.83,13.21s5.58.67,11.52-2.5c5.94-3.17,6.28-8.28,6.28-8.28Z"/>
    <line class="cls-1" x1="1150.34" y1="236.62" x2="1159.02" y2="251.43"/>
    <line class="cls-1" x1="1149.06" y1="238.37" x2="1157.95" y2="253.54"/>
    <line class="cls-1" x1="1147.2" y1="240.54" x2="1156.11" y2="255.71"/>
    <line class="cls-1" x1="1145.15" y1="242.5" x2="1153.87" y2="257.37"/>
    <line class="cls-1" x1="1142.27" y1="244.43" x2="1150.74" y2="258.86"/>
    <line class="cls-1" x1="1139.58" y1="245.3" x2="1148.02" y2="259.69"/>
    <line class="cls-1" x1="1136.96" y1="245.85" x2="1145.34" y2="260.16"/>
    <line class="cls-1" x1="1134.98" y1="246.26" x2="1143.2" y2="260.28"/>
  </g>
  <g>
    <path class="cls-24" d="M1100.99,264.69l-8.25-14.27s-5.15,8.7-11.02,9.97c-5.86,1.27-6.37,1.86-6.37,1.86l7.83,13.21s5.58.67,11.52-2.5,6.28-8.28,6.28-8.28Z"/>
    <line class="cls-1" x1="1091.81" y1="251.86" x2="1100.49" y2="266.68"/>
    <line class="cls-1" x1="1090.53" y1="253.61" x2="1099.42" y2="268.78"/>
    <line class="cls-1" x1="1088.67" y1="255.78" x2="1097.58" y2="270.95"/>
    <line class="cls-1" x1="1086.62" y1="257.74" x2="1095.34" y2="272.61"/>
    <line class="cls-1" x1="1083.74" y1="259.67" x2="1092.2" y2="274.1"/>
    <line class="cls-1" x1="1081.05" y1="260.54" x2="1089.49" y2="274.93"/>
    <line class="cls-1" x1="1078.42" y1="261.1" x2="1086.81" y2="275.4"/>
    <line class="cls-1" x1="1076.45" y1="261.5" x2="1084.67" y2="275.52"/>
  </g>
  <path class="cls-24" d="M1113.18,239.09l-8.25-14.27s-5.15,8.7-11.02,9.97c-5.86,1.27-6.37,1.86-6.37,1.86l7.83,13.21s5.58.67,11.52-2.5,6.28-8.28,6.28-8.28Z"/>
  <line class="cls-1" x1="1104" y1="226.25" x2="1112.69" y2="241.07"/>
  <line class="cls-1" x1="1102.72" y1="228" x2="1111.61" y2="243.17"/>
  <line class="cls-1" x1="1100.87" y1="230.17" x2="1109.77" y2="245.34"/>
  <line class="cls-1" x1="1098.81" y1="232.13" x2="1107.54" y2="247.01"/>
  <line class="cls-1" x1="1095.93" y1="234.06" x2="1104.4" y2="248.5"/>
  <line class="cls-1" x1="1093.24" y1="234.93" x2="1101.69" y2="249.32"/>
  <line class="cls-1" x1="1090.62" y1="235.49" x2="1099.01" y2="249.79"/>
  <line class="cls-1" x1="1088.64" y1="235.9" x2="1096.86" y2="249.92"/>
  <path class="cls-25" d="M1144.08,234.51l-8.25-14.27s-5.15,8.7-11.02,9.97c-5.86,1.27-6.37,1.86-6.37,1.86l7.83,13.21s5.58.67,11.52-2.5c5.94-3.17,6.28-8.28,6.28-8.28Z"/>
  <line class="cls-1" x1="1134.9" y1="221.67" x2="1143.58" y2="236.49"/>
  <line class="cls-1" x1="1133.61" y1="223.42" x2="1142.51" y2="238.59"/>
  <line class="cls-1" x1="1131.76" y1="225.59" x2="1140.67" y2="240.76"/>
  <line class="cls-1" x1="1129.71" y1="227.55" x2="1138.43" y2="242.43"/>
  <line class="cls-1" x1="1126.82" y1="229.48" x2="1135.29" y2="243.91"/>
  <line class="cls-1" x1="1124.14" y1="230.35" x2="1132.58" y2="244.74"/>
  <line class="cls-1" x1="1121.51" y1="230.91" x2="1129.9" y2="245.21"/>
  <line class="cls-1" x1="1119.53" y1="231.32" x2="1127.76" y2="245.34"/>
  <g>
    <path class="cls-24" d="M1112.04,198.32l-3.83,16.03s9.73-2.77,14.85.34,5.91,3.03,5.91,3.03l3.4-14.98s-3.59-4.33-10.08-6.11-10.25,1.69-10.25,1.69Z"/>
    <line class="cls-1" x1="1109.88" y1="213.95" x2="1113.76" y2="197.22"/>
    <line class="cls-1" x1="1112.01" y1="213.56" x2="1115.99" y2="196.43"/>
    <line class="cls-1" x1="1114.85" y1="213.26" x2="1118.82" y2="196.12"/>
    <line class="cls-1" x1="1117.69" y1="213.25" x2="1121.59" y2="196.45"/>
    <line class="cls-1" x1="1121.11" y1="213.83" x2="1124.89" y2="197.53"/>
    <line class="cls-1" x1="1123.66" y1="215.05" x2="1127.43" y2="198.79"/>
    <line class="cls-1" x1="1125.95" y1="216.45" x2="1129.69" y2="200.3"/>
    <line class="cls-1" x1="1127.66" y1="217.51" x2="1131.34" y2="201.68"/>
  </g>
  <path class="cls-25" d="M1059,242.83l-3.83,16.03s9.73-2.77,14.85.34c5.13,3.11,5.91,3.03,5.91,3.03l3.4-14.98s-3.59-4.33-10.08-6.11c-6.49-1.78-10.25,1.69-10.25,1.69Z"/>
  <line class="cls-1" x1="1056.83" y1="258.46" x2="1060.72" y2="241.73"/>
  <line class="cls-1" x1="1058.97" y1="258.07" x2="1062.94" y2="240.94"/>
  <line class="cls-1" x1="1061.8" y1="257.77" x2="1065.77" y2="240.63"/>
  <line class="cls-1" x1="1064.64" y1="257.76" x2="1068.54" y2="240.96"/>
  <line class="cls-1" x1="1068.06" y1="258.34" x2="1071.84" y2="242.04"/>
  <line class="cls-1" x1="1070.61" y1="259.56" x2="1074.38" y2="243.3"/>
  <line class="cls-1" x1="1072.9" y1="260.96" x2="1076.65" y2="244.81"/>
  <line class="cls-1" x1="1074.62" y1="262.02" x2="1078.29" y2="246.19"/>
  <path class="cls-25" d="M1149.81,304.81l-9.81-13.24s-4.13,9.23-9.81,11.16c-5.68,1.93-6.12,2.57-6.12,2.57l9.28,12.24s5.62.03,11.16-3.79c5.54-3.83,5.3-8.94,5.3-8.94Z"/>
  <line class="cls-1" x1="1139.23" y1="293.1" x2="1149.54" y2="306.83"/>
  <line class="cls-1" x1="1138.16" y1="294.99" x2="1148.72" y2="309.05"/>
  <line class="cls-1" x1="1136.56" y1="297.35" x2="1147.14" y2="311.41"/>
  <line class="cls-1" x1="1134.74" y1="299.53" x2="1145.1" y2="313.32"/>
  <line class="cls-1" x1="1132.1" y1="301.78" x2="1142.16" y2="315.16"/>
  <line class="cls-1" x1="1129.53" y1="302.95" x2="1139.56" y2="316.29"/>
  <line class="cls-1" x1="1126.99" y1="303.8" x2="1136.94" y2="317.06"/>
  <line class="cls-1" x1="1125.07" y1="304.43" x2="1134.83" y2="317.42"/>
  <g>
    <path class="cls-24" d="M1136.22,287.61l9.88-13.19s-10.03-1.32-13.5-6.21-4.21-5.13-4.21-5.13l-9.07,12.39s1.57,5.4,6.83,9.61,10.08,2.52,10.08,2.52Z"/>
    <line class="cls-1" x1="1144.41" y1="274.12" x2="1134.2" y2="287.93"/>
    <line class="cls-1" x1="1142.3" y1="273.63" x2="1131.84" y2="287.77"/>
    <line class="cls-1" x1="1139.57" y1="272.78" x2="1129.12" y2="286.93"/>
    <line class="cls-1" x1="1136.97" y1="271.66" x2="1126.71" y2="285.53"/>
    <line class="cls-1" x1="1134.06" y1="269.77" x2="1124.11" y2="283.23"/>
    <line class="cls-1" x1="1132.2" y1="267.64" x2="1122.28" y2="281.06"/>
    <line class="cls-1" x1="1130.66" y1="265.45" x2="1120.8" y2="278.78"/>
    <line class="cls-1" x1="1129.5" y1="263.79" x2="1119.84" y2="276.86"/>
  </g>
  <path class="cls-24" d="M1095.98,259.79l9.88-13.19s-10.03-1.32-13.5-6.21c-3.47-4.89-4.21-5.13-4.21-5.13l-9.07,12.39s1.57,5.4,6.83,9.61c5.25,4.22,10.08,2.52,10.08,2.52Z"/>
  <line class="cls-1" x1="1104.18" y1="246.3" x2="1093.97" y2="260.11"/>
  <line class="cls-1" x1="1102.06" y1="245.81" x2="1091.61" y2="259.95"/>
  <line class="cls-1" x1="1099.34" y1="244.96" x2="1088.89" y2="259.11"/>
  <line class="cls-1" x1="1096.73" y1="243.84" x2="1086.48" y2="257.71"/>
  <line class="cls-1" x1="1093.82" y1="241.95" x2="1083.88" y2="255.41"/>
  <line class="cls-1" x1="1091.97" y1="239.82" x2="1082.05" y2="253.24"/>
  <line class="cls-1" x1="1090.42" y1="237.63" x2="1080.57" y2="250.96"/>
  <line class="cls-1" x1="1089.27" y1="235.97" x2="1079.61" y2="249.04"/>
  <g>
    <path class="cls-24" d="M1052.46,278.22l12.01,11.29s2.43-9.82,7.68-12.72,5.57-3.62,5.57-3.62l-11.31-10.39s-5.54.96-10.31,5.71c-4.77,4.75-3.63,9.73-3.63,9.73Z"/>
    <line class="cls-1" x1="1064.96" y1="287.87" x2="1052.37" y2="276.18"/>
    <line class="cls-1" x1="1065.68" y1="285.82" x2="1052.79" y2="273.86"/>
    <line class="cls-1" x1="1066.83" y1="283.21" x2="1053.93" y2="271.25"/>
    <line class="cls-1" x1="1068.23" y1="280.74" x2="1055.59" y2="269.01"/>
    <line class="cls-1" x1="1070.43" y1="278.06" x2="1058.17" y2="266.68"/>
    <line class="cls-1" x1="1072.76" y1="276.46" x2="1060.52" y2="265.11"/>
    <line class="cls-1" x1="1075.11" y1="275.16" x2="1062.96" y2="263.89"/>
    <line class="cls-1" x1="1076.89" y1="274.2" x2="1064.97" y2="263.15"/>
  </g>
  <g>
    <path class="cls-24" d="M1104.12,246.76l12.01,11.29s2.43-9.82,7.68-12.72c5.25-2.9,5.57-3.62,5.57-3.62l-11.31-10.39s-5.54.96-10.31,5.71-3.63,9.73-3.63,9.73Z"/>
    <line class="cls-1" x1="1116.61" y1="256.4" x2="1104.03" y2="244.72"/>
    <line class="cls-1" x1="1117.33" y1="254.36" x2="1104.45" y2="242.39"/>
    <line class="cls-1" x1="1118.48" y1="251.74" x2="1105.58" y2="239.78"/>
    <line class="cls-1" x1="1119.89" y1="249.28" x2="1107.25" y2="237.55"/>
    <line class="cls-1" x1="1122.09" y1="246.6" x2="1109.82" y2="235.22"/>
    <line class="cls-1" x1="1124.41" y1="244.99" x2="1112.18" y2="233.64"/>
    <line class="cls-1" x1="1126.76" y1="243.7" x2="1114.61" y2="232.42"/>
    <line class="cls-1" x1="1128.54" y1="242.74" x2="1116.63" y2="231.68"/>
  </g>
  <path class="cls-24" d="M1099.82,274.79l12.01,11.29s2.43-9.82,7.68-12.72,5.57-3.62,5.57-3.62l-11.31-10.39s-5.54.96-10.31,5.71c-4.77,4.75-3.63,9.73-3.63,9.73Z"/>
  <line class="cls-1" x1="1112.31" y1="284.44" x2="1099.73" y2="272.75"/>
  <line class="cls-1" x1="1113.04" y1="282.39" x2="1100.15" y2="270.43"/>
  <line class="cls-1" x1="1114.19" y1="279.78" x2="1101.29" y2="267.82"/>
  <line class="cls-1" x1="1115.59" y1="277.31" x2="1102.95" y2="265.58"/>
  <line class="cls-1" x1="1117.79" y1="274.63" x2="1105.52" y2="263.25"/>
  <line class="cls-1" x1="1120.12" y1="273.03" x2="1107.88" y2="261.68"/>
  <line class="cls-1" x1="1122.47" y1="271.73" x2="1110.32" y2="260.46"/>
  <line class="cls-1" x1="1124.24" y1="270.77" x2="1112.33" y2="259.72"/>
  <path class="cls-25" d="M1071.56,288.08l12.01,11.29s2.43-9.82,7.68-12.72,5.57-3.62,5.57-3.62l-11.31-10.39s-5.54.96-10.31,5.71-3.63,9.73-3.63,9.73Z"/>
  <line class="cls-1" x1="1084.05" y1="297.73" x2="1071.47" y2="286.04"/>
  <line class="cls-1" x1="1084.78" y1="295.68" x2="1071.89" y2="283.72"/>
  <line class="cls-1" x1="1085.92" y1="293.07" x2="1073.02" y2="281.11"/>
  <line class="cls-1" x1="1087.33" y1="290.6" x2="1074.69" y2="278.87"/>
  <line class="cls-1" x1="1089.53" y1="287.92" x2="1077.26" y2="276.54"/>
  <line class="cls-1" x1="1091.85" y1="286.32" x2="1079.62" y2="274.97"/>
  <line class="cls-1" x1="1094.21" y1="285.02" x2="1082.05" y2="273.75"/>
  <line class="cls-1" x1="1095.98" y1="284.06" x2="1084.07" y2="273.01"/>
  <g>
    <path class="cls-24" d="M1112.67,313.5l-.95-16.45s-8.51,5.46-14.32,3.95c-5.81-1.5-6.53-1.2-6.53-1.2l1.06,15.32s4.68,3.11,11.42,2.95c6.73-.16,9.33-4.57,9.33-4.57Z"/>
    <line class="cls-1" x1="1110.24" y1="297.91" x2="1111.33" y2="315.05"/>
    <line class="cls-1" x1="1108.3" y1="298.9" x2="1109.43" y2="316.45"/>
    <line class="cls-1" x1="1105.67" y1="300.01" x2="1106.81" y2="317.56"/>
    <line class="cls-1" x1="1102.96" y1="300.83" x2="1104.06" y2="318.04"/>
    <line class="cls-1" x1="1099.52" y1="301.26" x2="1100.59" y2="317.96"/>
    <line class="cls-1" x1="1096.72" y1="300.83" x2="1097.8" y2="317.48"/>
    <line class="cls-1" x1="1094.13" y1="300.15" x2="1095.19" y2="316.69"/>
    <line class="cls-1" x1="1092.18" y1="299.62" x2="1093.22" y2="315.84"/>
  </g>
  <path class="cls-25" d="M1150.64,255.6l-.95-16.45s-8.51,5.46-14.32,3.95c-5.81-1.5-6.53-1.2-6.53-1.2l1.06,15.32s4.68,3.11,11.42,2.95,9.33-4.57,9.33-4.57Z"/>
  <line class="cls-1" x1="1148.2" y1="240" x2="1149.3" y2="257.14"/>
  <line class="cls-1" x1="1146.27" y1="240.99" x2="1147.4" y2="258.54"/>
  <line class="cls-1" x1="1143.64" y1="242.1" x2="1144.78" y2="259.65"/>
  <line class="cls-1" x1="1140.92" y1="242.92" x2="1142.03" y2="260.13"/>
  <line class="cls-1" x1="1137.48" y1="243.35" x2="1138.56" y2="260.05"/>
  <line class="cls-1" x1="1134.69" y1="242.92" x2="1135.76" y2="259.57"/>
  <line class="cls-1" x1="1132.09" y1="242.24" x2="1133.16" y2="258.79"/>
  <line class="cls-1" x1="1130.14" y1="241.71" x2="1131.19" y2="257.93"/>
  <path class="cls-25" d="M1177.27,243.24l-16.33,2.18s6.08,8.08,5.02,13.98-.71,6.6-.71,6.6l15.2-2.2s2.75-4.91,2.08-11.61c-.67-6.7-5.26-8.96-5.26-8.96Z"/>
  <line class="cls-1" x1="1161.9" y1="246.83" x2="1178.91" y2="244.45"/>
  <line class="cls-1" x1="1163.03" y1="248.69" x2="1180.44" y2="246.24"/>
  <line class="cls-1" x1="1164.33" y1="251.23" x2="1181.75" y2="248.77"/>
  <line class="cls-1" x1="1165.36" y1="253.87" x2="1182.43" y2="251.48"/>
  <line class="cls-1" x1="1166.04" y1="257.27" x2="1182.62" y2="254.94"/>
  <line class="cls-1" x1="1165.82" y1="260.09" x2="1182.35" y2="257.77"/>
  <line class="cls-1" x1="1165.34" y1="262.73" x2="1181.76" y2="260.42"/>
  <line class="cls-1" x1="1164.96" y1="264.71" x2="1181.06" y2="262.45"/>
  <g>
    <path class="cls-24" d="M1172.3,275.98l-6.76-15.03s-6,8.14-11.97,8.81-6.53,1.21-6.53,1.21l6.46,13.93s5.49,1.23,11.72-1.32c6.23-2.56,7.08-7.6,7.08-7.6Z"/>
    <line class="cls-1" x1="1164.46" y1="262.28" x2="1171.6" y2="277.9"/>
    <line class="cls-1" x1="1163" y1="263.89" x2="1170.32" y2="279.88"/>
    <line class="cls-1" x1="1160.94" y1="265.87" x2="1168.27" y2="281.86"/>
    <line class="cls-1" x1="1158.7" y1="267.61" x2="1165.88" y2="283.29"/>
    <line class="cls-1" x1="1155.64" y1="269.24" x2="1162.61" y2="284.45"/>
    <line class="cls-1" x1="1152.88" y1="269.83" x2="1159.83" y2="285"/>
    <line class="cls-1" x1="1150.21" y1="270.12" x2="1157.11" y2="285.2"/>
    <line class="cls-1" x1="1148.2" y1="270.33" x2="1154.97" y2="285.1"/>
  </g>
  <path class="cls-24" d="M1116.45,327.35l-6.76-15.03s-6,8.14-11.97,8.81-6.53,1.21-6.53,1.21l6.46,13.93s5.49,1.23,11.72-1.32c6.23-2.56,7.08-7.6,7.08-7.6Z"/>
  <line class="cls-1" x1="1108.61" y1="313.66" x2="1115.76" y2="329.27"/>
  <line class="cls-1" x1="1107.16" y1="315.27" x2="1114.48" y2="331.26"/>
  <line class="cls-1" x1="1105.1" y1="317.24" x2="1112.43" y2="333.24"/>
  <line class="cls-1" x1="1102.86" y1="318.98" x2="1110.03" y2="334.66"/>
  <line class="cls-1" x1="1099.79" y1="320.61" x2="1106.76" y2="335.83"/>
  <line class="cls-1" x1="1097.03" y1="321.21" x2="1103.98" y2="336.38"/>
  <line class="cls-1" x1="1094.37" y1="321.5" x2="1101.27" y2="336.57"/>
  <line class="cls-1" x1="1092.36" y1="321.7" x2="1099.12" y2="336.48"/>
  <g>
    <path class="cls-24" d="M1111.53,374.36l15.69-5.05s-7.42-6.87-7.42-12.87-.47-6.62-.47-6.62l-14.57,4.87s-1.84,5.32.01,11.79c1.85,6.48,6.76,7.88,6.76,7.88Z"/>
    <line class="cls-1" x1="1126.02" y1="368.09" x2="1109.7" y2="373.45"/>
    <line class="cls-1" x1="1124.58" y1="366.47" x2="1107.87" y2="371.96"/>
    <line class="cls-1" x1="1122.85" y1="364.2" x2="1106.14" y2="369.7"/>
    <line class="cls-1" x1="1121.37" y1="361.78" x2="1104.98" y2="367.17"/>
    <line class="cls-1" x1="1120.09" y1="358.55" x2="1104.19" y2="363.79"/>
    <line class="cls-1" x1="1119.8" y1="355.74" x2="1103.95" y2="360.96"/>
    <line class="cls-1" x1="1119.81" y1="353.06" x2="1104.06" y2="358.24"/>
    <line class="cls-1" x1="1119.83" y1="351.04" x2="1104.39" y2="356.12"/>
  </g>
  <g>
    <path class="cls-24" d="M1108.98,313.93l15.69-5.05s-7.42-6.87-7.42-12.87-.47-6.62-.47-6.62l-14.57,4.87s-1.84,5.32.01,11.79,6.76,7.88,6.76,7.88Z"/>
    <line class="cls-1" x1="1123.46" y1="307.66" x2="1107.15" y2="313.02"/>
    <line class="cls-1" x1="1122.02" y1="306.04" x2="1105.32" y2="311.53"/>
    <line class="cls-1" x1="1120.29" y1="303.77" x2="1103.59" y2="309.27"/>
    <line class="cls-1" x1="1118.82" y1="301.35" x2="1102.43" y2="306.74"/>
    <line class="cls-1" x1="1117.54" y1="298.12" x2="1101.64" y2="303.36"/>
    <line class="cls-1" x1="1117.25" y1="295.31" x2="1101.4" y2="300.53"/>
    <line class="cls-1" x1="1117.26" y1="292.63" x2="1101.51" y2="297.81"/>
    <line class="cls-1" x1="1117.28" y1="290.61" x2="1101.84" y2="295.69"/>
  </g>
  <path class="cls-24" d="M1131.44,331.25l15.69-5.05s-7.42-6.87-7.42-12.87c0-6-.47-6.62-.47-6.62l-14.57,4.87s-1.84,5.32.01,11.79,6.76,7.88,6.76,7.88Z"/>
  <line class="cls-1" x1="1145.92" y1="324.98" x2="1129.61" y2="330.35"/>
  <line class="cls-1" x1="1144.48" y1="323.36" x2="1127.78" y2="328.85"/>
  <line class="cls-1" x1="1142.75" y1="321.09" x2="1126.04" y2="326.6"/>
  <line class="cls-1" x1="1141.27" y1="318.67" x2="1124.89" y2="324.06"/>
  <line class="cls-1" x1="1139.99" y1="315.45" x2="1124.1" y2="320.68"/>
  <line class="cls-1" x1="1139.71" y1="312.64" x2="1123.86" y2="317.85"/>
  <line class="cls-1" x1="1139.72" y1="309.95" x2="1123.97" y2="315.13"/>
  <line class="cls-1" x1="1139.74" y1="307.93" x2="1124.3" y2="313.01"/>
  <path class="cls-25" d="M1129.4,362.41l15.69-5.05s-7.42-6.87-7.42-12.87c0-6-.47-6.62-.47-6.62l-14.57,4.87s-1.84,5.32.01,11.79,6.76,7.88,6.76,7.88Z"/>
  <line class="cls-1" x1="1143.88" y1="356.15" x2="1127.57" y2="361.51"/>
  <line class="cls-1" x1="1142.44" y1="354.52" x2="1125.74" y2="360.02"/>
  <line class="cls-1" x1="1140.71" y1="352.26" x2="1124" y2="357.76"/>
  <line class="cls-1" x1="1139.23" y1="349.83" x2="1122.85" y2="355.22"/>
  <line class="cls-1" x1="1137.95" y1="346.61" x2="1122.06" y2="351.84"/>
  <line class="cls-1" x1="1137.67" y1="343.8" x2="1121.82" y2="349.02"/>
  <line class="cls-1" x1="1137.68" y1="341.12" x2="1121.93" y2="346.3"/>
  <line class="cls-1" x1="1137.7" y1="339.1" x2="1122.26" y2="344.18"/>
  <g>
    <path class="cls-24" d="M1172,296.61l-14.86-7.12s.66,10.09-3.47,14.45-4.21,5.13-4.21,5.13l13.92,6.49s4.99-2.6,8.1-8.57.51-10.38.51-10.38Z"/>
    <line class="cls-1" x1="1157.17" y1="291.2" x2="1172.7" y2="298.53"/>
    <line class="cls-1" x1="1157.1" y1="293.37" x2="1173.01" y2="300.87"/>
    <line class="cls-1" x1="1156.8" y1="296.21" x2="1172.71" y2="303.7"/>
    <line class="cls-1" x1="1156.21" y1="298.98" x2="1171.8" y2="306.34"/>
    <line class="cls-1" x1="1154.92" y1="302.2" x2="1170.06" y2="309.34"/>
    <line class="cls-1" x1="1153.19" y1="304.44" x2="1168.28" y2="311.55"/>
    <line class="cls-1" x1="1151.34" y1="306.38" x2="1166.33" y2="313.45"/>
    <line class="cls-1" x1="1149.94" y1="307.83" x2="1164.64" y2="314.77"/>
  </g>
  <path class="cls-25" d="M1139.22,277.49l-14.86-7.12s.66,10.09-3.47,14.45c-4.12,4.36-4.21,5.13-4.21,5.13l13.92,6.49s4.99-2.6,8.1-8.57c3.11-5.97.51-10.38.51-10.38Z"/>
  <line class="cls-1" x1="1124.4" y1="272.08" x2="1139.93" y2="279.41"/>
  <line class="cls-1" x1="1124.33" y1="274.25" x2="1140.23" y2="281.75"/>
  <line class="cls-1" x1="1124.02" y1="277.09" x2="1139.94" y2="284.58"/>
  <line class="cls-1" x1="1123.43" y1="279.86" x2="1139.03" y2="287.22"/>
  <line class="cls-1" x1="1122.14" y1="283.08" x2="1137.28" y2="290.22"/>
  <line class="cls-1" x1="1120.41" y1="285.32" x2="1135.51" y2="292.43"/>
  <line class="cls-1" x1="1118.56" y1="287.26" x2="1133.56" y2="294.33"/>
  <line class="cls-1" x1="1117.16" y1="288.71" x2="1131.86" y2="295.64"/>
  <path class="cls-25" d="M1041.6,298.22l15.01-6.8s-8.15-5.98-8.84-11.94-1.22-6.52-1.22-6.52l-13.92,6.49s-1.22,5.49,1.35,11.71,7.62,7.06,7.62,7.06Z"/>
  <line class="cls-1" x1="1055.27" y1="290.34" x2="1039.67" y2="297.53"/>
  <line class="cls-1" x1="1053.66" y1="288.9" x2="1037.69" y2="296.25"/>
  <line class="cls-1" x1="1051.68" y1="286.84" x2="1035.7" y2="294.21"/>
  <line class="cls-1" x1="1049.93" y1="284.6" x2="1034.27" y2="291.82"/>
  <line class="cls-1" x1="1048.3" y1="281.54" x2="1033.1" y2="288.55"/>
  <line class="cls-1" x1="1047.7" y1="278.78" x2="1032.54" y2="285.77"/>
  <line class="cls-1" x1="1047.4" y1="276.12" x2="1032.34" y2="283.05"/>
  <line class="cls-1" x1="1047.19" y1="274.11" x2="1032.43" y2="280.91"/>
  <g>
    <path class="cls-24" d="M1079.15,343.53l10.81,12.44s3.4-9.52,8.92-11.88c5.52-2.36,5.9-3.04,5.9-3.04l-10.2-11.48s-5.61.4-10.84,4.64c-5.23,4.24-4.59,9.32-4.59,9.32Z"/>
    <line class="cls-1" x1="1090.61" y1="354.38" x2="1079.26" y2="341.49"/>
    <line class="cls-1" x1="1091.53" y1="352.42" x2="1079.92" y2="339.22"/>
    <line class="cls-1" x1="1092.94" y1="349.94" x2="1081.31" y2="336.73"/>
    <line class="cls-1" x1="1094.58" y1="347.62" x2="1083.19" y2="334.68"/>
    <line class="cls-1" x1="1097.05" y1="345.18" x2="1085.99" y2="332.62"/>
    <line class="cls-1" x1="1099.52" y1="343.82" x2="1088.49" y2="331.29"/>
    <line class="cls-1" x1="1101.99" y1="342.77" x2="1091.04" y2="330.32"/>
    <line class="cls-1" x1="1103.85" y1="341.99" x2="1093.12" y2="329.79"/>
  </g>
  <path class="cls-24" d="M1114.83,310.07l10.81,12.44s3.4-9.52,8.92-11.88c5.52-2.36,5.9-3.04,5.9-3.04l-10.2-11.48s-5.61.4-10.84,4.64c-5.23,4.24-4.59,9.32-4.59,9.32Z"/>
  <line class="cls-1" x1="1126.29" y1="320.92" x2="1114.95" y2="308.03"/>
  <line class="cls-1" x1="1127.21" y1="318.96" x2="1115.6" y2="305.76"/>
  <line class="cls-1" x1="1128.62" y1="316.48" x2="1116.99" y2="303.28"/>
  <line class="cls-1" x1="1130.27" y1="314.17" x2="1118.87" y2="301.22"/>
  <line class="cls-1" x1="1132.73" y1="311.72" x2="1121.67" y2="299.16"/>
  <line class="cls-1" x1="1135.2" y1="310.36" x2="1124.17" y2="297.83"/>
  <line class="cls-1" x1="1137.67" y1="309.31" x2="1126.72" y2="296.86"/>
  <line class="cls-1" x1="1139.54" y1="308.53" x2="1128.8" y2="296.33"/>
  <g>
    <path class="cls-24" d="M1106,263.64l-13.57,9.36s9.09,4.44,10.82,10.19c1.73,5.74,2.36,6.2,2.36,6.2l12.55-8.86s.23-5.62-3.41-11.29-8.75-5.6-8.75-5.6Z"/>
    <line class="cls-1" x1="1093.94" y1="273.82" x2="1108.01" y2="263.98"/>
    <line class="cls-1" x1="1095.78" y1="274.96" x2="1110.19" y2="264.88"/>
    <line class="cls-1" x1="1098.09" y1="276.63" x2="1112.51" y2="266.54"/>
    <line class="cls-1" x1="1100.21" y1="278.52" x2="1114.34" y2="268.64"/>
    <line class="cls-1" x1="1102.36" y1="281.24" x2="1116.08" y2="271.65"/>
    <line class="cls-1" x1="1103.44" y1="283.85" x2="1117.12" y2="274.29"/>
    <line class="cls-1" x1="1104.21" y1="286.42" x2="1117.8" y2="276.92"/>
    <line class="cls-1" x1="1104.77" y1="288.36" x2="1118.09" y2="279.05"/>
  </g>
  <g>
    <path class="cls-24" d="M1155.48,314.75l-13.57,9.36s9.09,4.44,10.82,10.19,2.36,6.2,2.36,6.2l12.55-8.86s.23-5.62-3.41-11.29-8.75-5.6-8.75-5.6Z"/>
    <line class="cls-1" x1="1143.42" y1="324.93" x2="1157.49" y2="315.09"/>
    <line class="cls-1" x1="1145.26" y1="326.07" x2="1159.67" y2="315.99"/>
    <line class="cls-1" x1="1147.57" y1="327.74" x2="1161.99" y2="317.66"/>
    <line class="cls-1" x1="1149.69" y1="329.64" x2="1163.82" y2="319.75"/>
    <line class="cls-1" x1="1151.84" y1="332.35" x2="1165.56" y2="322.76"/>
    <line class="cls-1" x1="1152.92" y1="334.96" x2="1166.6" y2="325.4"/>
    <line class="cls-1" x1="1153.69" y1="337.54" x2="1167.28" y2="328.04"/>
    <line class="cls-1" x1="1154.25" y1="339.47" x2="1167.57" y2="330.16"/>
  </g>
  <path class="cls-24" d="M1099.36,310.66l-13.57,9.36s9.09,4.44,10.82,10.19,2.36,6.2,2.36,6.2l12.55-8.86s.23-5.62-3.41-11.29c-3.64-5.67-8.75-5.6-8.75-5.6Z"/>
  <line class="cls-1" x1="1087.3" y1="320.83" x2="1101.37" y2="311"/>
  <line class="cls-1" x1="1089.14" y1="321.97" x2="1103.55" y2="311.9"/>
  <line class="cls-1" x1="1091.45" y1="323.65" x2="1105.87" y2="313.56"/>
  <line class="cls-1" x1="1093.57" y1="325.54" x2="1107.7" y2="315.66"/>
  <line class="cls-1" x1="1095.72" y1="328.26" x2="1109.44" y2="318.67"/>
  <line class="cls-1" x1="1096.8" y1="330.87" x2="1110.48" y2="321.3"/>
  <line class="cls-1" x1="1097.57" y1="333.44" x2="1111.16" y2="323.94"/>
  <line class="cls-1" x1="1098.13" y1="335.38" x2="1111.45" y2="326.06"/>
  <path class="cls-25" d="M1092.33,280.23l-13.57,9.36s9.09,4.44,10.82,10.19c1.73,5.74,2.36,6.2,2.36,6.2l12.55-8.86s.23-5.62-3.41-11.29c-3.64-5.67-8.75-5.6-8.75-5.6Z"/>
  <line class="cls-1" x1="1080.27" y1="290.4" x2="1094.34" y2="280.57"/>
  <line class="cls-1" x1="1082.11" y1="291.54" x2="1096.53" y2="281.47"/>
  <line class="cls-1" x1="1084.43" y1="293.22" x2="1098.84" y2="283.13"/>
  <line class="cls-1" x1="1086.54" y1="295.11" x2="1100.67" y2="285.23"/>
  <line class="cls-1" x1="1088.69" y1="297.83" x2="1102.41" y2="288.24"/>
  <line class="cls-1" x1="1089.78" y1="300.44" x2="1103.45" y2="290.87"/>
  <line class="cls-1" x1="1090.54" y1="303.01" x2="1104.13" y2="293.51"/>
  <line class="cls-1" x1="1091.11" y1="304.95" x2="1104.43" y2="295.63"/>
  <g>
    <path class="cls-24" d="M1058.81,315.05l16.28,2.54s-3.54-9.47-.84-14.83,2.55-6.13,2.55-6.13l-15.2-2.2s-4.03,3.92-5.29,10.54,2.5,10.08,2.5,10.08Z"/>
    <line class="cls-1" x1="1074.56" y1="315.96" x2="1057.58" y2="313.42"/>
    <line class="cls-1" x1="1074.01" y1="313.86" x2="1056.62" y2="311.26"/>
    <line class="cls-1" x1="1073.48" y1="311.06" x2="1056.08" y2="308.46"/>
    <line class="cls-1" x1="1073.25" y1="308.23" x2="1056.19" y2="305.68"/>
    <line class="cls-1" x1="1073.55" y1="304.77" x2="1057" y2="302.3"/>
    <line class="cls-1" x1="1074.56" y1="302.13" x2="1058.06" y2="299.67"/>
    <line class="cls-1" x1="1075.78" y1="299.74" x2="1059.38" y2="297.29"/>
    <line class="cls-1" x1="1076.7" y1="297.95" x2="1060.63" y2="295.54"/>
  </g>
  <path class="cls-25" d="M1107.4,364.38l16.28,2.54s-3.54-9.47-.84-14.83,2.55-6.13,2.55-6.13l-15.2-2.2s-4.03,3.92-5.29,10.54c-1.26,6.62,2.5,10.08,2.5,10.08Z"/>
  <line class="cls-1" x1="1123.16" y1="365.29" x2="1106.17" y2="362.74"/>
  <line class="cls-1" x1="1122.6" y1="363.19" x2="1105.21" y2="360.59"/>
  <line class="cls-1" x1="1122.07" y1="360.38" x2="1104.67" y2="357.79"/>
  <line class="cls-1" x1="1121.84" y1="357.56" x2="1104.79" y2="355.01"/>
  <line class="cls-1" x1="1122.15" y1="354.1" x2="1105.6" y2="351.63"/>
  <line class="cls-1" x1="1123.16" y1="351.46" x2="1106.65" y2="349"/>
  <line class="cls-1" x1="1124.37" y1="349.07" x2="1107.97" y2="346.62"/>
  <line class="cls-1" x1="1125.29" y1="347.27" x2="1109.22" y2="344.87"/>
  <path class="cls-19" d="M1200.85,424.01h71.76v104h-71.76c-18.33,0-33.21-14.88-33.21-33.21v-37.59c0-18.33,14.88-33.21,33.21-33.21Z" transform="translate(-89.34 500.56) rotate(-22.39)"/>
  <path class="cls-19" d="M1260.97,709.16h46.28v78.75h-46.28c-18.33,0-33.21-14.88-33.21-33.21v-12.34c0-18.33,14.88-33.21,33.21-33.21Z" transform="translate(51.06 -80.4) rotate(3.71)"/>
  <path class="cls-19" d="M1216.16,729.54h34.71v32.11h-34.71c-8.86,0-16.06-7.19-16.06-16.06h0c0-8.86,7.19-16.06,16.06-16.06Z" transform="translate(50.78 -77.69) rotate(3.71)"/>
  <path class="cls-13" d="M1248.85,407.94s138.22-74.86,239.39-139.02,299.81-135.72,298.58,66.62-72.79,217.15-169.03,177.67-329.33-9.11-329.33-9.11l-39.61-96.16Z"/>
  <path class="cls-6" d="M1669.21,507.79s45.74-69.22,40.79-164.41c-4.94-95.18-61.81-117.43-61.81-117.43,0,0-48.21,51.92-32.14,129.8,16.07,77.88,53.15,152.05,53.15,152.05Z"/>
  <path class="cls-8" d="M1688.77,490.21s24.01-60.15,21.41-142.85-32.44-102.03-32.44-102.03c0,0-25.3,45.11-16.87,112.77s27.9,132.11,27.9,132.11Z"/>
  <ellipse class="cls-23" cx="1232.36" cy="468.41" rx="12.01" ry="24.26" transform="translate(-85.75 441.67) rotate(-19.65)"/>
  <line class="cls-2" x1="1214.36" y1="422.58" x2="1251.35" y2="517.7"/>
  <path class="cls-18" d="M1543.8,517.33h0c61.16,0,110.82,49.66,110.82,110.82v326.65c0,34.83-28.28,63.11-63.11,63.11h-95.42c-34.83,0-63.11-28.28-63.11-63.11v-326.65c0-61.16,49.66-110.82,110.82-110.82Z" transform="translate(677.96 2258.55) rotate(-86.29)"/>
  <path class="cls-19" d="M1201.38,752.49l1.07-16.57s-43.18-1.26-43.42,6.4c-.22,7.41,42.34,10.17,42.34,10.17Z"/>
  <path class="cls-3" d="M1463.43,653.06s36.72,61.2,36.72,110.16-48.96,108.8-48.96,108.8l218.96,13.6s35.36-73.44,34-131.92-34-89.76-34-89.76l-206.72-10.88Z"/>
  <path class="cls-17" d="M1049.4,924c.62-4.95,3.59-9.3,7.93-11.75,5.75-3.24,15.23-9.26,23.01-17.36,8.32-8.67,15.67-18.59,19.43-23.92,2.38-3.37,5.97-5.71,10.03-6.47,4.16-.77,9.68-.72,15.49,2.34,10.1,5.32,83.92,80.12,107.55,104.19,4.6,4.68,5.85,11.7,3.17,17.69-4.47,9.99-12.71,25.38-25.25,37.44-11.87,11.42-26.08,19.05-35.83,23.42-6.3,2.82-13.68,1.29-18.33-3.8-21.72-23.79-88.81-90.71-99.61-101.05-7.34-7.04-8.32-14.87-7.59-20.73Z"/>
  <ellipse class="cls-17" cx="1065.86" cy="878.52" rx="35.31" ry="8.33" transform="translate(-311.32 984.45) rotate(-43.9)"/>
  <path class="cls-14" d="M1039.17,901.71s10.07,4.16,31.67-18.02c21.6-22.17,19.22-30.95,19.22-30.95l13.61,14.01s-8.89,16.13-20.49,27.29c-11.6,11.16-30.87,21.67-30.87,21.67l-13.15-14.01Z"/>
  <path class="cls-14" d="M1074.99,962.92s22.65.77,48.08-23.71c25.43-24.47,25.31-52.06,25.31-52.06l51.57,50.92s-8.76,28.41-28.16,46.42c-19.4,18.02-47.51,28.31-47.51,28.31l-49.29-49.89Z"/>
  <path class="cls-12" d="M1130.21,941.83c-10.05,9.67-10.21,25.79-.38,36.01,9.84,10.23,25.95,10.68,36,1.01,10.05-9.67,10.21-25.79.38-36.01-9.83-10.22-25.95-10.67-35.99-1.01ZM1154.28,966.25c-3.29,3.16-8.56,3.02-11.78-.33s-3.16-8.62.13-11.78c3.29-3.16,8.55-3.01,11.77.33s3.17,8.61-.12,11.77Z"/>
  <circle cx="1134.58" cy="954.68" r=".47"/>
  <circle cx="1161.22" cy="976.31" r=".47"/>
  <circle cx="1134.77" cy="967.31" r=".47"/>
  <circle cx="1147.92" cy="944.09" r=".47"/>
  <circle cx="1164.34" cy="957.84" r=".47"/>
  <circle cx="1169.69" cy="963.46" r=".47"/>
  <circle cx="1148.6" cy="979.52" r=".47"/>
  <circle cx="1143.48" cy="971.53" r=".47"/>
  <circle cx="1135.05" cy="979.56" r=".47"/>
  <path class="cls-17" d="M1156.06,945.7s1.74,2.93,2.72,1.98-2.72-1.98-2.72-1.98Z"/>
  <path class="cls-17" d="M1138.93,979.87s2.79-1.95,1.77-2.86-1.77,2.86-1.77,2.86Z"/>
  <path class="cls-17" d="M1167.29,949.26s-3.22-1.1-3.36.26,3.36-.26,3.36-.26Z"/>
  <path class="cls-17" d="M1131.12,963.86s-2.73,2.04-1.69,2.92,1.69-2.92,1.69-2.92Z"/>
  <path class="cls-17" d="M1155.78,980.09s1.49-3.07.15-3.36-.15,3.36-.15,3.36Z"/>
  <path class="cls-17" d="M1141.9,952.29s1.49-3.07.15-3.36-.15,3.36-.15,3.36Z"/>
  <path class="cls-17" d="M1129.59,946s2.93,1.74,3.34.44-3.34-.44-3.34-.44Z"/>
  <path class="cls-15" d="M1143.69,941.58s.76.01.78-.75l.57.68s.11.25-.14.48-.76.3-.76.3l-.45-.71Z"/>
  <path class="cls-15" d="M1127.94,952.89s.76.01.78-.75l.57.68s.11.25-.14.48-.76.3-.76.3l-.45-.71Z"/>
  <path class="cls-15" d="M1157.81,940.96s-.53.55.02,1.08l-.89-.05s-.25-.09-.26-.43.3-.76.3-.76l.83.16Z"/>
  <path class="cls-15" d="M1147.21,970s-.53.55.02,1.08l-.89-.05s-.25-.09-.26-.43.3-.76.3-.76l.83.16Z"/>
  <path class="cls-15" d="M1167.41,972.37s-.53.55.02,1.08l-.89-.05s-.25-.09-.26-.43.3-.76.3-.76l.83.16Z"/>
  <path class="cls-15" d="M1134.13,974.65s.24-.72-.48-.96l.82-.34s.27-.03.42.28.06.81.06.81l-.81.21Z"/>
  <ellipse cx="1056.78" cy="890.55" rx="5.51" ry="1.58" transform="translate(-322.2 981.52) rotate(-43.9)"/>
  <ellipse cx="1078.05" cy="869.39" rx="5.51" ry="1.58" transform="translate(-301.58 990.35) rotate(-43.9)"/>
  <ellipse cx="1064.52" cy="876.59" rx="5.51" ry="1.58" transform="translate(-310.36 982.98) rotate(-43.9)"/>
  <ellipse cx="1072.75" cy="865.12" rx="5.51" ry="1.58" transform="translate(-300.11 985.48) rotate(-43.9)"/>
  <ellipse cx="1052.39" cy="884.77" rx="5.51" ry="1.58" transform="translate(-319.42 976.86) rotate(-43.9)"/>
  <line class="cls-4" x1="444.02" y1="203.59" x2="521.66" y2="251.27"/>
  <line class="cls-4" x1="430.57" y1="216.43" x2="521.75" y2="275.49"/>
  <line class="cls-4" x1="423.85" y1="234.16" x2="521.66" y2="293.46"/>
  <line class="cls-4" x1="419.57" y1="251.27" x2="528.39" y2="315.46"/>
  <line class="cls-4" x1="415.29" y1="267.78" x2="533.89" y2="335.03"/>
  <line class="cls-4" x1="398.17" y1="309.35" x2="527.5" y2="383.25"/>
  <line class="cls-4" x1="406.73" y1="287.95" x2="533.27" y2="358.87"/>
  <line class="cls-4" x1="391.45" y1="329.53" x2="515.98" y2="399.21"/>
  <line class="cls-4" x1="390.84" y1="360.7" x2="482.73" y2="415.17"/>
</svg>