<?xml version="1.0" encoding="UTF-8"?>
<svg id="Layer_1" data-name="Layer 1" xmlns="http://www.w3.org/2000/svg" viewBox="0 0 45.54 36.07">
  <defs>
    <style>
      .cls-1 {
        fill: #ffad17;
      }
    </style>
  </defs>
  <path class="cls-1" d="M0,21.85C0,14.02,1.38,0,12.28,0c3.38,0,8.39,1.69,8.39,10.34v.05c0,.46-.31.77-.77.77h-4.91c-.46,0-.77-.31-.77-.77,0-3.68-.46-4.91-1.79-4.91-1.89,0-3.53,2.66-3.53,6.65,0,3.43,1.02,4.91,2.92,4.91,1.02,0,2.15-.41,2.15-2.41v-.05c0-.46.31-.77.77-.77h5.32c.46,0,.77.31.77.77v20.72c0,.46-.41.77-1.18.77h-5.83c-7.98,0-13.82-1.07-13.82-14.23Z"/>
  <path class="cls-1" d="M23.9,35.31V1.02c0-.46.31-.77.77-.77h7.37c.41,0,.72.15.87.61l4.86,13.41c.1.31.31.46.46.46.21,0,.41-.2.41-.61V1.02c0-.46.31-.77.77-.77h5.37c.46,0,.77.31.77.77v34.28c0,.46-.31.77-.77.77h-7.37c-.41,0-.72-.15-.87-.61l-4.86-14.69c-.1-.31-.31-.46-.46-.46-.2,0-.41.2-.41.56v14.43c0,.46-.31.77-.77.77h-5.37c-.46,0-.77-.31-.77-.77Z"/>
</svg>