<?xml version="1.0" encoding="UTF-8"?>
<svg id="Cook_Image" xmlns="http://www.w3.org/2000/svg" xmlns:xlink="http://www.w3.org/1999/xlink" version="1.1" viewBox="0 0 781.2 1167.4">
  <!-- Generator: Adobe Illustrator 29.7.1, SVG Export Plug-In . SVG Version: 2.1.1 Build 8)  -->
  <defs>
    <style>
      .st0 {
        isolation: isolate;
      }

      .st1 {
        fill: #1f4d50;
      }
    </style>
  </defs>
  <path class="st1" d="M256.6,160.5c40.7-16.9,133.6-21.2,150.8-20.1,131.6,8.5,268,85.4,265.3,283.4-2.8,211.2-118.2,267.5-78.8,278.7s140.5,124.3,116.2,181.7-135.5,125.1-198.1,102.5-22.6,114.7-116.4,114.7-104.2-60.8-114.7-165.1,33-137.3-19.1-187.6-203.3-86.9-191.1-297.1c10-173,115.7-261.8,185.9-291Z"/>
  <image id="Cook_Image-2" class="st0" width="3253" height="4862" transform="translate(109.9 182.5) scale(.2)" xlink:href="Cook-1.png"/>
  <path class="st1" d="M-1006.1,820.6s-60,18.7-99.3,58.1c-39.3,39.3-89.9,133-13.1,155.5,76.8,22.5,127.4,101.2,176.1,56.2,48.7-45,134.9,99.3,260.4,84.3,125.5-15,116.2-41.2,116.2-41.2,0,0,52.2,96.3,113.6,85.3s56.8-53.1,56.8-53.1c0,0,126.4,63.2,153.9,56.8,27.5-6.4,74.2-55.9,74.2-82.4s-76-46.7-55-69.6c21.1-22.9,165.8,47.6,165.8-33s26.6-178.6-60.5-179.5,80.6-145.2-4.6-227.2-140.1-81.1-221.7-34.3c-81.5,46.7-58.6,99.8-84.3,98-25.6-1.8-37.6-69.6-92.5-62.3s-48.5-17.4-81.5-34.8c-33-17.4-77.9-10.1-95.3-20.2s-73.3-17.4-102.6,20.2c-29.3,37.6-56.8,25.6-55.9,51.3.9,25.6-76-27.5-125.5,4.6-49.5,32.1-25.3,167.4-25.3,167.4Z"/>
</svg>