<?xml version="1.0" encoding="UTF-8"?>
<svg id="rice_bowl_Image" xmlns="http://www.w3.org/2000/svg" xmlns:xlink="http://www.w3.org/1999/xlink" version="1.1" viewBox="0 0 1920 1080">
  <!-- Generator: Adobe Illustrator 29.7.1, SVG Export Plug-In . SVG Version: 2.1.1 Build 8)  -->
  <defs>
    <style>
      .st0, .st1, .st2, .st3, .st4, .st5, .st6, .st7, .st8, .st9 {
        fill: none;
      }

      .st10 {
        fill: #babbb7;
      }

      .st11 {
        fill: #481f00;
        opacity: .8;
      }

      .st11, .st12, .st13 {
        isolation: isolate;
      }

      .st14 {
        fill: #ced2d5;
      }

      .st15 {
        fill: #d0ac64;
      }

      .st16 {
        fill: #3d7300;
      }

      .st17 {
        fill: #e1d0af;
      }

      .st1 {
        stroke-width: 11.8px;
      }

      .st1, .st2, .st3, .st4, .st5, .st6 {
        stroke: #f9f1af;
        stroke-linecap: round;
      }

      .st1, .st2, .st3, .st4, .st5, .st6, .st7, .st8, .st9 {
        stroke-miterlimit: 10;
      }

      .st2 {
        stroke-width: 12.4px;
      }

      .st18 {
        clip-path: url(#clippath-1);
      }

      .st19 {
        clip-path: url(#clippath-2);
      }

      .st3 {
        stroke-width: 12.9px;
      }

      .st4 {
        stroke-width: 13.2px;
      }

      .st5 {
        stroke-width: 13px;
      }

      .st6 {
        stroke-width: 13.9px;
      }

      .st7 {
        stroke-width: .2px;
      }

      .st7, .st8, .st9 {
        stroke: #0c490c;
      }

      .st20 {
        fill: #305a61;
      }

      .st8 {
        stroke-width: .3px;
      }

      .st9 {
        stroke-width: .5px;
      }

      .st13 {
        fill: #ced2c6;
        opacity: .5;
      }

      .st21 {
        clip-path: url(#clippath);
      }
    </style>
    <clipPath id="clippath">
      <rect class="st0" x="386.3" y="253.6" width="1041.4" height="746.7"/>
    </clipPath>
    <clipPath id="clippath-1">
      <rect class="st0" x="386.3" y="253.6" width="1041.4" height="746.7"/>
    </clipPath>
    <clipPath id="clippath-2">
      <rect class="st0" x="386.3" y="253.6" width="1041.4" height="746.7"/>
    </clipPath>
  </defs>
  <path class="st20" d="M592.7,315.3c20.6,34.7-14.5,54.9-54.5,60-90.3,11.5-250.1,69.8-225.3,171.2,33.4,136.7,129,457.6,262.4,470.9s548.3,11.4,591.7-5.3-12.1,28.4,54.6,31.7,430.2,16.7,463.6,0-90.1-346.9-83.4-383.6-57.8-111.5-129.6-70.4,0-88.9-30.8-131.1-225.4-4.8-251.9-58.1c-37.7-75.7,6.5-116.9,31.9-155,18.8-28.2-22.8-196.1-223.4-160.7-200.6,35.3-248.5-76.4-339.7-38.8s-139.9,151.2-107.4,208.7,24.4,31.2,41.8,60.4Z"/>
  <g>
    <polygon class="st17" points="1303.4 667.9 1227.4 1004.7 1646.8 999.4 1536.5 662.4 1303.4 667.9"/>
    <path class="st15" d="M1451.2,981.7s1.9,5.9,14.7,5.4c12.8-.4,16.9-7.8,16.9-7.8l-22.3-336s-4.4-5.1-11.2-2.9l-6.8,2.2,8.8,339.1h-.1Z"/>
    <path class="st14" d="M1516.1,979.2s1.9,5.9,14.7,5.4c12.8-.4,16.9-7.8,16.9-7.8l-22.3-336s-4.4-5.1-11.2-2.9l-6.8,2.2,8.8,339.1h-.1Z"/>
    <path class="st15" d="M1401.3,980.5s1.5,6,14.4,6.5c12.8.4,17.3-6.6,17.3-6.6l.6-336.8s-4.1-5.4-11-3.7l-6.9,1.8-14.4,339h0Z"/>
    <ellipse class="st14" cx="1517.6" cy="636.7" rx="48.5" ry="31.8"/>
    <ellipse class="st10" cx="1516.4" cy="648.6" rx="24.8" ry="16.2"/>
  </g>
  <path class="st20" d="M-112.5-737.1c-2.8,13.9-3.5,29-2.1,43.6,5.3,55.5,24.7,234.7,58.9,283.6,40.5,58.1,279,72.2,320.4-8.5,41.4-80.7,53.8-320.1,29.5-362.1-24.3-41.9-61.4-5.8-54.2-59,7.2-53.2,10.2-79.7-80.8-94.3-91-14.5-129.2,11.1-118.4,74.1,10.8,62.9-100.2,43.2-127.2,67.4-14.8,13.3-22.3,36.7-26.1,55.2h0Z"/>
  <path class="st15" d="M930.1-281.1l-5.3,1.3"/>
  <g>
    <path class="st17" d="M1327.7,518.5s20.5-14.1,5.8-17.4c-14.7-3.3-5.8,17.4-5.8,17.4Z"/>
    <g class="st21">
      <g class="st18">
        <g>
          <g class="st19">
            <image class="st12" width="4232" height="3027" transform="translate(391.7 255.3) scale(.2)" xlink:href="MAINRICEBOWL-1.png"/>
          </g>
          <g>
            <path class="st2" d="M549.8,542.2s20.5-31.7,47.3-45.6c26.7-13.8,55.3-22.2,55.3-22.2"/>
            <path class="st2" d="M712.3,478.2s-42.4,36-39.6,59.1c2.8,23.1,13.5,21.8,13.5,21.8"/>
            <path class="st1" d="M756,487.9s28.1-8.1,46.7,30.5c18.5,38.6,36.7,52.2,36.7,52.2"/>
            <path class="st2" d="M1078.6,559.7s41.7-6.6,50.2-20.4c10.6-17.3,3.3-42,3.3-42"/>
            <path class="st5" d="M1169,545.5s52.6,1.2,64-11.3c14.4-15.7,11.8-42.4,11.8-42.4"/>
          </g>
        </g>
      </g>
    </g>
    <path class="st3" d="M512.2,532.3s22.9-26,50.7-40.5c27.8-14.5,57.5-23,57.5-23"/>
    <path class="st11" d="M1273.4,555.1l41.9-7.2s-1-53.9-36.5-53.9-31.7-15.5-55.8-13.5c-24.1,2-29.8,2.8-29.8,2.8,0,0-17.8,21.2,27.3,19.3,45.2-1.9,63,6.8,59.1,23.1-3.9,16.3-6.3,29.4-6.3,29.4h.1Z"/>
    <path class="st11" d="M1277.3,554.5l41.9-7.2s-1-53.9-36.5-53.9-31.7-15.5-55.8-13.5c-24.1,2-29.8,2.8-29.8,2.8,0,0-17.8,21.2,27.3,19.3,45.2-1.9,63,6.8,59.1,23.1-3.9,16.3-6.3,29.4-6.3,29.4h.1Z"/>
    <path class="st11" d="M1159.3,558.4l47.4-5.6s-9.7-40.8-40.1-39.1c-30.4,1.6-32.5-8.5-44.7-19.9-12.3-11.4-17.5-5.7-17.5-5.7,0,0,27.9,24.4-70.5,37.7,0,0,37.2-4.7,28.2,12.4-9,17.1,9.6,28.3,9.6,28.3,0,0,18.2-.8,31.1-2,12.9-1.2,56.5-5.9,56.5-5.9h0c0-.1,0-.1,0-.1Z"/>
    <path class="st11" d="M502.7,537.3l-20.9-6.6s18.7-24.7,49.2-22.3c30.5,2.4,32.7-7.8,45.2-18.9,12.4-11.1,53.4-27.5,53.4-27.5,0,0,76.2-9.8,69.2,30.4-2.7,15.1-15.6,26.1-30.9,27.3-15.2,1.2-13.1,10.5-7.7,21.5,8.6,17.3,20.8,27.7,20.8,27.7,0,0-60.9-8.6-73.9-10.1s-52.8-10.4-52.8-10.4l-14.8-3.4-18.6-3.8-18.2-4h0Z"/>
    <path class="st11" d="M1171.8,557l37.3-4.8s-15.6-29.1-46.2-27.5c-30.5,1.6-15-5.1-27.2-16.5-12.3-11.4-19-11.5-19-11.5,0,0-6.1,20.2-64.2,27.1,0,0,30.9-4.2,21.9,12.9-9,17.1,9.6,28.3,9.6,28.3,0,0,18.2-.8,31.1-2,12.9-1.2,56.5-5.9,56.5-5.9h.1c0-.1,0,0,0,0h0Z"/>
    <path class="st4" d="M1083.8,559s41-8.5,50.1-23.3c9.1-14.8-14.2-34.3-14.2-34.3"/>
    <path class="st6" d="M1251.4,534.6s24.7-6.5,36.9-19.9c15.4-16.8,5.4-19,5.4-19"/>
    <g>
      <path class="st16" d="M703.3,487.2s5.9,2.5,15.9-.6c10.3-3.2,14.1-8.6,14.1-8.6l8.6,23.3s1.2,3.8-13.1,9.1c-14.1,5.1-16.9.3-16.9.3l-8.8-23.4h.1q0-.1,0-.1Z"/>
      <line class="st9" x1="729.8" y1="509.3" x2="721.2" y2="485.9"/>
      <line class="st9" x1="727.6" y1="510.3" x2="718.9" y2="486.7"/>
      <line class="st9" x1="724.9" y1="511.2" x2="716.3" y2="487.4"/>
      <line class="st9" x1="722.3" y1="512" x2="713.7" y2="487.9"/>
      <line class="st9" x1="710.8" y1="488.1" x2="719.6" y2="512.4"/>
      <line class="st9" x1="708" y1="487.9" x2="716.7" y2="512.2"/>
      <line class="st9" x1="705.3" y1="487.6" x2="714" y2="512"/>
      <line class="st9" x1="733.9" y1="507.9" x2="725.3" y2="484.1"/>
      <line class="st9" x1="731.9" y1="508.9" x2="723.3" y2="485.1"/>
      <line class="st9" x1="736.5" y1="506.7" x2="727.8" y2="482.7"/>
      <line class="st9" x1="738.9" y1="504.9" x2="730.3" y2="481"/>
      <line class="st9" x1="741" y1="502.9" x2="732.4" y2="479"/>
    </g>
    <g>
      <path class="st16" d="M800.1,550.1s.4,4.5,5.8,9.5c5.4,5,10.1,5.7,10.1,5.7l-11.3,13.3s-2,2.1-10-4.9c-8-7-6-10.2-6-10.2l11.3-13.4h.1Z"/>
      <line class="st8" x1="795.6" y1="573.8" x2="807" y2="560.6"/>
      <line class="st8" x1="794.3" y1="572.8" x2="805.8" y2="559.4"/>
      <line class="st8" x1="792.9" y1="571.3" x2="804.5" y2="558"/>
      <line class="st8" x1="791.6" y1="570.1" x2="803.3" y2="556.6"/>
      <line class="st8" x1="802.2" y1="554.9" x2="790.4" y2="568.6"/>
      <line class="st8" x1="801.3" y1="553.2" x2="789.5" y2="566.8"/>
      <line class="st8" x1="800.5" y1="551.3" x2="788.7" y2="565"/>
      <line class="st8" x1="797.9" y1="575.7" x2="809.5" y2="562.4"/>
      <line class="st8" x1="796.7" y1="575" x2="808.2" y2="561.5"/>
      <line class="st8" x1="799.5" y1="576.9" x2="811.3" y2="563.5"/>
      <line class="st8" x1="801.5" y1="577.8" x2="813.1" y2="564.3"/>
      <line class="st8" x1="803.5" y1="578.5" x2="815" y2="565"/>
    </g>
    <g>
      <path class="st16" d="M839.4,481.5s-1.6-1.6-5.3-1.9-5.8,1-5.8,1l.2-8.8s.1-1.4,5.5-1.2,5.6,2.1,5.6,2.1l-.2,8.8h0Z"/>
      <line class="st7" x1="833.6" y1="470.8" x2="833.3" y2="479.6"/>
      <line class="st7" x1="834.4" y1="470.8" x2="834.2" y2="479.6"/>
      <line class="st7" x1="835.4" y1="470.9" x2="835.1" y2="479.8"/>
      <line class="st7" x1="836.3" y1="471" x2="836.1" y2="480"/>
      <line class="st7" x1="837.1" y1="480.2" x2="837.3" y2="471.1"/>
      <line class="st7" x1="837.9" y1="480.6" x2="838.1" y2="471.5"/>
      <line class="st7" x1="838.8" y1="481.2" x2="839" y2="472"/>
      <line class="st7" x1="832" y1="470.8" x2="831.8" y2="479.6"/>
      <line class="st7" x1="832.8" y1="470.7" x2="832.6" y2="479.6"/>
      <line class="st7" x1="831.1" y1="470.8" x2="830.7" y2="479.8"/>
      <line class="st7" x1="829.9" y1="471.1" x2="829.7" y2="480.1"/>
      <line class="st7" x1="829.1" y1="471.4" x2="828.7" y2="480.4"/>
    </g>
    <g>
      <path class="st16" d="M1009,547.2s-4.3,1.4-8.1,7.7-3.4,11.1-3.4,11.1l-15.3-8.2s-2.4-1.5,2.7-10.8c5-9.2,8.6-8,8.6-8l15.4,8.2h0c0,.1,0,.1,0,.1Z"/>
      <line class="st8" x1="984.9" y1="547.8" x2="1000.2" y2="556.1"/>
      <line class="st8" x1="985.6" y1="546.3" x2="1001" y2="554.7"/>
      <line class="st8" x1="986.7" y1="544.6" x2="1002.1" y2="553.1"/>
      <line class="st8" x1="987.6" y1="543.1" x2="1003.2" y2="551.6"/>
      <line class="st8" x1="1004.6" y1="550.2" x2="988.9" y2="541.5"/>
      <line class="st8" x1="1006.3" y1="549" x2="990.4" y2="540.3"/>
      <line class="st8" x1="1007.8" y1="547.8" x2="992" y2="539.1"/>
      <line class="st8" x1="983.4" y1="550.5" x2="999" y2="559"/>
      <line class="st8" x1="984" y1="549.1" x2="999.5" y2="557.6"/>
      <line class="st8" x1="982.5" y1="552.3" x2="998.3" y2="560.8"/>
      <line class="st8" x1="982.2" y1="554.5" x2="997.8" y2="562.9"/>
      <line class="st8" x1="982" y1="556.4" x2="997.5" y2="564.9"/>
    </g>
    <g>
      <path class="st16" d="M1208.5,504.6s4.3-1.6,7.8-8,2.9-11.3,2.9-11.3l15.6,7.6s2.4,1.4-2.3,11c-4.7,9.5-8.3,8.3-8.3,8.3l-15.7-7.6h0Z"/>
      <line class="st8" x1="1232.6" y1="503" x2="1217" y2="495.3"/>
      <line class="st8" x1="1231.9" y1="504.6" x2="1216.2" y2="496.8"/>
      <line class="st8" x1="1231" y1="506.3" x2="1215.2" y2="498.5"/>
      <line class="st8" x1="1230.1" y1="507.9" x2="1214.1" y2="500"/>
      <line class="st8" x1="1212.8" y1="501.6" x2="1229" y2="509.4"/>
      <line class="st8" x1="1211.3" y1="502.8" x2="1227.5" y2="510.8"/>
      <line class="st8" x1="1209.7" y1="504" x2="1225.9" y2="512"/>
      <line class="st8" x1="1233.9" y1="500.2" x2="1218.2" y2="492.5"/>
      <line class="st8" x1="1233.5" y1="501.7" x2="1217.6" y2="493.9"/>
      <line class="st8" x1="1234.7" y1="498.4" x2="1218.7" y2="490.5"/>
      <line class="st8" x1="1235" y1="496.3" x2="1219.1" y2="488.4"/>
      <line class="st8" x1="1235.1" y1="494.3" x2="1219.3" y2="486.4"/>
    </g>
    <g>
      <path class="st16" d="M482.3,508s4.4.9,10.8-2.6c6.5-3.5,8.4-7.9,8.4-7.9l9.2,14.8s1.3,2.5-7.8,8-11.5,2.6-11.5,2.6l-9.2-14.8h0c0-.1,0-.1,0-.1Z"/>
      <line class="st8" x1="503.5" y1="519.5" x2="494.5" y2="504.6"/>
      <line class="st8" x1="502.1" y1="520.5" x2="492.9" y2="505.5"/>
      <line class="st8" x1="500.5" y1="521.4" x2="491.3" y2="506.4"/>
      <line class="st8" x1="498.8" y1="522.3" x2="489.5" y2="507"/>
      <line class="st8" x1="487.6" y1="507.6" x2="497" y2="523"/>
      <line class="st8" x1="485.6" y1="507.8" x2="495" y2="523.3"/>
      <line class="st8" x1="483.7" y1="508" x2="493.2" y2="523.5"/>
      <line class="st8" x1="506.2" y1="517.9" x2="497" y2="502.9"/>
      <line class="st8" x1="505" y1="518.9" x2="495.8" y2="503.7"/>
      <line class="st8" x1="507.8" y1="516.7" x2="498.5" y2="501.5"/>
      <line class="st8" x1="509.2" y1="515.1" x2="499.9" y2="499.9"/>
      <line class="st8" x1="510.3" y1="513.5" x2="501.1" y2="498.4"/>
    </g>
    <path class="st17" d="M810.2,490.8s18.7,16.3,18.3,1.3-18.3-1.3-18.3-1.3h0Z"/>
    <path class="st17" d="M957.9,545s-19.8-15-18.4,0c1.5,15,18.4,0,18.4,0Z"/>
    <path class="st17" d="M1193.2,497.9s-19.8-15-18.4,0c1.5,15,18.4,0,18.4,0Z"/>
    <path class="st17" d="M580.5,516.4s2.2-1.5.6-1.9-.6,1.9-.6,1.9Z"/>
    <path class="st17" d="M516.6,519.2s-11.4-4.9-8.9,2.2,8.9-2.2,8.9-2.2Z"/>
    <ellipse cx="777.9" cy="483.9" rx="2.8" ry="2.8"/>
    <ellipse cx="649.5" cy="486.3" rx="2.8" ry="2.8"/>
    <ellipse cx="562" cy="529.6" rx="2.8" ry="2.8"/>
    <ellipse cx="477.4" cy="510.3" rx="2.8" ry="2.8"/>
    <ellipse cx="773.4" cy="541.4" rx="2.8" ry="2.8"/>
    <ellipse cx="1059.9" cy="558.1" rx="2.8" ry="2.8"/>
    <ellipse cx="1026.2" cy="572.8" rx="2.8" ry="2.8"/>
    <ellipse cx="1180.2" cy="517.1" rx="2.8" ry="2.8"/>
    <ellipse cx="1268.8" cy="521.8" rx="2.8" ry="2.8"/>
    <ellipse cx="889.6" cy="546.3" rx="2.8" ry="2.8"/>
  </g>
  <path class="st13" d="M905.3,466.4s-140.4-78.6-65.8-80.6,170.9-13.7,100.2-32.5c-70.8-18.6-111-82.6-59.9-67.9s40.3,32.5,40.3,32.5c0,0-58.9-47.3-48.2-16.8,10.9,30.5,174.9,60,104.1,78.6-70.8,18.6-164,5.9-142.4,25.6,21.6,19.6,71.6,61,71.6,61h0Z"/>
  <path class="st13" d="M1049.1,463.2s126-85.3,40.8-103.1c-85.2-17.8-195.3-140.5-78.2-122.7,117.1,17.8,246.5-43.7,127.5-97-119-53.3-117.5,22.5-93.4,39.9,24.1,17.6,9.9-1.8,9.9-1.8,0,0-30.6-47.6,0-51,30.6-3.4,124,55.1,67.1,72.7-56.9,17.6-221.4-25.5-173.4,63.2,48.2,88.7,171.7,92,155.3,121.5-16.4,29.5-55.9,78.1-55.9,78.1h0l.2.2Z"/>
  <path class="st13" d="M770.1,535.6s-126-123.7-40.8-149.5c85.2-25.8,195.3-203.5,78.2-177.8-117.1,25.8-284-10.4-165.2-87.7,119-77.3,155-20.4,130.9,4.9-24.1,25.5-53.6,39.7-53.6,39.7,0,0,71.1-55.5,40.5-60.3-30.6-4.7-193.6,39.7-136.7,65,56.9,25.5,294.2-52.3,246.2,76.3-48.2,128.6-171.7,133.4-155.3,176.2,16.4,42.9,55.9,113.1,55.9,113.1h0v.2Z"/>
</svg>