<?xml version="1.0" encoding="UTF-8"?>
<svg id="Prep_Image" xmlns="http://www.w3.org/2000/svg" xmlns:xlink="http://www.w3.org/1999/xlink" version="1.1" viewBox="0 0 1226.2 735.8">
  <!-- Generator: Adobe Illustrator 29.7.1, SVG Export Plug-In . SVG Version: 2.1.1 Build 8)  -->
  <defs>
    <style>
      .st0 {
        isolation: isolate;
      }

      .st1 {
        fill: #1f4d50;
      }
    </style>
  </defs>
  <path class="st1" d="M1145.3,443c0-122.7,37-199.1,16.2-238.4-5.1-9.7-9.5-15.4-13.3-18.4-8.2-6.7-13.5-16.3-14.8-26.7s-4.8-21.2-12.8-29.9c-21.4-23.2-693.4-8.9-733.5-8.9s-59.1,43.8-80.1,30.5,7.6-116.3-95.3-101S-5.5,90.2,30.7,166.4s26.7,165.9,59.1,169.7-19.1,62.9,7.6,101,7.6,72.4,61,110.6,64.8,53.4,127.7,41.9,481.5,5.6,525.3,5.6,92-11.4,80.9,23.6-11,103.1,40.3,109.9,99.2-45.3,101.8-106.9,80.4-57.3,94.9-77.8,15.9-101,15.9-101Z"/>
  <image id="Prep_Image-2" class="st0" width="5110" height="3063" transform="translate(45 67.9) scale(.2)" xlink:href="Prep-1.png"/>
</svg>