<?xml version="1.0" encoding="UTF-8"?>
<svg id="rice_bowl_Image" xmlns="http://www.w3.org/2000/svg" version="1.1" viewBox="0 0 789.2 603">
  <!-- Generator: Adobe Illustrator 29.7.1, SVG Export Plug-In . SVG Version: 2.1.1 Build 8)  -->
  <defs>
    <style>
      .st0 {
        fill: #babbb7;
      }

      .st1 {
        fill: #481f00;
        opacity: .8;
      }

      .st1, .st2 {
        isolation: isolate;
      }

      .st3 {
        stroke-width: .1px;
      }

      .st3, .st4, .st5, .st6, .st7, .st8 {
        fill: none;
        stroke-miterlimit: 10;
      }

      .st3, .st7, .st8 {
        stroke: #0c490c;
      }

      .st9 {
        fill: #ced2d5;
      }

      .st10 {
        fill: #d0ac64;
      }

      .st11 {
        fill: #3d7300;
      }

      .st12 {
        fill: #e1d0af;
      }

      .st4 {
        stroke-width: 7.7px;
      }

      .st4, .st5, .st6 {
        stroke: #f9f1af;
        stroke-linecap: round;
      }

      .st5 {
        stroke-width: 7.9px;
      }

      .st6 {
        stroke-width: 8.3px;
      }

      .st13 {
        fill: #1f4d50;
      }

      .st7 {
        stroke-width: .2px;
      }

      .st8 {
        stroke-width: .3px;
      }

      .st2 {
        fill: #ced2c6;
        opacity: .5;
      }
    </style>
  </defs>
  <path class="st13" d="M90.7,207.2c-36,2.9-61.2,45-64,75.8-4.6,51.1,16.4,247.1,126.8,264.8,138.4,22.2,297.1,0,297.1,0,0,0-25.8,41.8,25.3,41.8s282.7,12.3,293.5-17.1-59.8-227.4-65-246,18.5-55.2-35-52.7-56.7,26.1-56.7,26.1c0,0,27.4-28-25.5-47.8s-111.5-23.6-111.5-23.6c0,0,45.9-44.6,24.8-70.7s82.8-21,68.2-68.8-150.7-99.4-192.4-14c-21.6,44.2-47.1-47.8-80.7-62.2C240.8-10.7,21,67.6,176.7,116.7c185.2,58.4,17.9,79.6-6.5,82-36,3.4-50.6,6.2-79.5,8.5Z"/>
  <polygon class="st12" points="520.3 329.2 468.6 558.2 754.2 554.6 679.1 325.5 520.3 329.2"/>
  <g>
    <path class="st11" d="M590,289.4s-2.3-.6-5.8,1.1-4.7,4-4.7,4l-4.5-8s-.6-1.3,4.3-4.1,6.2-1.1,6.2-1.1l4.5,8.1h0Z"/>
    <line class="st7" x1="579" y1="282.8" x2="583.5" y2="291"/>
    <line class="st7" x1="579.8" y1="282.3" x2="584.3" y2="290.5"/>
    <line class="st7" x1="580.7" y1="281.9" x2="585.2" y2="290.1"/>
    <line class="st7" x1="581.6" y1="281.5" x2="586.1" y2="289.8"/>
    <line class="st7" x1="587.2" y1="289.6" x2="582.6" y2="281.1"/>
    <line class="st7" x1="588.2" y1="289.4" x2="583.6" y2="281.1"/>
    <line class="st7" x1="589.3" y1="289.4" x2="584.6" y2="281"/>
    <line class="st7" x1="577.6" y1="283.6" x2="582.1" y2="291.8"/>
    <line class="st7" x1="578.2" y1="283.2" x2="582.8" y2="291.4"/>
    <line class="st7" x1="576.6" y1="284.2" x2="581.2" y2="292.5"/>
    <line class="st7" x1="575.9" y1="285" x2="580.4" y2="293.3"/>
    <line class="st7" x1="575.3" y1="285.8" x2="579.8" y2="294.1"/>
  </g>
  <path class="st12" d="M551.8,287.9s10.9-7.5,3.1-9.2c-7.8-1.7-3.1,9.2-3.1,9.2Z"/>
  <circle cx="576.8" cy="295.3" r="1.5"/>
  <path class="st10" d="M621,542.6s1.3,4,10,3.7,11.5-5.3,11.5-5.3l-15.2-228.5s-3-3.5-7.6-2l-4.6,1.5,6,230.6h-.1Z"/>
  <path class="st9" d="M665.2,540.9s1.3,4,10,3.7,11.5-5.3,11.5-5.3l-15.2-228.5s-3-3.5-7.6-2l-4.6,1.5,6,230.6h-.1Z"/>
  <path class="st10" d="M587,541.8s1,4.1,9.8,4.4c8.7.3,11.8-4.5,11.8-4.5l.4-229s-2.8-3.7-7.5-2.5l-4.7,1.2-9.8,230.5h0Z"/>
  <path class="st4" d="M116,301.5s14.2-20,29-27.7,30.6-12.2,30.6-12.2"/>
  <path class="st1" d="M522.9,307.4l22.3-3.8s-.5-28.6-19.4-28.6-16.9-8.2-29.7-7.2c-12.8,1.1-15.8,1.5-15.8,1.5,0,0-9.5,11.2,14.5,10.2s33.5,3.6,31.4,12.3c-2.1,8.7-3.4,15.6-3.4,15.6h.1Z"/>
  <path class="st1" d="M525,307l22.3-3.8s-.5-28.6-19.4-28.6-16.9-8.2-29.7-7.2c-12.8,1.1-15.8,1.5-15.8,1.5,0,0-9.5,11.2,14.5,10.2s33.5,3.6,31.4,12.3c-2.1,8.7-3.4,15.6-3.4,15.6h.1Z"/>
  <path class="st1" d="M467.3,316l25.2-3s-5.2-21.7-21.4-20.8c-16.2.9-17.3-4.5-23.8-10.6s-9.3-3-9.3-3c0,0,14.9,12.9-37.5,20,0,0,19.8-2.5,15,6.6s5.1,15,5.1,15c0,0,9.7-.4,16.5-1.1s30.1-3.1,30.1-3.1h0Z"/>
  <path class="st1" d="M139,310l-28.5-7.1s1.3-21.6,17.5-20.3,17.4-4.1,24-10,28.4-14.6,28.4-14.6c0,0,40.5-5.2,36.8,16.1-1.4,8-8.3,13.9-16.4,14.5-8.1.6-6.9,5.6-4.1,11.4,4.5,9.2,11.4,21.7,11.4,21.7,0,0-36.5-5.5-43.4-6.3-6.9-.8-25.7-5.3-25.7-5.3h0Z"/>
  <path class="st1" d="M469.6,315.8l19.8-2.6s-8.3-15.5-24.6-14.6c-16.2.9-8-2.7-14.5-8.8-6.5-6.1-10.1-6.1-10.1-6.1,0,0-3.2,10.7-34.1,14.4,0,0,16.4-2.2,11.7,6.9-4.8,9.1,5.1,15,5.1,15,0,0,9.7-.4,16.5-1.1s30.1-3.1,30.1-3.1h.1Z"/>
  <path class="st5" d="M417.6,318.4s26.4-13.4,31.2-21.3c4.8-7.9-7.6-18.2-7.6-18.2"/>
  <path class="st6" d="M502.8,307.3s22.7-5.3,29.2-12.4c8.2-8.9,1.7-19.1,1.7-19.1"/>
  <g>
    <path class="st11" d="M219.7,271.3s3.1,1.3,8.4-.3c5.5-1.7,7.5-4.6,7.5-4.6l4.6,12.4s.6,2-7,4.8c-7.5,2.7-9,.2-9,.2l-4.7-12.5h.2Z"/>
    <line class="st8" x1="233.7" y1="283" x2="229.2" y2="270.6"/>
    <line class="st8" x1="232.6" y1="283.6" x2="228" y2="271"/>
    <line class="st8" x1="231.2" y1="284" x2="226.6" y2="271.4"/>
    <line class="st8" x1="229.8" y1="284.4" x2="225.2" y2="271.6"/>
    <line class="st8" x1="223.7" y1="271.8" x2="228.3" y2="284.7"/>
    <line class="st8" x1="222.2" y1="271.6" x2="226.8" y2="284.6"/>
    <line class="st8" x1="220.7" y1="271.5" x2="225.4" y2="284.4"/>
    <line class="st8" x1="235.9" y1="282.3" x2="231.4" y2="269.7"/>
    <line class="st8" x1="234.9" y1="282.8" x2="230.3" y2="270.2"/>
    <line class="st8" x1="237.3" y1="281.6" x2="232.7" y2="268.9"/>
    <line class="st8" x1="238.6" y1="280.7" x2="234" y2="268"/>
    <line class="st8" x1="239.7" y1="279.6" x2="235.1" y2="266.9"/>
  </g>
  <g>
    <path class="st11" d="M271.2,304.7s.2,2.4,3.1,5.1,5.4,3,5.4,3l-6,7s-1.1,1.1-5.3-2.6c-4.2-3.7-3.2-5.4-3.2-5.4l6-7.1h0Z"/>
    <line class="st7" x1="268.8" y1="317.3" x2="274.8" y2="310.3"/>
    <line class="st7" x1="268.1" y1="316.7" x2="274.2" y2="309.6"/>
    <line class="st7" x1="267.3" y1="316" x2="273.5" y2="308.9"/>
    <line class="st7" x1="266.6" y1="315.3" x2="272.8" y2="308.1"/>
    <line class="st7" x1="272.3" y1="307.2" x2="266" y2="314.5"/>
    <line class="st7" x1="271.8" y1="306.3" x2="265.5" y2="313.5"/>
    <line class="st7" x1="271.4" y1="305.3" x2="265.1" y2="312.6"/>
    <line class="st7" x1="270" y1="318.3" x2="276.2" y2="311.2"/>
    <line class="st7" x1="269.3" y1="317.9" x2="275.5" y2="310.7"/>
    <line class="st7" x1="270.9" y1="318.9" x2="277.1" y2="311.8"/>
    <line class="st7" x1="271.9" y1="319.4" x2="278.1" y2="312.3"/>
    <line class="st7" x1="273" y1="319.8" x2="279.1" y2="312.6"/>
  </g>
  <g>
    <path class="st11" d="M292,268.3s-.9-.9-2.8-1-3.1.5-3.1.5v-4.7c.1,0,.2-.8,3-.6s3,1.1,3,1.1v4.7h-.1Z"/>
    <line class="st3" x1="289" y1="262.6" x2="288.8" y2="267.3"/>
    <line class="st3" x1="289.4" y1="262.6" x2="289.3" y2="267.3"/>
    <line class="st3" x1="289.9" y1="262.6" x2="289.8" y2="267.3"/>
    <line class="st3" x1="290.4" y1="262.7" x2="290.3" y2="267.4"/>
    <line class="st3" x1="290.8" y1="267.6" x2="290.9" y2="262.7"/>
    <line class="st3" x1="291.3" y1="267.8" x2="291.4" y2="263"/>
    <line class="st3" x1="291.8" y1="268.1" x2="291.9" y2="263.2"/>
    <line class="st3" x1="288.1" y1="262.6" x2="288" y2="267.3"/>
    <line class="st3" x1="288.6" y1="262.5" x2="288.4" y2="267.3"/>
    <line class="st3" x1="287.6" y1="262.6" x2="287.4" y2="267.3"/>
    <line class="st3" x1="287" y1="262.7" x2="286.9" y2="267.5"/>
    <line class="st3" x1="286.6" y1="262.9" x2="286.4" y2="267.7"/>
  </g>
  <g>
    <path class="st11" d="M382.3,303.2s-2.3.8-4.3,4.1-1.8,5.9-1.8,5.9l-8.1-4.4s-1.3-.8,1.5-5.8c2.7-4.9,4.6-4.2,4.6-4.2l8.2,4.4h-.1Z"/>
    <line class="st7" x1="369.5" y1="303.5" x2="377.6" y2="307.9"/>
    <line class="st7" x1="369.8" y1="302.6" x2="378" y2="307.1"/>
    <line class="st7" x1="370.4" y1="301.8" x2="378.6" y2="306.3"/>
    <line class="st7" x1="370.9" y1="301" x2="379.2" y2="305.5"/>
    <line class="st7" x1="380" y1="304.7" x2="371.6" y2="300.1"/>
    <line class="st7" x1="380.8" y1="304.1" x2="372.4" y2="299.5"/>
    <line class="st7" x1="381.7" y1="303.5" x2="373.2" y2="298.9"/>
    <line class="st7" x1="368.7" y1="304.9" x2="376.9" y2="309.4"/>
    <line class="st7" x1="369" y1="304.2" x2="377.2" y2="308.6"/>
    <line class="st7" x1="368.2" y1="305.9" x2="376.6" y2="310.4"/>
    <line class="st7" x1="368" y1="307" x2="376.3" y2="311.5"/>
    <line class="st7" x1="367.9" y1="308.1" x2="376.2" y2="312.5"/>
  </g>
  <g>
    <path class="st11" d="M488.4,280.5s2.3-.9,4.1-4.2,1.6-6,1.6-6l8.3,4s1.3.8-1.2,5.8-4.4,4.4-4.4,4.4l-8.4-4h0Z"/>
    <line class="st7" x1="501.2" y1="279.7" x2="492.9" y2="275.6"/>
    <line class="st7" x1="500.9" y1="280.5" x2="492.5" y2="276.4"/>
    <line class="st7" x1="500.4" y1="281.4" x2="492" y2="277.3"/>
    <line class="st7" x1="499.9" y1="282.3" x2="491.4" y2="278.1"/>
    <line class="st7" x1="490.7" y1="278.9" x2="499.3" y2="283.1"/>
    <line class="st7" x1="489.9" y1="279.5" x2="498.5" y2="283.8"/>
    <line class="st7" x1="489.1" y1="280.2" x2="497.7" y2="284.4"/>
    <line class="st7" x1="501.9" y1="278.2" x2="493.6" y2="274.1"/>
    <line class="st7" x1="501.7" y1="279" x2="493.3" y2="274.8"/>
    <line class="st7" x1="502.3" y1="277.2" x2="493.8" y2="273"/>
    <line class="st7" x1="502.5" y1="276.1" x2="494.1" y2="271.9"/>
    <line class="st7" x1="502.6" y1="275.1" x2="494.1" y2="270.9"/>
  </g>
  <g>
    <path class="st11" d="M102.1,282.3s2.3.5,5.8-1.4c3.4-1.9,4.5-4.2,4.5-4.2l4.9,7.9s.7,1.3-4.1,4.2-6.1,1.4-6.1,1.4l-4.9-7.9h-.1Z"/>
    <line class="st7" x1="113.4" y1="288.5" x2="108.6" y2="280.5"/>
    <line class="st7" x1="112.6" y1="289" x2="107.8" y2="281"/>
    <line class="st7" x1="111.8" y1="289.4" x2="106.9" y2="281.5"/>
    <line class="st7" x1="110.9" y1="289.9" x2="106" y2="281.8"/>
    <line class="st7" x1="104.9" y1="282.1" x2="109.9" y2="290.3"/>
    <line class="st7" x1="103.9" y1="282.2" x2="108.9" y2="290.4"/>
    <line class="st7" x1="102.9" y1="282.3" x2="107.9" y2="290.5"/>
    <line class="st7" x1="114.8" y1="287.6" x2="109.9" y2="279.6"/>
    <line class="st7" x1="114.2" y1="288.1" x2="109.3" y2="280.1"/>
    <line class="st7" x1="115.7" y1="286.9" x2="110.7" y2="278.8"/>
    <line class="st7" x1="116.4" y1="286.1" x2="111.5" y2="278"/>
    <line class="st7" x1="117" y1="285.3" x2="112.1" y2="277.2"/>
  </g>
  <path class="st12" d="M276.5,273.2s10,8.7,9.7.7-9.7-.7-9.7-.7h0Z"/>
  <path class="st12" d="M355.1,302s-10.5-8-9.8,0c.8,8,9.8,0,9.8,0Z"/>
  <path class="st12" d="M480.3,277s-10.5-8-9.8,0c.8,8,9.8,0,9.8,0Z"/>
  <path class="st12" d="M154.3,286.8s1.2-.8.3-1-.3,1-.3,1Z"/>
  <path class="st12" d="M120.3,288.3s-6.1-2.6-4.7,1.2,4.7-1.2,4.7-1.2Z"/>
  <circle cx="259.3" cy="269.5" r="1.5"/>
  <circle cx="191" cy="270.8" r="1.5"/>
  <circle cx="144.5" cy="293.8" r="1.5"/>
  <circle cx="99.5" cy="283.6" r="1.5"/>
  <circle cx="257" cy="300.1" r="1.5"/>
  <circle cx="409.4" cy="308.9" r="1.5"/>
  <circle cx="391.4" cy="316.7" r="1.5"/>
  <circle cx="473.4" cy="287.2" r="1.5"/>
  <circle cx="520.5" cy="289.7" r="1.5"/>
  <circle cx="318.8" cy="302.6" r="1.5"/>
  <ellipse class="st9" cx="666.2" cy="308" rx="33" ry="21.6"/>
  <ellipse class="st0" cx="665.4" cy="316.1" rx="16.9" ry="11"/>
  <path class="st2" d="M346.1,251s-83.9-46.9-39.3-48.1,102.1-8.2,59.9-19.4c-42.3-11.1-66.3-49.3-35.8-40.5s24.1,19.4,24.1,19.4c0,0-35.2-28.2-28.8-10,6.5,18.2,104.5,35.8,62.2,46.9-42.3,11.1-98,3.5-85.1,15.3,12.9,11.7,42.8,36.4,42.8,36.4h0Z"/>
  <path class="st2" d="M432,249.1s75.3-50.9,24.4-61.5-116.7-83.8-46.7-73.2c70,10.6,147.3-26.1,76.2-57.9-71.1-31.8-70.2,13.4-55.8,23.8,14.4,10.5,5.9-1.1,5.9-1.1,0,0-18.3-28.4,0-30.4s74.1,32.9,40.1,43.4-132.3-15.2-103.6,37.7c28.8,52.9,102.6,54.9,92.8,72.5-9.8,17.6-33.4,46.6-33.4,46.6h.1Z"/>
  <path class="st2" d="M265.3,292.3s-75.3-73.8-24.4-89.2c50.9-15.4,116.7-121.4,46.7-106.1-70,15.4-169.7-6.2-98.7-52.3,71.1-46.1,92.6-12.2,78.2,2.9-14.4,15.2-32,23.7-32,23.7,0,0,42.5-33.1,24.2-36-18.3-2.8-115.7,23.7-81.7,38.8,34,15.2,175.8-31.2,147.1,45.5-28.8,76.7-102.6,79.6-92.8,105.1,9.8,25.6,33.4,67.5,33.4,67.5h0Z"/>
  <g>
    <path class="st7" d="M1486.4,257"/>
    <path class="st7" d="M1487.3,256.5"/>
    <path class="st7" d="M1488.3,255.9"/>
    <path class="st7" d="M1489.4,255.5"/>
    <path class="st7" d="M1490,267.1"/>
    <path class="st7" d="M1484.9,257.9"/>
    <path class="st7" d="M1485.6,257.4"/>
    <path class="st7" d="M1483.8,258.5"/>
    <line class="st7" x1="1483" y1="259.5" x2="1488.1" y2="268.7"/>
    <line class="st7" x1="1482.3" y1="260.4" x2="1487.3" y2="269.7"/>
  </g>
  <circle cx="1484" cy="271" r="1.7"/>
  <path class="st10" d="M1511.7,287.7l-5.3,1.3"/>
  <path class="st12" d="M1464,441.2s12.2-8.4,3.5-10.4c-8.8-2-3.5,10.4-3.5,10.4Z"/>
</svg>