<?xml version="1.0" encoding="UTF-8"?>
<svg id="rice_bowl_Image" xmlns="http://www.w3.org/2000/svg" xmlns:xlink="http://www.w3.org/1999/xlink" version="1.1" viewBox="0 0 1019.5 729.8">
  <!-- Generator: Adobe Illustrator 29.7.1, SVG Export Plug-In . SVG Version: 2.1.1 Build 8)  -->
  <defs>
    <style>
      .st0, .st1, .st2, .st3, .st4, .st5, .st6, .st7, .st8, .st9 {
        fill: none;
      }

      .st10 {
        fill: #babbb7;
      }

      .st11 {
        fill: #481f00;
        opacity: .8;
      }

      .st11, .st12 {
        isolation: isolate;
      }

      .st1 {
        stroke-width: .1px;
      }

      .st1, .st2, .st3, .st4, .st5, .st6, .st7, .st8, .st9 {
        stroke-miterlimit: 10;
      }

      .st1, .st8, .st9 {
        stroke: #0c490c;
      }

      .st13 {
        fill: #ced2d5;
      }

      .st14 {
        fill: #d0ac64;
      }

      .st15 {
        fill: #3d7300;
      }

      .st16 {
        fill: #e1d0af;
      }

      .st17 {
        fill: #ced2c6;
        opacity: .5;
      }

      .st2 {
        stroke-width: 7px;
      }

      .st2, .st3, .st4, .st5, .st6, .st7 {
        stroke: #f9f1af;
        stroke-linecap: round;
      }

      .st3 {
        stroke-width: 7.7px;
      }

      .st4 {
        stroke-width: 7.4px;
      }

      .st18 {
        clip-path: url(#clippath-1);
      }

      .st19 {
        clip-path: url(#clippath-3);
      }

      .st20 {
        clip-path: url(#clippath-2);
      }

      .st5 {
        stroke-width: 7.8px;
      }

      .st6 {
        stroke-width: 7.9px;
      }

      .st7 {
        stroke-width: 8.3px;
      }

      .st8 {
        stroke-width: .2px;
      }

      .st9 {
        stroke-width: .3px;
      }

      .st21 {
        fill: #305a61;
      }

      .st22 {
        clip-path: url(#clippath);
      }
    </style>
    <clipPath id="clippath">
      <rect class="st0" x="126.2" y="173.1" width="622.3" height="445.5"/>
    </clipPath>
    <clipPath id="clippath-1">
      <rect class="st0" x="126.2" y="173.1" width="622.3" height="445.5"/>
    </clipPath>
    <clipPath id="clippath-2">
      <rect class="st0" x="126.2" y="173.1" width="622.3" height="445.5"/>
    </clipPath>
    <clipPath id="clippath-3">
      <rect class="st0" x="126.2" y="173.1" width="622.3" height="445.5"/>
    </clipPath>
  </defs>
  <path class="st21" d="M134.8,304.9c-22.1,8.8-35.6,31.3-32.8,54.9,10.3,85.3,68.9,273,160,274.9,159.2,3.4,281.6,6.4,298.9-1.6s-4.9,25.4,55.1,26,323,11.3,332.8-15.9-90.7-260.3-91.4-269.3,17.4-52.3-42.6-54.4c-43.5-1.5-48.6,7.8-48.1,13s-1,7.4-4,9.6-9,3.2-14.6-6.9c-10.5-18.8,17.2-11.5-1-26.9s-156.7-14.7-145.8-32.1c101.3-162.5-37-93-36.4-110.8,1-31,102-28.8,99.2-61.6-2.6-30.9-119.6-106.4-151-35-7.8,17.7-9,34.4-27.7,38.9s-29.3,2.6-40.8-10.5c-30.7-34.9-37.3-18.6-55.4-18.6s39.1-53-22.3-57.2-152.6,31.5-108.4,96.7,194.4,32.5,49.8,131c-51.6,35.2-66.2,31.7-98.3,37.3s-60.3,12.5-75.1,18.4Z"/>
  <polygon class="st16" points="652.6 378 594.6 635.3 915.4 631.1 831.1 373.9 652.6 378"/>
  <g>
    <path class="st15" d="M730.9,333.3s-2.6-.7-6.5,1.2c-3.9,1.9-5.3,4.5-5.3,4.5l-5.1-9s-.7-1.5,4.8-4.6,6.9-1.2,6.9-1.2l5.1,9.1h0Z"/>
    <line class="st8" x1="718.6" y1="325.9" x2="723.6" y2="335"/>
    <line class="st8" x1="719.5" y1="325.3" x2="724.5" y2="334.6"/>
    <line class="st8" x1="720.5" y1="324.8" x2="725.6" y2="334"/>
    <line class="st8" x1="721.5" y1="324.4" x2="726.6" y2="333.7"/>
    <line class="st8" x1="727.8" y1="333.5" x2="722.6" y2="324"/>
    <line class="st8" x1="729" y1="333.3" x2="723.8" y2="323.9"/>
    <line class="st8" x1="730.1" y1="333.3" x2="724.9" y2="323.8"/>
    <line class="st8" x1="717" y1="326.8" x2="722.1" y2="336"/>
    <line class="st8" x1="717.7" y1="326.3" x2="722.8" y2="335.5"/>
    <line class="st8" x1="716" y1="327.4" x2="721.1" y2="336.7"/>
    <line class="st8" x1="715.1" y1="328.4" x2="720.2" y2="337.6"/>
    <line class="st8" x1="714.4" y1="329.3" x2="719.5" y2="338.6"/>
  </g>
  <path class="st16" d="M688,331.6s12.2-8.4,3.5-10.4c-8.8-2-3.5,10.4-3.5,10.4Z"/>
  <circle cx="716.1" cy="339.9" r="1.7"/>
  <path class="st14" d="M765.7,617.7s1.5,4.5,11.3,4.2,12.9-6,12.9-6l-17.1-256.7s-3.4-3.9-8.6-2.3l-5.2,1.7,6.7,259Z"/>
  <path class="st13" d="M815.5,615.8s1.5,4.5,11.3,4.2,12.9-6,12.9-6l-17.1-256.7s-3.4-3.9-8.6-2.3l-5.2,1.7,6.7,259Z"/>
  <path class="st14" d="M727.6,616.8s1.1,4.6,11,5c9.8.4,13.3-5.1,13.3-5.1l.5-257.3s-3.1-4.2-8.4-2.8l-5.3,1.3-11,258.9Z"/>
  <g class="st22">
    <g class="st18">
      <g>
        <g class="st20">
          <image class="st12" width="4246" height="3037" transform="translate(126.2 173.2) scale(.1)" xlink:href="ricebowl-1.png"/>
        </g>
        <g class="st19">
          <g>
            <path class="st4" d="M220.8,354.1s15.3-27.8,31.3-36c16-8.3,33.1-13.2,33.1-13.2"/>
            <path class="st4" d="M321,307.1s-25.3,21.5-23.7,35.3c1.7,13.8,7.4,24.7,7.4,24.7"/>
            <path class="st2" d="M347.1,312.9s16.8-4.8,27.9,18.2c11.1,23,22.6,40.8,22.6,40.8"/>
            <path class="st4" d="M537.1,365.9s27.6-14.1,32.7-22.4c6.3-10.3,2-25,2-25"/>
            <path class="st5" d="M594,356.9s31.3-9,38.1-16.4c8.6-9.4,7-25.3,7-25.3"/>
          </g>
        </g>
      </g>
    </g>
  </g>
  <path class="st3" d="M198.5,346.8s16-22.5,32.6-31.1c16.6-8.6,34.4-13.7,34.4-13.7"/>
  <path class="st11" d="M654.9,347.9l25-4.3s-.6-32.2-21.8-32.2-19-9.2-33.3-8c-14.4,1.2-17.8,1.7-17.8,1.7,0,0-10.7,12.6,16.3,11.5s37.6,4.1,35.3,13.8c-2.4,9.7-3.8,17.5-3.8,17.5h0Z"/>
  <path class="st11" d="M642.9,351l25-4.3s-.6-32.2-21.8-32.2-19-9.2-33.3-8c-14.4,1.2-17.8,1.7-17.8,1.7,0,0-10.7,12.6,16.3,11.5,27-1.1,37.6,4.1,35.3,13.8-2.4,9.7-3.8,17.5-3.8,17.5h0Z"/>
  <path class="st11" d="M590.4,360l28.3-3.3s-5.8-24.3-24-23.3c-18.2,1-19.4-5.1-26.7-11.9-7.3-6.8-10.4-3.4-10.4-3.4,0,0,16.7,14.5-42.1,22.5,0,0,22.2-2.8,16.9,7.4-5.4,10.2,5.8,16.9,5.8,16.9,0,0,10.9-.5,18.6-1.2s33.8-3.5,33.8-3.5h0q0,0,0,0Z"/>
  <path class="st11" d="M224.3,356.5l-32-8s1.5-24.2,19.7-22.8,19.5-4.6,27-11.2c7.4-6.6,31.9-16.4,31.9-16.4,0,0,45.5-5.8,41.3,18.1-1.6,9-9.3,15.6-18.4,16.3-9.1.7-7.8,6.3-4.6,12.8,5.1,10.3,12.8,24.4,12.8,24.4,0,0-41-6.2-48.8-7.1s-28.9-5.9-28.9-5.9h0c0,0,0,0,0,0Z"/>
  <path class="st11" d="M592.9,359.8l22.3-2.9s-9.3-17.4-27.6-16.4c-18.2,1-9-3.1-16.3-9.9-7.3-6.8-11.4-6.8-11.4-6.8,0,0-3.6,12.1-38.3,16.2,0,0,18.4-2.5,13.1,7.7-5.4,10.2,5.8,16.9,5.8,16.9,0,0,10.9-.5,18.6-1.2,7.7-.7,33.8-3.5,33.8-3.5h0q0,0,0,0Z"/>
  <path class="st6" d="M532,363.4s29.6-15.1,35-23.9c5.4-8.8-8.5-20.5-8.5-20.5"/>
  <path class="st7" d="M639,346.9s20-4.6,25.8-10.9c7.2-7.9,1.5-16.9,1.5-16.9"/>
  <g>
    <path class="st15" d="M315,312.9s3.5,1.5,9.5-.3c6.1-1.9,8.4-5.2,8.4-5.2l5.2,13.9s.7,2.3-7.8,5.4c-8.4,3.1-10.1.2-10.1.2l-5.2-14h0Z"/>
    <line class="st9" x1="330.8" y1="326.1" x2="325.7" y2="312.1"/>
    <line class="st9" x1="329.5" y1="326.7" x2="324.3" y2="312.6"/>
    <line class="st9" x1="327.9" y1="327.2" x2="322.7" y2="313.1"/>
    <line class="st9" x1="326.3" y1="327.7" x2="321.2" y2="313.3"/>
    <line class="st9" x1="319.5" y1="313.5" x2="324.7" y2="328"/>
    <line class="st9" x1="317.8" y1="313.3" x2="323" y2="327.8"/>
    <line class="st9" x1="316.1" y1="313.2" x2="321.4" y2="327.7"/>
    <line class="st9" x1="333.3" y1="325.3" x2="328.1" y2="311.1"/>
    <line class="st9" x1="332.1" y1="325.9" x2="326.9" y2="311.7"/>
    <line class="st9" x1="334.8" y1="324.6" x2="329.6" y2="310.2"/>
    <line class="st9" x1="336.3" y1="323.5" x2="331.1" y2="309.2"/>
    <line class="st9" x1="337.5" y1="322.3" x2="332.3" y2="308"/>
  </g>
  <g>
    <path class="st15" d="M372.8,350.4s.3,2.7,3.5,5.7,6,3.4,6,3.4l-6.7,7.9s-1.2,1.2-5.9-2.9c-4.8-4.2-3.6-6.1-3.6-6.1l6.7-8h0Z"/>
    <line class="st8" x1="370.1" y1="364.6" x2="376.9" y2="356.7"/>
    <line class="st8" x1="369.3" y1="364" x2="376.2" y2="356"/>
    <line class="st8" x1="368.5" y1="363.1" x2="375.4" y2="355.2"/>
    <line class="st8" x1="367.7" y1="362.4" x2="374.7" y2="354.3"/>
    <line class="st8" x1="374" y1="353.3" x2="367" y2="361.5"/>
    <line class="st8" x1="373.5" y1="352.3" x2="366.5" y2="360.4"/>
    <line class="st8" x1="373.1" y1="351.2" x2="366" y2="359.3"/>
    <line class="st8" x1="371.5" y1="365.7" x2="378.4" y2="357.8"/>
    <line class="st8" x1="370.8" y1="365.3" x2="377.6" y2="357.2"/>
    <line class="st8" x1="372.5" y1="366.5" x2="379.5" y2="358.4"/>
    <line class="st8" x1="373.7" y1="367" x2="380.6" y2="358.9"/>
    <line class="st8" x1="374.8" y1="367.4" x2="381.7" y2="359.3"/>
  </g>
  <g>
    <path class="st15" d="M396.3,309.5s-1-1-3.1-1.1-3.5.6-3.5.6v-5.2c.1,0,.2-.8,3.4-.7s3.3,1.2,3.3,1.2v5.2h-.1Z"/>
    <line class="st1" x1="392.8" y1="303.1" x2="392.7" y2="308.4"/>
    <line class="st1" x1="393.3" y1="303.1" x2="393.2" y2="308.4"/>
    <line class="st1" x1="393.9" y1="303.2" x2="393.7" y2="308.5"/>
    <line class="st1" x1="394.4" y1="303.3" x2="394.3" y2="308.6"/>
    <line class="st1" x1="394.9" y1="308.7" x2="395" y2="303.3"/>
    <line class="st1" x1="395.4" y1="309" x2="395.5" y2="303.6"/>
    <line class="st1" x1="395.9" y1="309.3" x2="396.1" y2="303.8"/>
    <line class="st1" x1="391.9" y1="303.1" x2="391.8" y2="308.4"/>
    <line class="st1" x1="392.3" y1="303.1" x2="392.2" y2="308.4"/>
    <line class="st1" x1="391.3" y1="303.1" x2="391.1" y2="308.5"/>
    <line class="st1" x1="390.6" y1="303.3" x2="390.5" y2="308.7"/>
    <line class="st1" x1="390.1" y1="303.5" x2="389.9" y2="308.9"/>
  </g>
  <g>
    <path class="st15" d="M497.6,348.7s-2.5.8-4.8,4.6-2,6.6-2,6.6l-9.2-4.9s-1.4-.9,1.6-6.5c3-5.5,5.2-4.8,5.2-4.8l9.2,4.9h0q0,0,0,0Z"/>
    <line class="st8" x1="483.3" y1="349.1" x2="492.4" y2="354"/>
    <line class="st8" x1="483.7" y1="348.2" x2="492.9" y2="353.2"/>
    <line class="st8" x1="484.3" y1="347.2" x2="493.5" y2="352.2"/>
    <line class="st8" x1="484.8" y1="346.3" x2="494.2" y2="351.4"/>
    <line class="st8" x1="495" y1="350.5" x2="485.6" y2="345.3"/>
    <line class="st8" x1="496" y1="349.8" x2="486.5" y2="344.6"/>
    <line class="st8" x1="496.9" y1="349.1" x2="487.4" y2="343.9"/>
    <line class="st8" x1="482.3" y1="350.7" x2="491.6" y2="355.7"/>
    <line class="st8" x1="482.7" y1="349.9" x2="492" y2="354.9"/>
    <line class="st8" x1="481.8" y1="351.8" x2="491.2" y2="356.9"/>
    <line class="st8" x1="481.6" y1="353.1" x2="490.9" y2="358.1"/>
    <line class="st8" x1="481.5" y1="354.2" x2="490.8" y2="359.3"/>
  </g>
  <g>
    <path class="st15" d="M616.9,323.3s2.5-1,4.6-4.8,1.8-6.7,1.8-6.7l9.3,4.5s1.4.8-1.4,6.5c-2.8,5.7-5,5-5,5l-9.4-4.5h0Z"/>
    <line class="st8" x1="631.2" y1="322.3" x2="621.9" y2="317.8"/>
    <line class="st8" x1="630.9" y1="323.3" x2="621.4" y2="318.7"/>
    <line class="st8" x1="630.3" y1="324.3" x2="620.9" y2="319.7"/>
    <line class="st8" x1="629.7" y1="325.3" x2="620.2" y2="320.6"/>
    <line class="st8" x1="619.4" y1="321.5" x2="629.1" y2="326.2"/>
    <line class="st8" x1="618.5" y1="322.2" x2="628.2" y2="327"/>
    <line class="st8" x1="617.6" y1="322.9" x2="627.3" y2="327.7"/>
    <line class="st8" x1="632" y1="320.7" x2="622.6" y2="316.1"/>
    <line class="st8" x1="631.8" y1="321.6" x2="622.3" y2="316.9"/>
    <line class="st8" x1="632.5" y1="319.6" x2="622.9" y2="314.9"/>
    <line class="st8" x1="632.7" y1="318.4" x2="623.2" y2="313.6"/>
    <line class="st8" x1="632.8" y1="317.2" x2="623.3" y2="312.5"/>
  </g>
  <g>
    <path class="st15" d="M182.9,325.3s2.6.5,6.5-1.6c3.9-2.1,5-4.7,5-4.7l5.5,8.8s.8,1.5-4.6,4.8-6.9,1.6-6.9,1.6l-5.5-8.8h0q0,0,0,0Z"/>
    <line class="st8" x1="195.6" y1="332.2" x2="190.2" y2="323.3"/>
    <line class="st8" x1="194.8" y1="332.8" x2="189.3" y2="323.8"/>
    <line class="st8" x1="193.8" y1="333.3" x2="188.3" y2="324.4"/>
    <line class="st8" x1="192.8" y1="333.8" x2="187.2" y2="324.8"/>
    <line class="st8" x1="186.1" y1="325.1" x2="191.7" y2="334.3"/>
    <line class="st8" x1="184.9" y1="325.2" x2="190.5" y2="334.4"/>
    <line class="st8" x1="183.8" y1="325.3" x2="189.4" y2="334.6"/>
    <line class="st8" x1="197.2" y1="331.2" x2="191.7" y2="322.3"/>
    <line class="st8" x1="196.5" y1="331.8" x2="191" y2="322.8"/>
    <line class="st8" x1="198.2" y1="330.5" x2="192.6" y2="321.4"/>
    <line class="st8" x1="199" y1="329.6" x2="193.4" y2="320.5"/>
    <line class="st8" x1="199.7" y1="328.6" x2="194.2" y2="319.6"/>
  </g>
  <path class="st16" d="M378.8,315.1s11.2,9.7,10.9.8-10.9-.8-10.9-.8Z"/>
  <path class="st16" d="M467.1,347.4s-11.8-9-11,0c.9,9,11,0,11,0Z"/>
  <path class="st16" d="M607.7,319.3s-11.8-9-11,0c.9,9,11,0,11,0Z"/>
  <path class="st16" d="M241.6,330.3s1.3-.9.4-1.1-.4,1.1-.4,1.1Z"/>
  <path class="st16" d="M203.4,332s-6.8-2.9-5.3,1.3,5.3-1.3,5.3-1.3Z"/>
  <circle cx="359.5" cy="311" r="1.7"/>
  <circle cx="282.8" cy="312.4" r="1.7"/>
  <circle cx="230.5" cy="338.2" r="1.7"/>
  <circle cx="180" cy="326.7" r="1.7"/>
  <circle cx="356.9" cy="345.3" r="1.7"/>
  <circle cx="528" cy="355.2" r="1.7"/>
  <circle cx="507.9" cy="364" r="1.7"/>
  <circle cx="599.9" cy="330.8" r="1.7"/>
  <circle cx="652.9" cy="333.6" r="1.7"/>
  <circle cx="426.3" cy="348.2" r="1.7"/>
  <ellipse class="st13" cx="816.6" cy="354.2" rx="37.1" ry="24.2"/>
  <ellipse class="st10" cx="815.7" cy="363.2" rx="19" ry="12.4"/>
  <path class="st17" d="M457,290.2s-94.3-52.7-44.2-54.1c50.1-1.3,114.7-9.2,67.2-21.8-47.5-12.5-74.5-55.4-40.2-45.5,34.3,9.9,27,21.8,27,21.8,0,0-39.5-31.6-32.3-11.2,7.3,20.4,117.3,40.2,69.9,52.7-47.5,12.5-110.1,4-95.6,17.1,14.5,13.2,48.1,40.9,48.1,40.9Z"/>
  <path class="st17" d="M553.4,288s84.6-57.2,27.4-69.1c-57.2-11.9-131.1-94.1-52.4-82.2,78.7,11.9,165.5-29.3,85.6-65-79.8-35.8-78.9,15-62.7,26.8,16.2,11.7,6.7-1.2,6.7-1.2,0,0-20.6-31.9,0-34.1,20.6-2.2,83.3,37,45.1,48.7s-148.6-17.1-116.3,42.4c32.3,59.5,115.3,61.7,104.2,81.5s-37.6,52.3-37.6,52.3Z"/>
  <path class="st17" d="M366.2,336.5s-84.6-82.9-27.4-100.2c57.2-17.3,131.1-136.4,52.4-119.1-78.7,17.3-190.7-6.9-110.8-58.7,79.8-51.8,104-13.7,87.9,3.3-16.2,17-36,26.6-36,26.6,0,0,47.7-37.2,27.2-40.4s-129.9,26.6-91.8,43.6c38.2,17,197.5-35.1,165.2,51.1-32.3,86.2-115.3,89.4-104.2,118.1,11,28.7,37.6,75.8,37.6,75.8Z"/>
</svg>