<?xml version="1.0" encoding="UTF-8"?>
<svg id="Layer_1" data-name="Layer 1" xmlns="http://www.w3.org/2000/svg" viewBox="0 0 28.49 8.57">
  <defs>
    <style>
      .cls-1 {
        fill: #f9eac7;
      }

      .cls-2 {
        fill: #ddad17;
      }

      .cls-3 {
        fill: #003673;
      }

      .cls-4 {
        fill: #00633e;
      }

      .cls-5 {
        fill: #c1272d;
      }
    </style>
  </defs>
  <rect class="cls-5" width="2.4" height="8.54"/>
  <rect class="cls-2" x="2.39" width="2.4" height="8.54"/>
  <rect class="cls-4" x="9.58" width="2.4" height="8.54"/>
  <rect class="cls-3" x="7.19" width="2.4" height="8.54"/>
  <rect class="cls-1" x="4.73" width="2.4" height="8.54"/>
  <g>
    <path class="cls-2" d="M20.99,2.43c0,.96-.73,1.66-1.74,1.66-.51,0-1.02-.15-1.2-.27.1-.21.25-.61.25-.96,0-.37-.2-.54-.4-.54-.66,0-1.36,1.21-1.36,2.37,0,.82.4,1.32,1.04,1.32.81,0,1.5-.77,1.63-1.58.75.07,1.27.55,1.27,1.39,0,1.39-1.33,2.76-3.47,2.76-1.84,0-3.37-1.11-3.37-3.37,0-2.53,1.78-4.95,4.62-4.95,1.38,0,2.74.74,2.74,2.17Z"/>
    <path class="cls-2" d="M23.33,4.63h-.06c-.03.28-.05.57-.05.84,0,.92.18,1.83.61,2.29-.35.4-1.09.7-1.78.7-1.05,0-1.55-.65-1.55-1.44,0-1.31.99-3.33.99-5.08,0-.37-.1-.72-.22-.97.29-.32.82-.59,1.61-.59,1.81,0,2.31,2.45,2.85,4.15h.06c.01-.18.02-.39.02-.59,0-1.05-.21-2.25-.6-2.8.22-.39.92-.76,1.5-.76,1.18,0,1.76.66,1.76,1.62,0,1.59-1.03,3.86-1.03,5.03,0,.25.03.55.17.79-.35.4-.84.66-1.58.66-1.84,0-2-2.18-2.72-3.84Z"/>
  </g>
</svg>